<?xml version="1.0" standalone="no"?>
<!DOCTYPE svg PUBLIC "-//W3C//DTD SVG 20010904//EN"
 "http://www.w3.org/TR/2001/REC-SVG-20010904/DTD/svg10.dtd">
<svg version="1.0" xmlns="http://www.w3.org/2000/svg"
 width="700.000000pt" height="700.000000pt" viewBox="0 0 700.000000 700.000000"
 preserveAspectRatio="xMidYMid meet">
<metadata>
Created by potrace 1.14, written by Peter Selinger 2001-2017
</metadata>
<g transform="translate(0.000000,700.000000) scale(0.100000,-0.100000)"
fill="#000000" stroke="none">
<path d="M3200 6960 c-536 -51 -1043 -217 -1496 -490 -391 -236 -770 -587
-1033 -959 -342 -482 -545 -1013 -623 -1631 -17 -140 -17 -620 0 -760 56 -445
165 -807 357 -1191 168 -333 361 -597 649 -884 393 -391 811 -653 1326 -830
548 -188 1172 -234 1750 -129 559 102 1081 342 1550 713 124 97 415 389 516
516 429 538 674 1126 756 1810 17 147 17 617 0 755 -88 692 -328 1268 -751
1800 -104 130 -332 362 -471 479 -513 431 -1112 692 -1800 786 -136 19 -590
28 -730 15z m1205 -2600 c198 -19 349 -60 453 -123 71 -42 160 -139 195 -211
55 -111 57 -139 57 -773 l0 -583 -335 0 -335 0 0 85 c0 47 -3 85 -6 85 -3 0
-24 -16 -46 -35 -58 -49 -180 -110 -283 -140 -70 -21 -119 -28 -225 -32 -511
-20 -793 180 -766 543 23 306 207 457 633 521 90 13 186 17 406 18 l289 0 -7
65 c-9 79 -19 107 -52 142 -45 47 -111 63 -263 63 -79 0 -153 -6 -178 -13 -54
-16 -106 -62 -118 -104 l-10 -33 -311 -3 -311 -2 14 61 c38 164 141 292 294
368 93 45 241 86 365 100 115 12 411 13 540 1z m-2635 -230 c42 -107 130 -329
195 -494 72 -182 121 -293 125 -285 4 8 90 223 190 479 100 256 186 473 192
483 8 16 35 17 354 17 326 0 346 -1 339 -17 -3 -10 -176 -381 -383 -825 l-377
-808 -320 0 -321 0 -378 813 c-208 446 -381 818 -383 825 -4 10 66 12 342 10
l347 -3 78 -195z m4043 -864 c248 -121 247 -481 -1 -603 -49 -24 -69 -28 -147
-28 -84 0 -95 2 -153 34 -74 40 -116 85 -149 159 -82 177 13 396 197 457 70
23 185 15 253 -19z"/>
<path d="M4015 3330 c-163 -25 -235 -79 -242 -182 -8 -111 58 -166 210 -175
149 -9 319 46 415 135 l43 40 -3 93 -3 94 -185 1 c-102 1 -207 -2 -235 -6z"/>
</g>
</svg>
