<?xml version="1.0" encoding="utf-8"?>
<!-- Generator: Adobe Illustrator 18.0.0, SVG Export Plug-In . SVG Version: 6.00 Build 0)  -->
<!DOCTYPE svg PUBLIC "-//W3C//DTD SVG 1.1//EN" "http://www.w3.org/Graphics/SVG/1.1/DTD/svg11.dtd">
<svg version="1.1" id="Camada_1" xmlns="http://www.w3.org/2000/svg" xmlns:xlink="http://www.w3.org/1999/xlink" x="0px" y="0px"
	 viewBox="0 0 512 512" enable-background="new 0 0 512 512" xml:space="preserve">
<circle fill="#C9171E" cx="256" cy="256" r="253.9"/>
<g>
	<path fill="#FFFFFF" d="M232.2,195.4l-56.5,120.9h-46.5L72.9,195.4h50.8l28.8,72.8l28.6-72.8H232.2z"/>
	<path fill="#FFFFFF" d="M374,239v77.4h-49.5v-12.9c-7.3,7.9-22.7,16.3-43.3,16.3c-34.3,0-53.6-12.3-53.6-36.1
		c0-27.2,14.5-47.7,96.9-43.1V239c0-11.6-2-18.8-23.1-18.8c-17.5,0-21.1,4.5-22.7,12h-45.2c4.3-29.5,28.6-39.9,67.8-39.9
		C340.4,192.2,374,198.4,374,239z M324.5,268c-30.2-1.4-48.8,0-48.8,14.5c0,9.1,6.8,12.3,17.9,12.3c12.7,0,24.3-5.2,30.9-12.9V268z"
		/>
	<path fill="#FFFFFF" d="M439.1,295c0,13.6-11.1,24.7-24.7,24.7c-13.6,0-24.5-11.1-24.5-24.7c0-13.4,10.9-24.5,24.5-24.5
		C428,270.5,439.1,281.6,439.1,295z"/>
</g>
</svg>
