<?xml version="1.0" standalone="no"?>
<!DOCTYPE svg PUBLIC "-//W3C//DTD SVG 1.1//EN" "http://www.w3.org/Graphics/SVG/1.1/DTD/svg11.dtd" >
<svg>
<metadata>
Created by FontForge 20120731 at Tue Sep 15 16:51:34 2020
 By ffonts
Copyright \(c\) 2019 by MadeType. All rights reserved.
</metadata>
<defs>
<font id="MADEOuterSans-Light" horiz-adv-x="682" >
  <font-face 
    font-family="MADE Outer Sans"
    font-weight="300"
    font-stretch="normal"
    units-per-em="1000"
    panose-1="2 0 5 5 0 0 0 2 0 4"
    ascent="800"
    descent="-200"
    x-height="533"
    cap-height="700"
    bbox="-62 -233 1533 995"
    underline-thickness="50"
    underline-position="-50"
    unicode-range="U+0020-F6C3"
  />
<missing-glyph horiz-adv-x="290" 
 />
    <glyph glyph-name=".notdef" horiz-adv-x="290" 
 />
    <glyph glyph-name="B" unicode="B" horiz-adv-x="822" 
d="M656 364c82 -24 126 -72 126 -158c0 -127 -72 -206 -271 -206h-431v700h443c168 0 233 -64 233 -179c0 -76 -33 -125 -100 -152v-5zM521 597h-318v-195h318c91 0 118 41 118 97c0 60 -31 98 -118 98zM525 103c107 0 131 49 131 109s-37 94 -131 94h-322v-203h322z" />
    <glyph glyph-name="C" unicode="C" horiz-adv-x="837" 
d="M424 88c163 0 224 97 244 189h129c-32 -198 -190 -292 -373 -292c-194 0 -384 106 -384 365s190 364 384 364c183 0 341 -94 373 -292h-129c-20 92 -81 189 -244 189c-168 0 -257 -100 -257 -261s89 -262 257 -262z" />
    <glyph glyph-name="D" unicode="D" horiz-adv-x="821" 
d="M368 700c226 0 413 -78 413 -350s-187 -350 -413 -350h-288v700h288zM353 104c191 0 302 65 302 246c0 180 -111 246 -302 246h-150v-492h150z" />
    <glyph glyph-name="E" unicode="E" horiz-adv-x="716" 
d="M666 104v-104h-586v700h577v-104h-454v-184h425v-105h-425v-203h463z" />
    <glyph glyph-name="F" unicode="F" horiz-adv-x="697" 
d="M657 596h-454v-203h426v-105h-426v-288h-123v700h577v-104z" />
    <glyph glyph-name="G" unicode="G" horiz-adv-x="861" 
d="M819 388c18 -256 -123 -403 -370 -403c-224 0 -409 123 -409 365s192 364 394 364c183 0 321 -84 367 -238h-132c-29 68 -91 135 -235 135c-167 0 -267 -108 -267 -261c0 -154 108 -262 283 -262s237 105 244 196h-242v104h367z" />
    <glyph glyph-name="H" unicode="H" horiz-adv-x="871" 
d="M668 700h123v-700h-123v307h-465v-307h-123v700h123v-288h465v288z" />
    <glyph glyph-name="I" unicode="I" horiz-adv-x="283" 
d="M80 700h123v-700h-123v700z" />
    <glyph glyph-name="J" unicode="J" horiz-adv-x="748" 
d="M545 700h123v-399c0 -235 -101 -316 -304 -316c-222 0 -314 99 -314 287v40h124v-28c0 -141 58 -196 190 -196c140 0 181 71 181 213v399z" />
    <glyph glyph-name="K" unicode="K" horiz-adv-x="792" 
d="M628 0l-249 342l-176 -163v-179h-123v700h123v-374l393 374h171l-298 -275l313 -425h-154z" />
    <glyph glyph-name="Aogonek" unicode="&#x104;" horiz-adv-x="808" 
d="M716 -79c0 -44 54 -44 91 -36v-70c-6 -3 -39 -11 -68 -11c-69 0 -118 28 -118 85c0 64 73 100 104 111h-51l-70 156h-401l-70 -156h-133l323 700h161l323 -700c-33 -11 -91 -34 -91 -79zM250 260h307l-153 343z" />
    <glyph glyph-name="Ccedilla" unicode="&#xc7;" horiz-adv-x="837" 
d="M424 88c162 0 223 97 243 189h130c-31 -187 -175 -281 -345 -291l-29 -40c69 17 166 14 166 -77c0 -69 -58 -101 -151 -101c-33 0 -82 8 -99 13v56c107 -24 166 -10 166 31c0 39 -36 46 -148 35v31l38 52c-184 10 -355 117 -355 364c0 259 189 364 384 364
c182 0 340 -94 373 -292h-130c-20 92 -81 189 -243 189c-169 0 -258 -100 -258 -261s89 -262 258 -262z" />
    <glyph glyph-name="Eogonek" unicode="&#x118;" horiz-adv-x="717" 
d="M667 0c-34 -11 -92 -34 -92 -79c0 -44 55 -44 92 -36v-70c-6 -3 -39 -11 -69 -11c-68 0 -117 28 -117 85c0 64 73 100 104 111h-505v700h577v-104h-453v-184h425v-105h-425v-203h463v-104z" />
    <glyph glyph-name="Iogonek" unicode="&#x12e;" horiz-adv-x="283" 
d="M203 0c-33 -11 -91 -34 -91 -79c0 -44 54 -44 91 -36v-70c-6 -3 -39 -11 -68 -11c-69 0 -117 28 -117 85c0 64 72 100 103 111h-41v700h123v-700z" />
    <glyph glyph-name="tilde" unicode="&#x2dc;" horiz-adv-x="543" 
d="M396 687h67c0 -59 -25 -115 -101 -115c-78 0 -112 56 -173 56c-33 0 -43 -30 -43 -52h-66c0 66 35 115 105 115c78 0 116 -58 170 -58c36 0 41 29 41 54z" />
    <glyph glyph-name="grave" unicode="`" horiz-adv-x="364" 
d="M210 695l74 -129h-80l-124 129h130z" />
    <glyph glyph-name="acute" unicode="&#xb4;" horiz-adv-x="364" 
d="M154 695h130l-124 -129h-80z" />
    <glyph glyph-name="caron" unicode="&#x2c7;" horiz-adv-x="546" 
d="M361 695h105l-129 -129h-127l-130 129h105l88 -92z" />
    <glyph glyph-name="dotaccent" unicode="&#x2d9;" horiz-adv-x="279" 
d="M139 690c33 0 60 -26 60 -59s-27 -60 -60 -60c-32 0 -59 27 -59 60s27 59 59 59z" />
    <glyph glyph-name="macron" unicode="&#xaf;" horiz-adv-x="509" 
d="M80 654h349v-66h-349v66z" />
    <glyph glyph-name="circumflex" unicode="&#x2c6;" horiz-adv-x="545" 
d="M465 566h-105l-87 92l-88 -92h-105l129 129h127z" />
    <glyph glyph-name="L" unicode="L" horiz-adv-x="697" 
d="M657 104v-104h-577v700h123v-596h454z" />
    <glyph glyph-name="M" unicode="M" horiz-adv-x="1067" 
d="M792 700h195v-700h-123v601l-264 -601h-133l-264 601v-601h-123v700h194l259 -591z" />
    <glyph glyph-name="N" unicode="N" horiz-adv-x="852" 
d="M649 700h123v-700h-147l-421 553v-553h-124v700h147l422 -553v553z" />
    <glyph glyph-name="O" unicode="O" horiz-adv-x="887" 
d="M444 714c218 0 403 -122 403 -364s-185 -365 -403 -365c-219 0 -404 123 -404 365s185 364 404 364zM444 88c177 0 276 106 276 262c0 155 -99 261 -276 261c-178 0 -277 -106 -277 -261c0 -156 99 -262 277 -262z" />
    <glyph glyph-name="P" unicode="P" horiz-adv-x="793" 
d="M500 700c190 0 253 -111 253 -231c0 -134 -79 -232 -272 -232h-278v-237h-123v700h420zM481 340c108 0 145 56 145 129c0 79 -43 127 -147 127h-276v-256h278z" />
    <glyph glyph-name="Q" unicode="Q" horiz-adv-x="886" 
d="M846 0h-132l-39 42c-66 -38 -147 -57 -232 -57c-218 0 -403 123 -403 365s185 364 403 364s403 -122 403 -364c0 -106 -36 -190 -94 -250zM443 88c61 0 113 13 155 36l-132 140h132l73 -77c32 43 49 99 49 163c0 155 -100 261 -277 261s-277 -106 -277 -261
c0 -156 100 -262 277 -262z" />
    <glyph glyph-name="R" unicode="R" horiz-adv-x="816" 
d="M786 0h-142l-154 247c-7 0 -15 -1 -22 -1h-265v-246h-123v700h428c174 0 254 -91 254 -226c0 -98 -50 -171 -149 -206zM203 596v-247h280c97 0 153 42 153 125c0 85 -53 122 -153 122h-280z" />
    <glyph glyph-name="S" unicode="S" horiz-adv-x="759" 
d="M412 404c198 -27 317 -57 317 -193c0 -132 -99 -226 -344 -226c-261 0 -365 97 -365 223h132c4 -73 86 -119 237 -119c130 0 212 32 212 107c0 84 -116 77 -311 109c-168 27 -246 81 -246 195c0 122 89 214 320 214c240 0 331 -109 331 -209h-126c-6 51 -59 105 -208 105
c-156 0 -193 -47 -193 -101c0 -76 94 -84 244 -105z" />
    <glyph glyph-name="T" unicode="T" horiz-adv-x="733" 
d="M693 700v-104h-265v-596h-123v596h-265v104h653z" />
    <glyph glyph-name="U" unicode="U" horiz-adv-x="824" 
d="M620 700h124v-421c0 -245 -163 -294 -332 -294c-170 0 -332 49 -332 294v421h123v-412c0 -143 64 -200 209 -200s208 57 208 200v412z" />
    <glyph glyph-name="breve" unicode="&#x2d8;" horiz-adv-x="497" 
d="M351 692h66c0 -79 -57 -133 -169 -133s-168 54 -168 133h66c2 -41 33 -71 102 -71c70 0 101 30 103 71z" />
    <glyph glyph-name="Scedilla" unicode="&#x15e;" horiz-adv-x="759" 
d="M728 211c0 -129 -94 -221 -326 -225l-29 -40c69 17 167 14 167 -77c0 -69 -59 -101 -152 -101c-33 0 -82 8 -99 13v56c108 -24 166 -10 166 31c0 39 -36 46 -148 35v31l38 52c-232 10 -325 103 -325 222h131c5 -73 86 -119 237 -119c130 0 212 32 212 107
c0 84 -115 77 -310 109c-169 27 -247 81 -247 195c0 122 89 214 320 214c240 0 331 -109 331 -209h-126c-6 51 -59 105 -208 105c-155 0 -193 -47 -193 -101c0 -76 95 -84 244 -105c199 -27 317 -57 317 -193z" />
    <glyph glyph-name="dieresis" unicode="&#xa8;" horiz-adv-x="489" 
d="M140 680c33 0 59 -26 59 -59s-26 -60 -59 -60s-60 27 -60 60s27 59 60 59zM350 680c33 0 59 -26 59 -59s-26 -60 -59 -60s-60 27 -60 60s27 59 60 59z" />
    <glyph glyph-name="Uogonek" unicode="&#x172;" horiz-adv-x="824" 
d="M621 700h123v-421c0 -177 -85 -251 -196 -279c-33 -11 -91 -34 -91 -79c0 -44 54 -44 91 -36v-70c-6 -3 -39 -11 -68 -11c-69 0 -117 28 -117 85c0 47 39 79 72 97c-8 0 -16 -1 -23 -1c-170 0 -332 49 -332 294v421h123v-412c0 -143 64 -200 209 -200s209 57 209 200v412
z" />
    <glyph glyph-name="ring" unicode="&#x2da;" horiz-adv-x="403" 
d="M202 795c68 0 121 -53 121 -122c0 -68 -53 -121 -121 -121c-69 0 -122 53 -122 121c0 69 53 122 122 122zM202 609c39 0 64 28 64 64c0 37 -25 65 -64 65s-65 -28 -65 -65c0 -36 26 -64 65 -64z" />
    <glyph glyph-name="hungarumlaut" unicode="&#x2dd;" horiz-adv-x="604" 
d="M80 566l74 129h129l-124 -129h-79zM395 695h129l-124 -129h-80z" />
    <glyph glyph-name="V" unicode="V" horiz-adv-x="808" 
d="M674 700h134l-324 -700h-160l-324 700h133l271 -603z" />
    <glyph glyph-name="W" unicode="W" horiz-adv-x="1140" 
d="M998 700h142l-247 -700h-161l-162 518l-162 -518h-160l-248 700h143l189 -579l181 579h114l182 -579z" />
    <glyph glyph-name="X" unicode="X" horiz-adv-x="766" 
d="M462 365l304 -365h-159l-224 281l-224 -281h-159l304 365l-278 335h158l199 -251l199 251h158z" />
    <glyph glyph-name="Y" unicode="Y" horiz-adv-x="772" 
d="M623 700h149l-324 -442v-258h-123v258l-325 442h149l237 -336z" />
    <glyph glyph-name="Z" unicode="Z" horiz-adv-x="772" 
d="M233 104h489v-104h-672v85l480 511h-461v104h643v-86z" />
    <glyph glyph-name="zero" unicode="0" horiz-adv-x="711" 
d="M356 714c170 0 325 -110 325 -364s-155 -365 -325 -365c-171 0 -326 111 -326 365s155 364 326 364zM356 79c166 0 215 133 215 271s-49 271 -215 271s-215 -133 -215 -271s49 -271 215 -271z" />
    <glyph glyph-name="one" unicode="1" horiz-adv-x="398" 
d="M249 700h79v-700h-114v583l-184 -114v95z" />
    <glyph glyph-name="two" unicode="2" horiz-adv-x="686" 
d="M166 102h480v-102h-616c14 410 495 274 495 500c0 69 -41 128 -171 128c-123 0 -180 -56 -189 -129h-107c14 132 120 215 299 215c150 0 282 -53 282 -221c0 -285 -445 -209 -473 -391z" />
    <glyph glyph-name="three" unicode="3" horiz-adv-x="701" 
d="M517 372c84 -19 154 -63 154 -159c0 -152 -134 -228 -318 -228c-190 0 -317 79 -323 207h111c7 -55 59 -114 213 -114c161 0 202 68 202 137c0 67 -43 106 -164 106h-135v87h136c111 0 137 49 137 101s-33 119 -183 119c-119 0 -173 -43 -186 -100h-110
c18 119 137 186 299 186c156 0 286 -64 286 -193c0 -79 -52 -124 -119 -149z" />
    <glyph glyph-name="four" unicode="4" horiz-adv-x="748" 
d="M718 246v-90h-129v-156h-114v156h-445v99l393 445h166v-454h129zM151 246h324v375z" />
    <glyph glyph-name="five" unicode="5" horiz-adv-x="681" 
d="M385 459c137 0 266 -56 266 -217c0 -153 -117 -257 -309 -257c-165 0 -297 76 -312 198h110c14 -54 69 -102 202 -102c152 0 194 85 194 160c0 81 -50 138 -184 138c-94 0 -163 -46 -190 -71h-107l57 392h492v-101h-411l-30 -209c50 35 119 69 222 69z" />
    <glyph glyph-name="six" unicode="6" horiz-adv-x="695" 
d="M381 463c167 0 284 -70 284 -228c0 -180 -151 -250 -303 -250c-211 0 -332 113 -332 355c0 256 130 374 332 374c145 0 274 -62 289 -181h-112c-11 43 -55 88 -177 88c-172 0 -222 -107 -222 -281c30 79 122 123 241 123zM362 81c127 0 195 58 195 152s-71 153 -186 153
c-142 0 -204 -65 -204 -153s58 -152 195 -152z" />
    <glyph glyph-name="seven" unicode="7" horiz-adv-x="678" 
d="M30 700h618v-104c-94 -79 -309 -249 -346 -596h-135c26 291 253 507 374 599h-511v101z" />
    <glyph glyph-name="eight" unicode="8" horiz-adv-x="727" 
d="M534 373c93 -19 163 -66 163 -172c0 -155 -145 -216 -334 -216c-188 0 -333 61 -333 216c0 106 69 153 163 172c-71 19 -127 59 -127 147c2 137 119 194 297 194c179 0 295 -57 297 -194c0 -88 -56 -128 -126 -147zM363 620c-144 0 -190 -44 -190 -108
c0 -73 60 -105 190 -105s190 32 190 104c0 65 -45 109 -190 109zM363 80c158 0 219 47 219 127c0 75 -57 124 -219 124c-161 0 -218 -49 -218 -124c0 -80 61 -127 218 -127z" />
    <glyph glyph-name="nine" unicode="9" horiz-adv-x="696" 
d="M334 714c210 0 332 -113 332 -355c0 -256 -130 -374 -332 -374c-145 0 -275 62 -290 182h112c11 -44 55 -88 178 -88c171 0 221 107 221 280c-29 -79 -122 -122 -240 -122c-168 0 -285 70 -285 228c0 180 152 249 304 249zM324 314c142 0 204 64 204 153
c0 88 -58 152 -194 152c-128 0 -195 -58 -195 -152c0 -95 70 -153 185 -153z" />
    <glyph glyph-name="a" unicode="a" horiz-adv-x="651" 
d="M309 548c147 0 272 -49 272 -202v-346h-123v69c-26 -30 -90 -84 -215 -84c-128 0 -213 53 -213 155c0 110 60 197 428 173v33c0 74 -38 111 -149 111c-95 0 -134 -31 -143 -76h-115c16 112 120 167 258 167zM458 150v89c-222 11 -302 -8 -302 -91c0 -54 42 -81 113 -81
c94 0 156 35 189 83z" />
    <glyph glyph-name="b" unicode="b" horiz-adv-x="696" 
d="M389 548c156 0 277 -101 277 -282c0 -180 -121 -281 -277 -281c-90 0 -154 34 -196 85v-70h-123v700h123v-237c42 51 106 85 196 85zM365 76c128 0 187 78 187 190c0 113 -58 191 -187 191s-190 -80 -190 -191c0 -110 62 -190 190 -190z" />
    <glyph glyph-name="c" unicode="c" horiz-adv-x="659" 
d="M337 76c108 0 162 63 177 123h115c-26 -142 -148 -214 -292 -214c-156 0 -307 84 -307 281s151 282 307 282c144 0 266 -72 292 -214h-115c-15 60 -69 123 -177 123c-143 0 -194 -97 -194 -191c0 -93 51 -190 194 -190z" />
    <glyph glyph-name="d" unicode="d" horiz-adv-x="695" 
d="M502 700h123v-700h-123v70c-42 -51 -106 -85 -195 -85c-156 0 -277 101 -277 281c0 181 121 282 277 282c89 0 153 -34 195 -85v237zM331 76c127 0 190 80 190 190c0 111 -61 191 -190 191c-130 0 -187 -78 -187 -191c0 -112 59 -190 187 -190z" />
    <glyph glyph-name="e" unicode="e" horiz-adv-x="652" 
d="M330 548c169 0 305 -100 291 -321h-480c14 -91 79 -151 191 -151c104 0 148 50 166 88h108c-27 -109 -131 -179 -274 -179c-152 0 -302 87 -302 281c0 191 147 282 300 282zM144 317h367c-16 84 -74 140 -181 140c-99 0 -167 -56 -186 -140z" />
    <glyph glyph-name="f" unicode="f" horiz-adv-x="435" 
d="M405 635c-125 12 -159 -7 -159 -102h145v-94h-145v-439h-123v439h-93v94h93c0 109 38 205 191 205c36 0 62 -2 91 -6v-97z" />
    <glyph glyph-name="g" unicode="g" horiz-adv-x="696" 
d="M503 533h123v-482c0 -206 -157 -237 -310 -237c-167 0 -267 59 -278 160h114c8 -32 48 -67 164 -67c149 0 187 48 187 144v59c-39 -47 -102 -77 -196 -77c-155 0 -277 77 -277 252c0 176 122 263 277 263c94 0 157 -35 196 -87v72zM331 113c115 0 191 62 191 172
c0 111 -74 172 -191 172c-116 0 -187 -59 -187 -172c0 -112 72 -172 187 -172z" />
    <glyph glyph-name="h" unicode="h" 
d="M397 548c139 0 215 -79 215 -203v-345h-123v308c0 90 -49 140 -146 140s-150 -56 -150 -140v-308h-123v700h123v-249c25 35 93 97 204 97z" />
    <glyph glyph-name="i" unicode="i" horiz-adv-x="263" 
d="M70 0v533h123v-533h-123zM131 607c-38 0 -65 22 -65 60s27 60 65 60c39 0 66 -22 66 -60s-27 -60 -66 -60z" />
    <glyph glyph-name="j" unicode="j" horiz-adv-x="263" 
d="M70 9v524h123v-524c0 -90 -15 -195 -165 -195c-26 0 -40 2 -63 5v101c95 -5 105 25 105 89zM131 607c-38 0 -65 22 -65 60s27 60 65 60c39 0 66 -22 66 -60s-27 -60 -66 -60z" />
    <glyph glyph-name="k" unicode="k" horiz-adv-x="656" 
d="M490 0l-181 242l-115 -108v-134h-124v700h124v-426l275 259h154l-227 -211l240 -322h-146z" />
    <glyph glyph-name="l" unicode="l" horiz-adv-x="263" 
d="M70 738h123v-738h-123v738z" />
    <glyph glyph-name="m" unicode="m" horiz-adv-x="1026" 
d="M750 548c139 0 206 -79 206 -203v-345h-124v308c0 90 -33 140 -127 140c-93 0 -131 -60 -131 -140v-308h-123v308c0 90 -34 140 -127 140s-131 -60 -131 -140v-308h-123v533h123v-78c20 35 71 93 175 93c92 0 152 -34 182 -93c27 36 93 93 200 93z" />
    <glyph glyph-name="ogonek" unicode="&#x2db;" horiz-adv-x="346" 
d="M175 -79c0 -44 54 -44 91 -36v-70c-6 -3 -39 -11 -69 -11c-68 0 -117 28 -117 85c0 64 73 100 104 111h82c-34 -11 -91 -34 -91 -79z" />
    <glyph glyph-name="commaaccent" unicode="&#xf6c3;" horiz-adv-x="332" 
d="M120 -66h132l-96 -167h-76z" />
    <glyph glyph-name="cedilla" unicode="&#xb8;" horiz-adv-x="410" 
d="M164 -54c68 17 166 14 166 -77c0 -69 -58 -101 -152 -101c-33 0 -81 8 -98 13v56c107 -24 166 -10 166 31c0 39 -37 46 -148 35v31l61 84h57z" />
    <glyph glyph-name="aogonek" unicode="&#x105;" horiz-adv-x="651" 
d="M310 548c146 0 271 -49 271 -202v-346c-34 -11 -91 -34 -91 -79c0 -44 54 -44 91 -36v-70c-6 -3 -39 -11 -69 -11c-68 0 -117 28 -117 85c0 64 73 100 104 111h-41v69c-26 -30 -90 -84 -215 -84c-127 0 -213 53 -213 155c0 110 61 197 428 173v33c0 74 -37 111 -148 111
c-96 0 -135 -31 -144 -76h-115c16 112 121 167 259 167zM458 150v89c-222 11 -302 -8 -302 -91c0 -54 42 -81 113 -81c94 0 156 35 189 83z" />
    <glyph glyph-name="ccedilla" unicode="&#xe7;" horiz-adv-x="659" 
d="M337 76c108 0 161 63 177 123h115c-25 -137 -138 -207 -274 -213l-29 -40c69 17 167 14 167 -77c0 -69 -59 -101 -152 -101c-33 0 -82 8 -99 13v56c108 -24 166 -10 166 31c0 39 -36 46 -148 35v31l39 53c-142 13 -269 99 -269 279c0 197 151 282 307 282
c144 0 266 -72 292 -214h-115c-16 60 -69 123 -177 123c-143 0 -194 -97 -194 -191c0 -93 51 -190 194 -190z" />
    <glyph glyph-name="eogonek" unicode="&#x119;" horiz-adv-x="652" 
d="M621 227h-480c15 -91 79 -151 192 -151c103 0 148 50 165 88h109c-22 -85 -89 -145 -185 -168c-34 -11 -86 -32 -86 -75c0 -44 54 -44 91 -36v-70c-6 -3 -39 -11 -69 -11c-68 0 -117 28 -117 85c0 49 43 80 77 97c-148 5 -288 92 -288 280c0 191 147 282 300 282
c169 0 305 -100 291 -321zM330 457c-99 0 -167 -56 -186 -140h367c-15 84 -74 140 -181 140z" />
    <glyph glyph-name="n" unicode="n" 
d="M397 548c139 0 215 -79 215 -203v-345h-123v308c0 90 -49 140 -146 140s-150 -56 -150 -140v-308h-123v533h123v-82c25 35 93 97 204 97z" />
    <glyph glyph-name="o" unicode="o" horiz-adv-x="671" 
d="M335 548c156 0 306 -85 306 -282s-150 -281 -306 -281s-305 84 -305 281s149 282 305 282zM335 76c143 0 192 97 192 190c0 94 -49 191 -192 191s-192 -97 -192 -191c0 -93 49 -190 192 -190z" />
    <glyph glyph-name="p" unicode="p" horiz-adv-x="695" 
d="M388 548c156 0 277 -101 277 -282c0 -180 -121 -281 -277 -281c-89 0 -153 34 -195 85v-237h-123v700h123v-70c42 51 106 85 195 85zM364 76c130 0 187 78 187 190c0 113 -59 191 -187 191s-190 -80 -190 -191c0 -110 61 -190 190 -190z" />
    <glyph glyph-name="q" unicode="q" horiz-adv-x="696" 
d="M503 533h123v-700h-123v237c-42 -51 -106 -85 -196 -85c-155 0 -277 101 -277 281c0 181 122 282 277 282c90 0 154 -34 196 -85v70zM331 76c129 0 191 80 191 190c0 111 -63 191 -191 191s-187 -78 -187 -191c0 -112 58 -190 187 -190z" />
    <glyph glyph-name="r" unicode="r" horiz-adv-x="496" 
d="M407 548c24 0 38 -1 59 -4v-122h-4c-21 6 -48 10 -82 10c-135 0 -186 -78 -186 -161v-271h-124v533h124v-100c24 39 98 115 213 115z" />
    <glyph glyph-name="s" unicode="s" horiz-adv-x="617" 
d="M351 312c151 -26 236 -46 236 -151c0 -124 -103 -176 -281 -176c-162 0 -286 56 -286 177h127c0 -58 57 -84 169 -84c109 0 148 27 148 67c0 59 -89 60 -225 85c-138 26 -199 58 -199 153c0 107 100 165 257 165c171 0 263 -68 263 -167h-115c0 34 -36 76 -150 76
c-107 0 -144 -27 -144 -68c0 -54 105 -61 200 -77z" />
    <glyph glyph-name="t" unicode="t" horiz-adv-x="468" 
d="M418 439h-161v-240c0 -90 36 -115 161 -102v-96c-18 -5 -45 -9 -70 -9c-162 0 -214 66 -214 207v240h-104v94h104v138h123v-138h161v-94z" />
    <glyph glyph-name="u" unicode="u" 
d="M489 533h123v-533h-123v82c-25 -35 -93 -97 -204 -97c-139 0 -215 79 -215 203v345h123v-308c0 -90 49 -140 146 -140s150 56 150 140v308z" />
    <glyph glyph-name="v" unicode="v" horiz-adv-x="647" 
d="M497 533h130l-239 -533h-129l-239 533h130l174 -413z" />
    <glyph glyph-name="w" unicode="w" horiz-adv-x="991" 
d="M841 533h130l-210 -533h-120l-146 386l-145 -386h-120l-210 533h130l143 -391l147 391h111l147 -391z" />
    <glyph glyph-name="x" unicode="x" horiz-adv-x="662" 
d="M412 270l230 -270h-151l-160 193l-159 -193h-152l231 270l-215 263h151l144 -186l145 186h151z" />
    <glyph glyph-name="y" unicode="y" horiz-adv-x="647" 
d="M498 533h129l-320 -700h-122l83 186l-248 514h129l177 -385z" />
    <glyph glyph-name="z" unicode="z" horiz-adv-x="613" 
d="M211 104h362v-104h-533v99l353 330h-334v104h505v-99z" />
    <glyph glyph-name="bullet" unicode="&#x2022;" horiz-adv-x="335" 
d="M167 242c-68 0 -117 40 -117 108s49 108 117 108c69 0 118 -40 118 -108s-49 -108 -118 -108z" />
    <glyph glyph-name="napostrophe" unicode="&#x149;" horiz-adv-x="850" 
d="M565 548c139 0 215 -79 215 -203v-345h-123v308c0 90 -49 140 -146 140s-150 -56 -150 -140v-308h-123v533h123v-82c24 35 93 97 204 97zM30 457l66 243h114l-104 -243h-76z" />
    <glyph glyph-name="germandbls" unicode="&#xdf;" horiz-adv-x="754" 
d="M567 381c84 -16 157 -61 157 -179c0 -140 -96 -217 -268 -217c-46 0 -95 8 -129 15v89c15 -3 69 -13 120 -13c117 0 160 52 160 132c0 67 -35 115 -174 115h-106v85h97c97 0 128 47 128 106c0 50 -33 114 -185 114c-142 0 -184 -77 -184 -195v-433h-113v442
c0 208 131 272 300 272c162 0 291 -58 291 -192c0 -81 -42 -121 -94 -141z" />
    <glyph glyph-name="scedilla" unicode="&#x15f;" horiz-adv-x="617" 
d="M586 161c0 -123 -101 -175 -277 -176l-28 -39c68 17 166 14 166 -77c0 -69 -58 -101 -152 -101c-33 0 -81 8 -98 13v56c107 -24 166 -10 166 31c0 39 -37 46 -148 35v31l38 54c-135 10 -233 66 -233 174h126c0 -58 57 -84 170 -84c109 0 147 27 147 67
c0 59 -88 60 -224 85c-139 26 -199 58 -199 153c0 107 100 165 256 165c172 0 264 -68 264 -167h-115c0 34 -36 76 -151 76c-106 0 -144 -27 -144 -68c0 -54 106 -61 201 -77c150 -26 235 -46 235 -151z" />
    <glyph glyph-name="uogonek" unicode="&#x173;" 
d="M489 533h123v-533c-34 -11 -92 -34 -92 -79c0 -44 55 -44 92 -36v-70c-7 -3 -39 -11 -69 -11c-68 0 -117 28 -117 85c0 64 72 100 104 111h-41v82c-25 -35 -93 -97 -204 -97c-139 0 -215 79 -215 203v345h123v-308c0 -90 49 -140 146 -140s150 56 150 140v308z" />
    <glyph glyph-name="period" unicode="." horiz-adv-x="217" 
d="M109 122c37 0 68 -30 68 -68s-31 -68 -68 -68c-38 0 -69 30 -69 68s31 68 69 68z" />
    <glyph glyph-name="comma" unicode="," horiz-adv-x="243" 
d="M80 148h123l-97 -240h-66z" />
    <glyph glyph-name="colon" unicode=":" horiz-adv-x="217" 
d="M109 122c37 0 68 -30 68 -68s-31 -68 -68 -68c-38 0 -69 30 -69 68s31 68 69 68zM109 411c-38 0 -69 31 -69 68c0 38 31 69 69 69c37 0 68 -31 68 -69c0 -37 -31 -68 -68 -68z" />
    <glyph glyph-name="semicolon" unicode=";" horiz-adv-x="249" 
d="M141 411c-38 0 -68 31 -68 68c0 38 30 69 68 69s68 -31 68 -69c0 -37 -30 -68 -68 -68zM40 -92l39 240h123l-96 -240h-66z" />
    <glyph glyph-name="exclam" unicode="!" horiz-adv-x="237" 
d="M118 122c38 0 69 -30 69 -68s-31 -68 -69 -68c-37 0 -68 30 -68 68s31 68 68 68zM156 237h-75l-24 463h123z" />
    <glyph glyph-name="question" unicode="?" horiz-adv-x="611" 
d="M295 122c38 0 69 -30 69 -68s-31 -68 -69 -68c-37 0 -68 30 -68 68s31 68 68 68zM307 714c161 0 284 -62 284 -201c0 -185 -252 -150 -252 -276h-94c0 187 242 139 242 285c0 62 -55 106 -180 106c-127 0 -174 -56 -184 -131h-103c17 149 136 217 287 217z" />
    <glyph glyph-name="questiondown" unicode="&#xbf;" horiz-adv-x="611" 
d="M316 411c-37 0 -68 31 -68 68c0 38 31 69 68 69c38 0 69 -31 69 -69c0 -37 -31 -68 -69 -68zM489 36h102c-16 -149 -135 -217 -286 -217c-161 0 -285 62 -285 201c0 185 252 150 252 276h94c0 -187 -241 -138 -241 -285c0 -62 55 -106 180 -106c127 0 173 57 184 131z
" />
    <glyph glyph-name="exclamdown" unicode="&#xa1;" horiz-adv-x="237" 
d="M119 411c-38 0 -69 31 -69 68c0 38 31 69 69 69c37 0 68 -31 68 -69c0 -37 -31 -68 -68 -68zM81 296h75l24 -463h-123z" />
    <glyph glyph-name="hyphen" unicode="-" horiz-adv-x="478" 
d="M80 324h318v-85h-318v85z" />
    <glyph glyph-name="endash" unicode="&#x2013;" horiz-adv-x="640" 
d="M80 324h480v-85h-480v85z" />
    <glyph glyph-name="emdash" unicode="&#x2014;" horiz-adv-x="744" 
d="M80 324h584v-85h-584v85z" />
    <glyph glyph-name="underscore" unicode="_" horiz-adv-x="721" 
d="M30 -78h661v-62h-661v62z" />
    <glyph glyph-name="minus" unicode="&#x2212;" horiz-adv-x="583" 
d="M80 362h423v-85h-423v85z" />
    <glyph glyph-name="plus" unicode="+" horiz-adv-x="582" 
d="M502 362v-85h-168v-169h-86v169h-168v85h168v169h86v-169h168z" />
    <glyph glyph-name="multiply" unicode="&#xd7;" horiz-adv-x="519" 
d="M439 439l-119 -119l119 -120l-60 -60l-119 119l-120 -119l-60 60l119 120l-119 119l60 60l120 -119l119 119z" />
    <glyph glyph-name="divide" unicode="&#xf7;" horiz-adv-x="582" 
d="M80 362h422v-85h-422v85zM291 176c33 0 59 -26 59 -59c0 -32 -26 -59 -59 -59s-59 27 -59 59c0 33 26 59 59 59zM291 463c-33 0 -59 27 -59 59c0 33 26 59 59 59s59 -26 59 -59c0 -32 -26 -59 -59 -59z" />
    <glyph glyph-name="equal" unicode="=" horiz-adv-x="583" 
d="M80 457h423v-85h-423v85zM80 182v85h423v-85h-423z" />
    <glyph glyph-name="notequal" unicode="&#x2260;" horiz-adv-x="583" 
d="M503 372h-148l-65 -105h213v-85h-265l-73 -117h-62l72 117h-95v85h148l64 105h-212v85h265l73 117h62l-73 -117h96v-85z" />
    <glyph glyph-name="less" unicode="&#x3c;" horiz-adv-x="582" 
d="M502 543v-85l-323 -139l323 -138v-85l-422 181v85z" />
    <glyph glyph-name="greater" unicode="&#x3e;" horiz-adv-x="582" 
d="M80 543l422 -181v-85l-422 -181v85l324 138l-324 139v85z" />
    <glyph glyph-name="plusminus" unicode="&#xb1;" horiz-adv-x="583" 
d="M80 0v85h423v-85h-423zM334 404h169v-86h-169v-140h-85v140h-169v86h169v140h85v-140z" />
    <glyph glyph-name="lessequal" unicode="&#x2264;" horiz-adv-x="583" 
d="M80 0v85h423v-85h-423zM503 545v-84l-305 -100l305 -100v-85l-423 144v82z" />
    <glyph glyph-name="greaterequal" unicode="&#x2265;" horiz-adv-x="582" 
d="M80 0v85h422v-85h-422zM80 545l422 -143v-82l-422 -144v85l304 100l-304 100v84z" />
    <glyph glyph-name="guillemotleft" unicode="&#xab;" horiz-adv-x="554" 
d="M40 228v108l208 148v-105l-143 -97l143 -98v-105zM494 484v-105l-143 -97l143 -98v-105l-208 149v108z" />
    <glyph glyph-name="guillemotright" unicode="&#xbb;" horiz-adv-x="554" 
d="M306 484l208 -148v-108l-208 -149v105l143 98l-143 97v105zM60 379v105l208 -148v-108l-208 -149v105l143 98z" />
    <glyph glyph-name="asciitilde" unicode="~" horiz-adv-x="602" 
d="M435 331c42 0 68 17 87 36v-90c-17 -15 -49 -32 -95 -32c-92 0 -166 59 -253 59c-41 0 -70 -17 -94 -42v88c28 26 57 44 104 44c103 0 162 -63 251 -63z" />
    <glyph glyph-name="approxequal" unicode="&#x2248;" horiz-adv-x="602" 
d="M435 427c42 0 68 17 87 35v-89c-17 -15 -49 -33 -95 -33c-91 0 -166 60 -253 60c-41 0 -70 -18 -94 -43v89c28 25 57 43 104 43c103 0 162 -62 251 -62zM184 299c103 0 162 -63 251 -63c42 0 68 17 87 35v-89c-17 -15 -49 -33 -95 -33c-91 0 -166 60 -253 60
c-41 0 -70 -18 -94 -42v88c28 25 57 44 104 44z" />
    <glyph glyph-name="asciicircum" unicode="^" horiz-adv-x="524" 
d="M494 362h-86l-146 253l-146 -253h-86l188 319h88z" />
    <glyph glyph-name="dagger" unicode="&#x2020;" horiz-adv-x="608" 
d="M558 457v-85h-207v-558h-94v558h-207v85h207v243h94v-243h207z" />
    <glyph glyph-name="daggerdbl" unicode="&#x2021;" horiz-adv-x="608" 
d="M558 372h-207v-230h207v-85h-207v-243h-95v243h-206v85h206v230h-206v85h206v243h95v-243h207v-85z" />
    <glyph glyph-name="guilsinglleft" unicode="&#x2039;" horiz-adv-x="308" 
d="M40 228v108l208 148v-105l-143 -97l143 -98v-105z" />
    <glyph glyph-name="guilsinglright" unicode="&#x203a;" horiz-adv-x="308" 
d="M60 484l208 -148v-108l-208 -149v105l143 98l-143 97v105z" />
    <glyph glyph-name="paragraph" unicode="&#xb6;" horiz-adv-x="674" 
d="M275 700h329v-876h-94v781h-133v-781h-95v477c-144 2 -252 52 -252 200c0 145 105 195 245 199z" />
    <glyph glyph-name="slash" unicode="/" horiz-adv-x="465" 
d="M347 738h98l-327 -776h-98z" />
    <glyph glyph-name="braceleft" unicode="{" horiz-adv-x="388" 
d="M245 405c0 -73 -42 -106 -98 -115v-3c56 -9 98 -43 98 -116v-201c0 -48 2 -93 57 -93h56v-86h-84c-104 0 -137 46 -137 143v222c0 75 -28 98 -87 98v69c59 0 87 23 87 98v222c0 97 33 142 137 142h84v-85h-56c-55 0 -57 -45 -57 -93v-202z" />
    <glyph glyph-name="bracketleft" unicode="[" horiz-adv-x="357" 
d="M327 695h-154v-814h154v-90h-267v994h267v-90z" />
    <glyph glyph-name="parenleft" unicode="(" horiz-adv-x="322" 
d="M312 754c-71 -77 -160 -237 -160 -456s89 -379 160 -456h-61c-74 68 -211 206 -211 456s137 387 211 456h61z" />
    <glyph glyph-name="bar" unicode="|" horiz-adv-x="264" 
d="M80 785h104v-994h-104v994z" />
    <glyph glyph-name="brokenbar" unicode="&#xa6;" horiz-adv-x="264" 
d="M80 -209v426h104v-426h-104zM80 785h104v-425h-104v425z" />
    <glyph glyph-name="parenright" unicode=")" horiz-adv-x="322" 
d="M71 754c74 -69 211 -206 211 -456s-137 -388 -211 -456h-61c71 77 160 237 160 456s-89 379 -160 456h61z" />
    <glyph glyph-name="bracketright" unicode="]" horiz-adv-x="357" 
d="M30 785h267v-994h-267v90h153v814h-153v90z" />
    <glyph glyph-name="braceright" unicode="}" horiz-adv-x="388" 
d="M251 421c0 -75 28 -98 87 -98v-69c-59 0 -87 -23 -87 -98v-222c0 -97 -33 -143 -137 -143h-84v86h56c55 0 56 45 56 93v201c0 73 43 107 99 116v3c-56 9 -99 42 -99 115v202c0 48 -1 93 -56 93h-56v85h84c104 0 137 -45 137 -142v-222z" />
    <glyph glyph-name="backslash" unicode="\" horiz-adv-x="464" 
d="M118 738l326 -776h-97l-327 776h98z" />
    <glyph glyph-name="dollar" unicode="$" horiz-adv-x="758" 
d="M728 211c0 -128 -92 -219 -321 -225v-99h-66v100c-229 10 -321 103 -321 221h131c4 -64 70 -108 190 -117v206c-16 3 -33 5 -51 8c-168 27 -247 81 -247 195c0 118 83 208 298 214v99h66v-100c208 -13 287 -114 287 -208h-126c-5 45 -48 93 -161 103v-203c2 0 3 0 4 -1
c199 -27 317 -57 317 -193zM167 509c0 -63 66 -80 174 -95v196c-139 -4 -174 -49 -174 -101zM407 90c120 3 194 35 194 106c0 66 -71 76 -194 92v-198z" />
    <glyph glyph-name="cent" unicode="&#xa2;" horiz-adv-x="660" 
d="M373 162c85 12 128 67 142 120h115c-24 -130 -129 -201 -257 -212v-70h-67v70c-144 11 -276 96 -276 280s132 269 276 280v70h67v-70c128 -11 233 -82 257 -212h-115c-14 53 -57 108 -142 120v-376zM144 350c0 -86 44 -176 162 -189v378c-118 -13 -162 -103 -162 -189z
" />
    <glyph glyph-name="ruble" unicode="&#x20bd;" horiz-adv-x="870" 
d="M559 237h-279v-71h310v-67h-310v-99h-123v99h-107v67h107v71h-107v103h107v360h421c190 0 252 -111 252 -231c0 -134 -78 -232 -271 -232zM280 596v-256h279c107 0 145 56 145 129c0 79 -43 127 -147 127h-277z" />
    <glyph glyph-name="bitcoin" unicode="&#x20bf;" horiz-adv-x="822" 
d="M782 206c0 -119 -64 -196 -237 -205v-114h-66v113h-105v-113h-67v113h-227v700h227v113h67v-113h105v113h66v-113c151 -6 211 -70 211 -179c0 -76 -34 -125 -101 -152v-5c83 -24 127 -72 127 -158zM521 597h-318v-195h318c91 0 118 41 118 97c0 60 -31 98 -118 98z
M525 103c107 0 131 49 131 109s-37 94 -131 94h-322v-203h322z" />
    <glyph glyph-name="Euro" unicode="&#x20ac;" horiz-adv-x="926" 
d="M513 89c162 0 223 97 243 188h130c-33 -197 -191 -291 -373 -291c-169 0 -334 79 -375 269h-118v66h109v29v29h-109v66h118c41 190 206 269 375 269c182 0 340 -94 373 -291h-130c-20 91 -81 188 -243 188c-132 0 -216 -62 -246 -166h304v-66h-315c-1 -10 -1 -19 -1 -29
s0 -19 1 -29h315v-66h-304c30 -104 114 -166 246 -166z" />
    <glyph glyph-name="yen" unicode="&#xa5;" horiz-adv-x="771" 
d="M771 700l-279 -381h164v-67h-209v-57h209v-66h-209v-129h-123v129h-209v66h209v57h-209v67h164l-279 381h149l237 -336l236 336h149z" />
    <glyph glyph-name="sterling" unicode="&#xa3;" horiz-adv-x="695" 
d="M635 128l40 -92c-22 -19 -57 -50 -144 -50c-109 0 -156 56 -279 56c-82 0 -142 -42 -166 -58l-56 99c66 40 118 93 118 159c0 21 -3 39 -8 56h-110v66h82c-17 37 -33 76 -33 128c0 149 132 222 287 222c183 0 280 -99 283 -234h-106c0 92 -72 148 -174 148
c-124 0 -176 -59 -176 -144c0 -47 12 -81 23 -120h240v-66h-228c1 -10 2 -21 2 -32c0 -81 -29 -131 -96 -182l2 -3c45 23 100 44 163 44c91 0 144 -33 224 -33c52 0 83 13 112 36z" />
    <glyph glyph-name="currency" unicode="&#xa4;" horiz-adv-x="583" 
d="M535 350c0 -53 -17 -102 -45 -142l63 -62l-53 -55l-64 63c-40 -30 -90 -48 -144 -48c-55 0 -105 18 -145 48l-64 -63l-53 55l64 62c-29 40 -46 89 -46 142s17 102 46 142l-64 62l53 54l64 -62c40 30 90 48 145 48c54 0 104 -18 144 -48l64 62l53 -54l-63 -62
c28 -40 45 -89 45 -142zM292 201c82 0 148 67 148 149s-66 149 -148 149s-149 -67 -149 -149s67 -149 149 -149z" />
    <glyph glyph-name="asterisk" unicode="*" horiz-adv-x="439" 
d="M419 528l-164 -37l111 -125l-61 -45l-86 145l-85 -145l-61 45l111 125l-164 37l24 72l154 -67l-16 167h75l-16 -167l154 67z" />
    <glyph glyph-name="degree" unicode="&#xb0;" horiz-adv-x="369" 
d="M184 696c89 0 155 -68 155 -155s-66 -155 -155 -155c-88 0 -154 68 -154 155s66 155 154 155zM184 453c52 0 89 37 89 88s-37 88 -89 88c-51 0 -88 -37 -88 -88s37 -88 88 -88z" />
    <glyph glyph-name="numbersign" unicode="#" horiz-adv-x="715" 
d="M685 429h-128l-44 -177h121v-66h-138l-46 -186h-79l46 186h-186l-47 -186h-79l46 186h-121v66h138l44 177h-131v66h147l47 186h79l-46 -186h186l46 186h80l-47 -186h112v-66zM433 252l45 177h-187l-44 -177h186z" />
    <glyph glyph-name="registered" unicode="&#xae;" horiz-adv-x="811" 
d="M406 714c210 0 375 -156 375 -364s-165 -364 -375 -364c-211 0 -376 156 -376 364s165 364 376 364zM406 33c173 0 328 132 328 317s-155 317 -328 317c-174 0 -329 -132 -329 -317s155 -317 329 -317zM587 414c0 -48 -25 -84 -73 -100l84 -131h-69l-75 120h-11h-138
v-120h-60v341h218c84 0 124 -45 124 -110zM305 473v-120h145c48 0 75 20 75 61s-26 59 -75 59h-145z" />
    <glyph glyph-name="copyright" unicode="&#xa9;" horiz-adv-x="812" 
d="M406 714c211 0 376 -156 376 -364s-165 -364 -376 -364s-376 156 -376 364s165 364 376 364zM406 33c174 0 328 132 328 317s-154 317 -328 317c-173 0 -328 -132 -328 -317s155 -317 328 -317zM409 481c-84 0 -129 -51 -129 -131s45 -131 129 -131c81 0 112 49 122 95
h64c-16 -99 -95 -146 -186 -146c-97 0 -192 52 -192 182s95 182 192 182c91 0 170 -47 186 -146h-64c-10 46 -41 95 -122 95z" />
    <glyph glyph-name="percent" unicode="%" horiz-adv-x="1070" 
d="M716 700h84l-446 -700h-84zM435 514c0 -121 -70 -201 -203 -201c-132 0 -202 80 -202 201c0 120 70 200 202 200c133 0 203 -80 203 -200zM232 386c76 0 106 50 106 128c0 77 -30 127 -106 127c-75 0 -105 -50 -105 -127c0 -78 30 -128 105 -128zM837 387
c133 0 203 -80 203 -201c0 -120 -70 -200 -203 -200c-132 0 -202 80 -202 200c0 121 70 201 202 201zM837 59c76 0 106 50 106 127c0 78 -30 128 -106 128c-75 0 -105 -50 -105 -128c0 -77 30 -127 105 -127z" />
    <glyph glyph-name="perthousand" unicode="&#x2030;" horiz-adv-x="1563" 
d="M716 700h84l-445 -700h-84zM436 514c0 -121 -71 -201 -203 -201s-203 80 -203 201c0 120 71 200 203 200s203 -80 203 -200zM233 386c76 0 105 50 105 128c0 77 -29 127 -105 127s-105 -50 -105 -127c0 -78 29 -128 105 -128zM838 387c132 0 203 -80 203 -201
c0 -120 -71 -200 -203 -200s-203 80 -203 200c0 121 71 201 203 201zM838 59c76 0 105 50 105 127c0 78 -29 128 -105 128s-105 -50 -105 -128c0 -77 29 -127 105 -127zM1331 387c132 0 202 -80 202 -201c0 -120 -70 -200 -202 -200s-203 80 -203 200c0 121 71 201 203 201z
M1331 59c75 0 105 50 105 127c0 78 -30 128 -105 128c-76 0 -106 -50 -106 -128c0 -77 30 -127 106 -127z" />
    <glyph glyph-name="afii61352" unicode="&#x2116;" horiz-adv-x="1376" 
d="M649 135v565h123v-700h-161l-407 565v-565h-124v700h162zM903 173v86h403v-86h-403zM1105 351c-123 0 -202 64 -202 182s79 181 202 181s201 -63 201 -181s-78 -182 -201 -182zM1105 641c-70 0 -107 -37 -107 -108c0 -72 37 -109 107 -109s106 37 106 109
c0 71 -36 108 -106 108z" />
    <glyph glyph-name="section" unicode="&#xa7;" horiz-adv-x="744" 
d="M704 235c0 -59 -32 -105 -77 -137c21 -23 33 -53 33 -92c0 -137 -124 -201 -275 -201c-189 0 -294 89 -294 200h119c0 -48 36 -106 177 -106c122 0 161 54 161 100c0 74 -96 82 -222 104c-218 37 -286 77 -286 182c0 59 32 104 77 136c-21 24 -33 54 -33 93
c0 137 124 200 275 200c189 0 294 -88 294 -199h-119c0 48 -36 106 -177 106c-121 0 -161 -55 -161 -100c0 -74 96 -82 222 -104c218 -38 286 -78 286 -182zM133 304c0 -74 89 -84 308 -126c47 -9 90 -20 126 -37c24 17 44 41 44 75c0 74 -89 83 -308 126
c-47 9 -90 20 -125 36c-25 -17 -45 -40 -45 -74z" />
    <glyph glyph-name="ampersand" unicode="&#x26;" horiz-adv-x="857" 
d="M847 0h-144c-30 23 -58 44 -83 64c-64 -48 -151 -78 -265 -78c-201 0 -325 84 -325 212c0 113 82 165 186 192c-54 53 -79 95 -79 149c0 114 97 175 240 175c149 0 250 -55 250 -165c0 -117 -117 -161 -239 -183c17 -14 36 -27 54 -42c56 -45 116 -92 174 -139
c28 43 40 94 40 145h94c0 -70 -21 -140 -65 -199c60 -48 116 -93 162 -131zM377 632c-97 0 -133 -47 -133 -97c0 -44 31 -80 77 -118c91 16 199 47 199 125c0 47 -37 90 -143 90zM367 68c78 0 138 19 184 49c-86 67 -148 115 -206 162c-26 22 -50 41 -72 59
c-91 -21 -134 -63 -134 -130c0 -72 68 -140 228 -140z" />
    <glyph glyph-name="quotedbl" unicode="&#x22;" horiz-adv-x="437" 
d="M68 381l-28 319h123l-27 -319h-68zM274 700h123l-27 -319h-68z" />
    <glyph glyph-name="quotedblleft" unicode="&#x201c;" horiz-adv-x="474" 
d="M358 700h76l-66 -243h-114zM40 457l104 243h76l-66 -243h-114z" />
    <glyph glyph-name="quotedblright" unicode="&#x201d;" horiz-adv-x="474" 
d="M40 457l67 243h113l-104 -243h-76zM320 700h114l-104 -243h-76z" />
    <glyph glyph-name="at" unicode="@" horiz-adv-x="1084" 
d="M554 733c310 0 500 -163 500 -417c0 -191 -81 -296 -205 -296c-76 0 -124 41 -140 108c-31 -69 -92 -116 -192 -116c-133 0 -237 85 -237 239c0 153 104 238 236 238c78 0 133 -30 168 -76v64h95v-267c0 -57 2 -123 80 -123c73 0 129 68 129 229c0 198 -142 357 -434 357
c-311 0 -454 -178 -454 -417c0 -233 151 -419 472 -419c136 0 212 36 253 60v-69c-32 -16 -128 -51 -253 -51c-333 0 -542 196 -542 479c0 304 214 477 524 477zM536 89c108 0 162 68 162 162s-56 162 -162 162c-110 0 -159 -67 -159 -162s50 -162 159 -162z" />
    <glyph glyph-name="ae" unicode="&#xe6;" horiz-adv-x="1093" 
d="M770 548c170 0 306 -99 292 -321h-480c14 -91 78 -151 191 -151c104 0 148 50 166 88h108c-28 -109 -131 -178 -274 -178c-101 0 -197 38 -250 120c-51 -83 -152 -120 -261 -120c-131 0 -232 53 -232 154c0 110 61 197 428 173v34c0 73 -37 111 -148 111
c-95 0 -134 -32 -144 -77h-114c16 112 120 167 258 167c104 0 192 -25 234 -93c55 62 138 93 226 93zM458 159v80c-222 11 -302 -8 -302 -91c0 -54 43 -81 114 -81c95 0 159 36 188 92zM585 317h367c-16 84 -74 141 -182 141c-99 0 -166 -57 -185 -141z" />
    <glyph glyph-name="oe" unicode="&#x153;" horiz-adv-x="1158" 
d="M1126 227h-479c14 -91 78 -151 191 -151c103 0 148 50 166 88h108c-28 -109 -131 -178 -274 -178c-97 0 -193 34 -250 109c-57 -75 -154 -109 -253 -109c-155 0 -305 84 -305 281s150 281 305 281c100 0 196 -35 254 -111c56 75 150 111 246 111c170 0 306 -99 291 -321z
M335 76c143 0 192 97 192 191c0 93 -49 191 -192 191s-191 -98 -191 -191c0 -94 48 -191 191 -191zM650 317h367c-16 84 -74 141 -182 141c-99 0 -166 -57 -185 -141z" />
    <glyph glyph-name="dcroat" unicode="&#x111;" horiz-adv-x="710" 
d="M720 626v-59h-95v-567h-123v70c-42 -51 -106 -84 -195 -84c-156 0 -277 100 -277 281s121 266 277 266c89 0 153 -30 195 -77v111h-147v59h147v74h123v-74h95zM331 76c128 0 190 80 190 191c0 110 -61 191 -190 191c-130 0 -187 -79 -187 -191s59 -191 187 -191z" />
    <glyph glyph-name="eth" unicode="&#xf0;" horiz-adv-x="672" 
d="M420 660c124 -67 222 -185 222 -375c0 -220 -124 -299 -308 -299c-157 0 -304 69 -304 255c0 163 120 232 264 232c128 0 205 -53 235 -94c-24 116 -102 185 -191 225l-143 -98l-34 49l107 74c-58 16 -116 23 -163 24l14 80c74 0 158 -13 238 -44l102 71l34 -50zM327 89
c141 0 187 68 187 147s-56 143 -187 143s-179 -63 -179 -143s46 -147 179 -147z" />
    <glyph glyph-name="oslash" unicode="&#xf8;" horiz-adv-x="671" 
d="M580 449c38 -44 61 -104 61 -182c0 -197 -150 -281 -305 -281c-72 0 -142 17 -197 56l-63 -59l-43 47l59 54c-38 44 -62 105 -62 183c0 197 150 281 306 281c71 0 142 -18 197 -56l63 58l43 -46zM144 267c0 -38 8 -77 27 -109l287 265c-29 21 -69 35 -122 35
c-143 0 -192 -98 -192 -191zM336 76c143 0 191 97 191 191c0 38 -8 76 -27 109l-286 -265c29 -22 69 -35 122 -35z" />
    <glyph glyph-name="thorn" unicode="&#xfe;" horiz-adv-x="696" 
d="M389 548c155 0 277 -100 277 -281s-122 -281 -277 -281c-90 0 -154 33 -196 84v-237h-123v867h123v-237c42 51 106 85 196 85zM365 76c129 0 187 79 187 191s-59 191 -187 191s-191 -81 -191 -191c0 -111 62 -191 191 -191z" />
    <glyph glyph-name="hbar" unicode="&#x127;" horiz-adv-x="707" 
d="M422 533c139 0 215 -64 215 -188v-345h-123v308c0 90 -49 140 -146 140s-150 -56 -150 -140v-308h-123v567h-95v59h95v74h123v-74h148v-59h-148v-117c25 31 93 83 204 83z" />
    <glyph glyph-name="tbar" unicode="&#x167;" horiz-adv-x="468" 
d="M418 439h-160v-95h138v-58h-138v-87c0 -90 36 -115 160 -102v-96c-17 -5 -44 -9 -69 -9c-162 0 -215 66 -215 207v87h-104v58h104v95h-104v94h104v139h124v-139h160v-94z" />
    <glyph glyph-name="eng" unicode="&#x14b;" 
d="M397 548c139 0 215 -79 215 -203v-336c0 -90 -15 -195 -165 -195c-26 0 -40 2 -63 5v101c95 -5 105 25 105 89v299c0 90 -49 140 -146 140s-150 -56 -150 -140v-308h-123v533h123v-82c24 35 93 97 204 97z" />
    <glyph glyph-name="lslash" unicode="&#x142;" horiz-adv-x="373" 
d="M343 517v-87l-95 -46v-384h-123v324l-95 -46v87l95 46v327h123v-267z" />
    <glyph glyph-name="AE" unicode="&#xc6;" horiz-adv-x="1233" 
d="M1183 104v-104h-587v156h-368l-95 -156h-133l447 700h726v-104h-453v-184h425v-105h-425v-203h463zM292 261h304v335h-99z" />
    <glyph glyph-name="OE" unicode="&#x152;" horiz-adv-x="1227" 
d="M1177 104v-104h-705c-226 0 -432 78 -432 350s206 350 432 350h695v-104h-453v-184h425v-105h-425v-203h463zM487 104h103v492h-103c-191 0 -320 -66 -320 -246s129 -246 320 -246z" />
    <glyph glyph-name="Dcroat" unicode="&#x110;" horiz-adv-x="856" 
d="M403 700c226 0 413 -78 413 -350s-187 -350 -413 -350h-288v307h-95v86h95v307h288zM388 104c192 0 302 66 302 246s-110 246 -302 246h-150v-203h223v-86h-223v-203h150z" />
    <glyph glyph-name="Oslash" unicode="&#xd8;" horiz-adv-x="886" 
d="M760 591c54 -59 86 -140 86 -241c0 -242 -185 -364 -403 -364c-97 0 -187 24 -258 72l-76 -71l-53 57l70 65c-54 59 -86 140 -86 241c0 242 185 364 403 364c97 0 187 -24 257 -72l77 71l53 -57zM166 350c0 -63 16 -117 47 -160l404 374c-45 31 -103 47 -174 47
c-177 0 -277 -105 -277 -261zM443 89c177 0 277 105 277 261c0 63 -17 117 -47 160l-404 -374c45 -31 103 -47 174 -47z" />
    <glyph glyph-name="Thorn" unicode="&#xde;" horiz-adv-x="793" 
d="M501 600c190 0 252 -110 252 -230c0 -134 -78 -232 -271 -232h-279v-138h-123v700h123v-100h298zM482 240c107 0 145 56 145 130c0 78 -43 126 -147 126h-277v-256h279z" />
    <glyph glyph-name="Hbar" unicode="&#x126;" horiz-adv-x="940" 
d="M920 602v-86h-94v-516h-124v307h-464v-307h-123v516h-95v86h95v98h123v-98h464v98h124v-98h94zM702 412v104h-464v-104h464z" />
    <glyph glyph-name="Tbar" unicode="&#x166;" horiz-adv-x="733" 
d="M693 596h-265v-203h159v-86h-159v-307h-123v307h-160v86h160v203h-265v104h653v-104z" />
    <glyph glyph-name="Eng" unicode="&#x14a;" horiz-adv-x="852" 
d="M649 700h123v-700c0 -127 -40 -214 -177 -214c-27 0 -42 1 -70 5v98c92 -7 124 7 124 111l-446 560v-560h-123v700h147l422 -529v529z" />
    <glyph glyph-name="Lslash" unicode="&#x141;" horiz-adv-x="732" 
d="M692 104v-104h-577v238l-95 -46v87l95 46v375h123v-315l205 100v-88l-205 -99v-194h454z" />
    <glyph glyph-name="Eth" unicode="&#xd0;" horiz-adv-x="856" 
d="M403 700c226 0 413 -78 413 -350s-187 -350 -413 -350h-288v307h-95v86h95v307h288zM388 104c192 0 302 66 302 246s-110 246 -302 246h-150v-203h223v-86h-223v-203h150z" />
    <glyph glyph-name="quotesingle" unicode="'" horiz-adv-x="203" 
d="M40 700h123l-27 -319h-68z" />
    <glyph glyph-name="quoteleft" unicode="&#x2018;" horiz-adv-x="260" 
d="M40 457l104 243h76l-66 -243h-114z" />
    <glyph glyph-name="quoteright" unicode="&#x2019;" horiz-adv-x="260" 
d="M106 700h114l-104 -243h-76z" />
    <glyph glyph-name="quotesinglbase" unicode="&#x201a;" horiz-adv-x="260" 
d="M106 148h114l-104 -243h-76z" />
    <glyph glyph-name="quotedblbase" unicode="&#x201e;" horiz-adv-x="474" 
d="M40 -95l67 243h113l-104 -243h-76zM320 148h114l-104 -243h-76z" />
    <glyph glyph-name="fraction" unicode="&#x2044;" horiz-adv-x="465" 
d="M347 738h98l-327 -776h-98z" />
    <glyph glyph-name="longs" unicode="&#x17f;" horiz-adv-x="435" 
d="M405 635c-125 12 -159 -7 -159 -102v-533h-123v439h-93v94h93c0 109 38 205 191 205c36 0 62 -2 91 -6v-97z" />
    <glyph glyph-name="ellipsis" unicode="&#x2026;" horiz-adv-x="811" 
d="M109 122c37 0 68 -30 68 -68s-31 -68 -68 -68c-38 0 -69 30 -69 68s31 68 69 68zM406 122c37 0 68 -30 68 -68s-31 -68 -68 -68c-38 0 -69 30 -69 68s31 68 69 68zM703 122c37 0 68 -30 68 -68s-31 -68 -68 -68c-38 0 -69 30 -69 68s31 68 69 68z" />
    <glyph glyph-name="space" unicode=" " horiz-adv-x="290" 
 />
    <glyph glyph-name="Aacute" unicode="&#xc1;" horiz-adv-x="808" 
d="M675 0l-71 156h-401l-70 -156h-133l324 700h160l324 -700h-133zM250 260h308l-154 343zM436 895h130l-124 -129h-80z" />
    <glyph glyph-name="Abreve" unicode="&#x102;" horiz-adv-x="808" 
d="M675 0l-71 156h-401l-70 -156h-133l324 700h160l324 -700h-133zM250 260h308l-154 343zM507 892h66c0 -79 -57 -133 -169 -133s-168 54 -168 133h66c2 -41 33 -71 102 -71c70 0 101 30 103 71z" />
    <glyph glyph-name="Acircumflex" unicode="&#xc2;" horiz-adv-x="808" 
d="M675 0l-71 156h-401l-70 -156h-133l324 700h160l324 -700h-133zM250 260h308l-154 343zM596 766h-105l-87 92l-88 -92h-105l129 129h127z" />
    <glyph glyph-name="Agrave" unicode="&#xc0;" horiz-adv-x="808" 
d="M675 0l-71 156h-401l-70 -156h-133l324 700h160l324 -700h-133zM250 260h308l-154 343zM372 895l74 -129h-80l-124 129h130z" />
    <glyph glyph-name="Adieresis" unicode="&#xc4;" horiz-adv-x="808" 
d="M675 0l-71 156h-401l-70 -156h-133l324 700h160l324 -700h-133zM250 260h308l-154 343zM299 880c33 0 59 -26 59 -59s-26 -60 -59 -60s-60 27 -60 60s27 59 60 59zM509 880c33 0 59 -26 59 -59s-26 -60 -59 -60s-60 27 -60 60s27 59 60 59z" />
    <glyph glyph-name="Amacron" unicode="&#x100;" horiz-adv-x="808" 
d="M675 0l-71 156h-401l-70 -156h-133l324 700h160l324 -700h-133zM250 260h308l-154 343zM230 854h349v-66h-349v66z" />
    <glyph glyph-name="Aring" unicode="&#xc5;" horiz-adv-x="808" 
d="M675 0l-71 156h-401l-70 -156h-133l324 700h160l324 -700h-133zM250 260h308l-154 343zM405 995c68 0 121 -53 121 -122c0 -68 -53 -121 -121 -121c-69 0 -122 53 -122 121c0 69 53 122 122 122zM405 809c39 0 64 28 64 64c0 37 -25 65 -64 65s-65 -28 -65 -65
c0 -36 26 -64 65 -64z" />
    <glyph glyph-name="Atilde" unicode="&#xc3;" horiz-adv-x="808" 
d="M675 0l-71 156h-401l-70 -156h-133l324 700h160l324 -700h-133zM250 260h308l-154 343zM529 887h67c0 -59 -25 -115 -101 -115c-78 0 -112 56 -173 56c-33 0 -43 -30 -43 -52h-66c0 66 35 115 105 115c78 0 116 -58 170 -58c36 0 41 29 41 54z" />
    <glyph glyph-name="AEacute" unicode="&#x1fc;" horiz-adv-x="1233" 
d="M1183 104v-104h-587v156h-368l-95 -156h-133l447 700h726v-104h-453v-184h425v-105h-425v-203h463zM292 261h304v335h-99zM703 895h130l-124 -129h-80z" />
    <glyph glyph-name="Cacute" unicode="&#x106;" horiz-adv-x="837" 
d="M424 88c163 0 224 97 244 189h129c-32 -198 -190 -292 -373 -292c-194 0 -384 106 -384 365s190 364 384 364c183 0 341 -94 373 -292h-129c-20 92 -81 189 -244 189c-168 0 -257 -100 -257 -261s89 -262 257 -262zM450 895h130l-124 -129h-80z" />
    <glyph glyph-name="Ccaron" unicode="&#x10c;" horiz-adv-x="837" 
d="M424 88c163 0 224 97 244 189h129c-32 -198 -190 -292 -373 -292c-194 0 -384 106 -384 365s190 364 384 364c183 0 341 -94 373 -292h-129c-20 92 -81 189 -244 189c-168 0 -257 -100 -257 -261s89 -262 257 -262zM506 895h105l-129 -129h-127l-130 129h105l88 -92z" />
    <glyph glyph-name="Ccircumflex" unicode="&#x108;" horiz-adv-x="837" 
d="M424 88c163 0 224 97 244 189h129c-32 -198 -190 -292 -373 -292c-194 0 -384 106 -384 365s190 364 384 364c183 0 341 -94 373 -292h-129c-20 92 -81 189 -244 189c-168 0 -257 -100 -257 -261s89 -262 257 -262zM611 766h-105l-87 92l-88 -92h-105l129 129h127z" />
    <glyph glyph-name="Cdotaccent" unicode="&#x10a;" horiz-adv-x="837" 
d="M424 88c163 0 224 97 244 189h129c-32 -198 -190 -292 -373 -292c-194 0 -384 106 -384 365s190 364 384 364c183 0 341 -94 373 -292h-129c-20 92 -81 189 -244 189c-168 0 -257 -100 -257 -261s89 -262 257 -262zM418 890c33 0 60 -26 60 -59s-27 -60 -60 -60
c-32 0 -59 27 -59 60s27 59 59 59z" />
    <glyph glyph-name="Dcaron" unicode="&#x10e;" horiz-adv-x="821" 
d="M368 700c226 0 413 -78 413 -350s-187 -350 -413 -350h-288v700h288zM353 104c191 0 302 65 302 246c0 180 -111 246 -302 246h-150v-492h150zM468 895h105l-129 -129h-127l-130 129h105l88 -92z" />
    <glyph glyph-name="Eacute" unicode="&#xc9;" horiz-adv-x="716" 
d="M666 104v-104h-586v700h577v-104h-454v-184h425v-105h-425v-203h463zM395 895h130l-124 -129h-80z" />
    <glyph glyph-name="Ebreve" unicode="&#x114;" horiz-adv-x="716" 
d="M666 104v-104h-586v700h577v-104h-454v-184h425v-105h-425v-203h463zM475 892h66c0 -79 -57 -133 -169 -133s-168 54 -168 133h66c2 -41 33 -71 102 -71c70 0 101 30 103 71z" />
    <glyph glyph-name="Ecaron" unicode="&#x11a;" horiz-adv-x="716" 
d="M666 104v-104h-586v700h577v-104h-454v-184h425v-105h-425v-203h463zM461 895h105l-129 -129h-127l-130 129h105l88 -92z" />
    <glyph glyph-name="Ecircumflex" unicode="&#xca;" horiz-adv-x="716" 
d="M666 104v-104h-586v700h577v-104h-454v-184h425v-105h-425v-203h463zM566 766h-105l-87 92l-88 -92h-105l129 129h127z" />
    <glyph glyph-name="Edieresis" unicode="&#xcb;" horiz-adv-x="716" 
d="M666 104v-104h-586v700h577v-104h-454v-184h425v-105h-425v-203h463zM269 880c33 0 59 -26 59 -59s-26 -60 -59 -60s-60 27 -60 60s27 59 60 59zM479 880c33 0 59 -26 59 -59s-26 -60 -59 -60s-60 27 -60 60s27 59 60 59z" />
    <glyph glyph-name="Edotaccent" unicode="&#x116;" horiz-adv-x="716" 
d="M666 104v-104h-586v700h577v-104h-454v-184h425v-105h-425v-203h463zM373 890c33 0 60 -26 60 -59s-27 -60 -60 -60c-32 0 -59 27 -59 60s27 59 59 59z" />
    <glyph glyph-name="Egrave" unicode="&#xc8;" horiz-adv-x="716" 
d="M666 104v-104h-586v700h577v-104h-454v-184h425v-105h-425v-203h463zM361 895l74 -129h-80l-124 129h130z" />
    <glyph glyph-name="Emacron" unicode="&#x112;" horiz-adv-x="716" 
d="M666 104v-104h-586v700h577v-104h-454v-184h425v-105h-425v-203h463zM199 854h349v-66h-349v66z" />
    <glyph glyph-name="Gbreve" unicode="&#x11e;" horiz-adv-x="861" 
d="M819 388c18 -256 -123 -403 -370 -403c-224 0 -409 123 -409 365s192 364 394 364c183 0 321 -84 367 -238h-132c-29 68 -91 135 -235 135c-167 0 -267 -108 -267 -261c0 -154 108 -262 283 -262s237 105 244 196h-242v104h367zM533 892h66c0 -79 -57 -133 -169 -133
s-168 54 -168 133h66c2 -41 33 -71 102 -71c70 0 101 30 103 71z" />
    <glyph glyph-name="Gcircumflex" unicode="&#x11c;" horiz-adv-x="861" 
d="M819 388c18 -256 -123 -403 -370 -403c-224 0 -409 123 -409 365s192 364 394 364c183 0 321 -84 367 -238h-132c-29 68 -91 135 -235 135c-167 0 -267 -108 -267 -261c0 -154 108 -262 283 -262s237 105 244 196h-242v104h367zM623 766h-105l-87 92l-88 -92h-105
l129 129h127z" />
    <glyph glyph-name="Gcommaaccent" unicode="&#x122;" horiz-adv-x="861" 
d="M819 388c18 -256 -123 -403 -370 -403c-224 0 -409 123 -409 365s192 364 394 364c183 0 321 -84 367 -238h-132c-29 68 -91 135 -235 135c-167 0 -267 -108 -267 -261c0 -154 108 -262 283 -262s237 105 244 196h-242v104h367zM384 -66h132l-96 -167h-76z" />
    <glyph glyph-name="Gdotaccent" unicode="&#x120;" horiz-adv-x="861" 
d="M819 388c18 -256 -123 -403 -370 -403c-224 0 -409 123 -409 365s192 364 394 364c183 0 321 -84 367 -238h-132c-29 68 -91 135 -235 135c-167 0 -267 -108 -267 -261c0 -154 108 -262 283 -262s237 105 244 196h-242v104h367zM430 890c33 0 60 -26 60 -59
s-27 -60 -60 -60c-32 0 -59 27 -59 60s27 59 59 59z" />
    <glyph glyph-name="Hcircumflex" unicode="&#x124;" horiz-adv-x="871" 
d="M668 700h123v-700h-123v307h-465v-307h-123v700h123v-288h465v288zM628 766h-105l-87 92l-88 -92h-105l129 129h127z" />
    <glyph glyph-name="Iacute" unicode="&#xcd;" horiz-adv-x="283" 
d="M80 700h123v-700h-123v700zM175 895h130l-124 -129h-80z" />
    <glyph glyph-name="Ibreve" unicode="&#x12c;" horiz-adv-x="283" 
d="M80 700h123v-700h-123v700zM244 892h66c0 -79 -57 -133 -169 -133s-168 54 -168 133h66c2 -41 33 -71 102 -71c70 0 101 30 103 71z" />
    <glyph glyph-name="Icircumflex" unicode="&#xce;" horiz-adv-x="283" 
d="M80 700h123v-700h-123v700zM334 766h-105l-87 92l-88 -92h-105l129 129h127z" />
    <glyph glyph-name="Idieresis" unicode="&#xcf;" horiz-adv-x="283" 
d="M80 700h123v-700h-123v700zM37 880c33 0 59 -26 59 -59s-26 -60 -59 -60s-60 27 -60 60s27 59 60 59zM247 880c33 0 59 -26 59 -59s-26 -60 -59 -60s-60 27 -60 60s27 59 60 59z" />
    <glyph glyph-name="Idotaccent" unicode="&#x130;" horiz-adv-x="283" 
d="M80 700h123v-700h-123v700zM141 890c33 0 60 -26 60 -59s-27 -60 -60 -60c-32 0 -59 27 -59 60s27 59 59 59z" />
    <glyph glyph-name="Igrave" unicode="&#xcc;" horiz-adv-x="283" 
d="M80 700h123v-700h-123v700zM108 895l74 -129h-80l-124 129h130z" />
    <glyph glyph-name="Imacron" unicode="&#x12a;" horiz-adv-x="283" 
d="M80 700h123v-700h-123v700zM-33 854h349v-66h-349v66z" />
    <glyph glyph-name="Itilde" unicode="&#x128;" horiz-adv-x="283" 
d="M80 700h123v-700h-123v700zM266 887h67c0 -59 -25 -115 -101 -115c-78 0 -112 56 -173 56c-33 0 -43 -30 -43 -52h-66c0 66 35 115 105 115c78 0 116 -58 170 -58c36 0 41 29 41 54z" />
    <glyph glyph-name="IJ" unicode="&#x132;" horiz-adv-x="1021" 
d="M80 700h123v-700h-123v700zM818 700h123v-399c0 -235 -101 -316 -304 -316c-222 0 -314 99 -314 287v40h124v-28c0 -141 58 -196 190 -196c140 0 181 71 181 213v399z" />
    <glyph glyph-name="Jcircumflex" unicode="&#x134;" horiz-adv-x="748" 
d="M545 700h123v-399c0 -235 -101 -316 -304 -316c-222 0 -314 99 -314 287v40h124v-28c0 -141 58 -196 190 -196c140 0 181 71 181 213v399zM799 766h-105l-87 92l-88 -92h-105l129 129h127z" />
    <glyph glyph-name="Kcommaaccent" unicode="&#x136;" horiz-adv-x="792" 
d="M628 0l-249 342l-176 -163v-179h-123v700h123v-374l393 374h171l-298 -275l313 -425h-154zM345 -66h132l-96 -167h-76z" />
    <glyph glyph-name="Lacute" unicode="&#x139;" horiz-adv-x="697" 
d="M657 104v-104h-577v700h123v-596h454zM180 895h130l-124 -129h-80z" />
    <glyph glyph-name="Lcaron" unicode="&#x13d;" horiz-adv-x="697" 
d="M657 104v-104h-577v700h123v-596h454zM434 700h114l-104 -243h-76z" />
    <glyph glyph-name="Lcommaaccent" unicode="&#x13b;" horiz-adv-x="697" 
d="M657 104v-104h-577v700h123v-596h454zM322 -66h132l-96 -167h-76z" />
    <glyph glyph-name="Ldot" unicode="&#x13f;" horiz-adv-x="697" 
d="M458 437c37 0 68 -30 68 -68s-31 -68 -68 -68c-38 0 -69 30 -69 68s31 68 69 68zM657 104v-104h-577v700h123v-596h454z" />
    <glyph glyph-name="Nacute" unicode="&#x143;" horiz-adv-x="852" 
d="M649 700h123v-700h-147l-421 553v-553h-124v700h147l422 -553v553zM458 895h130l-124 -129h-80z" />
    <glyph glyph-name="Ncaron" unicode="&#x147;" horiz-adv-x="852" 
d="M649 700h123v-700h-147l-421 553v-553h-124v700h147l422 -553v553zM514 895h105l-129 -129h-127l-130 129h105l88 -92z" />
    <glyph glyph-name="Ncommaaccent" unicode="&#x145;" horiz-adv-x="852" 
d="M649 700h123v-700h-147l-421 553v-553h-124v700h147l422 -553v553zM380 -66h132l-96 -167h-76z" />
    <glyph glyph-name="Ntilde" unicode="&#xd1;" horiz-adv-x="852" 
d="M649 700h123v-700h-147l-421 553v-553h-124v700h147l422 -553v553zM551 887h67c0 -59 -25 -115 -101 -115c-78 0 -112 56 -173 56c-33 0 -43 -30 -43 -52h-66c0 66 35 115 105 115c78 0 116 -58 170 -58c36 0 41 29 41 54z" />
    <glyph glyph-name="Oacute" unicode="&#xd3;" horiz-adv-x="887" 
d="M444 714c218 0 403 -122 403 -364s-185 -365 -403 -365c-219 0 -404 123 -404 365s185 364 404 364zM444 88c177 0 276 106 276 262c0 155 -99 261 -276 261c-178 0 -277 -106 -277 -261c0 -156 99 -262 277 -262zM475 895h130l-124 -129h-80z" />
    <glyph glyph-name="Obreve" unicode="&#x14e;" horiz-adv-x="887" 
d="M444 714c218 0 403 -122 403 -364s-185 -365 -403 -365c-219 0 -404 123 -404 365s185 364 404 364zM444 88c177 0 276 106 276 262c0 155 -99 261 -276 261c-178 0 -277 -106 -277 -261c0 -156 99 -262 277 -262zM546 892h66c0 -79 -57 -133 -169 -133s-168 54 -168 133
h66c2 -41 33 -71 102 -71c70 0 101 30 103 71z" />
    <glyph glyph-name="Ocircumflex" unicode="&#xd4;" horiz-adv-x="887" 
d="M444 714c218 0 403 -122 403 -364s-185 -365 -403 -365c-219 0 -404 123 -404 365s185 364 404 364zM444 88c177 0 276 106 276 262c0 155 -99 261 -276 261c-178 0 -277 -106 -277 -261c0 -156 99 -262 277 -262zM636 766h-105l-87 92l-88 -92h-105l129 129h127z" />
    <glyph glyph-name="Odieresis" unicode="&#xd6;" horiz-adv-x="887" 
d="M444 714c218 0 403 -122 403 -364s-185 -365 -403 -365c-219 0 -404 123 -404 365s185 364 404 364zM444 88c177 0 276 106 276 262c0 155 -99 261 -276 261c-178 0 -277 -106 -277 -261c0 -156 99 -262 277 -262zM339 880c33 0 59 -26 59 -59s-26 -60 -59 -60
s-60 27 -60 60s27 59 60 59zM549 880c33 0 59 -26 59 -59s-26 -60 -59 -60s-60 27 -60 60s27 59 60 59z" />
    <glyph glyph-name="Ograve" unicode="&#xd2;" horiz-adv-x="887" 
d="M444 714c218 0 403 -122 403 -364s-185 -365 -403 -365c-219 0 -404 123 -404 365s185 364 404 364zM444 88c177 0 276 106 276 262c0 155 -99 261 -276 261c-178 0 -277 -106 -277 -261c0 -156 99 -262 277 -262zM411 895l74 -129h-80l-124 129h130z" />
    <glyph glyph-name="Ohungarumlaut" unicode="&#x150;" horiz-adv-x="887" 
d="M444 714c218 0 403 -122 403 -364s-185 -365 -403 -365c-219 0 -404 123 -404 365s185 364 404 364zM444 88c177 0 276 106 276 262c0 155 -99 261 -276 261c-178 0 -277 -106 -277 -261c0 -156 99 -262 277 -262zM281 766l74 129h129l-124 -129h-79zM596 895h129
l-124 -129h-80z" />
    <glyph glyph-name="Omacron" unicode="&#x14c;" horiz-adv-x="887" 
d="M444 714c218 0 403 -122 403 -364s-185 -365 -403 -365c-219 0 -404 123 -404 365s185 364 404 364zM444 88c177 0 276 106 276 262c0 155 -99 261 -276 261c-178 0 -277 -106 -277 -261c0 -156 99 -262 277 -262zM269 854h349v-66h-349v66z" />
    <glyph glyph-name="Oslashacute" unicode="&#x1fe;" horiz-adv-x="886" 
d="M760 591c54 -59 86 -140 86 -241c0 -242 -185 -364 -403 -364c-97 0 -187 24 -258 72l-76 -71l-53 57l70 65c-54 59 -86 140 -86 241c0 242 185 364 403 364c97 0 187 -24 257 -72l77 71l53 -57zM166 350c0 -63 16 -117 47 -160l404 374c-45 31 -103 47 -174 47
c-177 0 -277 -105 -277 -261zM443 89c177 0 277 105 277 261c0 63 -17 117 -47 160l-404 -374c45 -31 103 -47 174 -47zM475 895h130l-124 -129h-80z" />
    <glyph glyph-name="Otilde" unicode="&#xd5;" horiz-adv-x="887" 
d="M444 714c218 0 403 -122 403 -364s-185 -365 -403 -365c-219 0 -404 123 -404 365s185 364 404 364zM444 88c177 0 276 106 276 262c0 155 -99 261 -276 261c-178 0 -277 -106 -277 -261c0 -156 99 -262 277 -262zM568 887h67c0 -59 -25 -115 -101 -115
c-78 0 -112 56 -173 56c-33 0 -43 -30 -43 -52h-66c0 66 35 115 105 115c78 0 116 -58 170 -58c36 0 41 29 41 54z" />
    <glyph glyph-name="Racute" unicode="&#x154;" horiz-adv-x="816" 
d="M786 0h-142l-154 247c-7 0 -15 -1 -22 -1h-265v-246h-123v700h428c174 0 254 -91 254 -226c0 -98 -50 -171 -149 -206zM203 596v-247h280c97 0 153 42 153 125c0 85 -53 122 -153 122h-280zM425 895h130l-124 -129h-80z" />
    <glyph glyph-name="Rcaron" unicode="&#x158;" horiz-adv-x="816" 
d="M786 0h-142l-154 247c-7 0 -15 -1 -22 -1h-265v-246h-123v700h428c174 0 254 -91 254 -226c0 -98 -50 -171 -149 -206zM203 596v-247h280c97 0 153 42 153 125c0 85 -53 122 -153 122h-280zM481 895h105l-129 -129h-127l-130 129h105l88 -92z" />
    <glyph glyph-name="Rcommaaccent" unicode="&#x156;" horiz-adv-x="816" 
d="M786 0h-142l-154 247c-7 0 -15 -1 -22 -1h-265v-246h-123v700h428c174 0 254 -91 254 -226c0 -98 -50 -171 -149 -206zM203 596v-247h280c97 0 153 42 153 125c0 85 -53 122 -153 122h-280zM357 -66h132l-96 -167h-76z" />
    <glyph glyph-name="Sacute" unicode="&#x15a;" horiz-adv-x="759" 
d="M412 404c198 -27 317 -57 317 -193c0 -132 -99 -226 -344 -226c-261 0 -365 97 -365 223h132c4 -73 86 -119 237 -119c130 0 212 32 212 107c0 84 -116 77 -311 109c-168 27 -246 81 -246 195c0 122 89 214 320 214c240 0 331 -109 331 -209h-126c-6 51 -59 105 -208 105
c-156 0 -193 -47 -193 -101c0 -76 94 -84 244 -105zM406 895h130l-124 -129h-80z" />
    <glyph glyph-name="Scaron" unicode="&#x160;" horiz-adv-x="759" 
d="M412 404c198 -27 317 -57 317 -193c0 -132 -99 -226 -344 -226c-261 0 -365 97 -365 223h132c4 -73 86 -119 237 -119c130 0 212 32 212 107c0 84 -116 77 -311 109c-168 27 -246 81 -246 195c0 122 89 214 320 214c240 0 331 -109 331 -209h-126c-6 51 -59 105 -208 105
c-156 0 -193 -47 -193 -101c0 -76 94 -84 244 -105zM462 895h105l-129 -129h-127l-130 129h105l88 -92z" />
    <glyph glyph-name="Scircumflex" unicode="&#x15c;" horiz-adv-x="759" 
d="M412 404c198 -27 317 -57 317 -193c0 -132 -99 -226 -344 -226c-261 0 -365 97 -365 223h132c4 -73 86 -119 237 -119c130 0 212 32 212 107c0 84 -116 77 -311 109c-168 27 -246 81 -246 195c0 122 89 214 320 214c240 0 331 -109 331 -209h-126c-6 51 -59 105 -208 105
c-156 0 -193 -47 -193 -101c0 -76 94 -84 244 -105zM567 766h-105l-87 92l-88 -92h-105l129 129h127z" />
    <glyph glyph-name="Scommaaccent" unicode="&#x218;" horiz-adv-x="759" 
d="M412 404c198 -27 317 -57 317 -193c0 -132 -99 -226 -344 -226c-261 0 -365 97 -365 223h132c4 -73 86 -119 237 -119c130 0 212 32 212 107c0 84 -116 77 -311 109c-168 27 -246 81 -246 195c0 122 89 214 320 214c240 0 331 -109 331 -209h-126c-6 51 -59 105 -208 105
c-156 0 -193 -47 -193 -101c0 -76 94 -84 244 -105zM314 -66h132l-96 -167h-76z" />
    <glyph glyph-name="Tcaron" unicode="&#x164;" horiz-adv-x="733" 
d="M693 700v-104h-265v-596h-123v596h-265v104h653zM454 895h105l-129 -129h-127l-130 129h105l88 -92z" />
    <glyph glyph-name="Tcommaaccent" unicode="&#x162;" horiz-adv-x="733" 
d="M693 700v-104h-265v-596h-123v596h-265v104h653zM300 -66h132l-96 -167h-76z" />
    <glyph glyph-name="Uacute" unicode="&#xda;" horiz-adv-x="824" 
d="M620 700h124v-421c0 -245 -163 -294 -332 -294c-170 0 -332 49 -332 294v421h123v-412c0 -143 64 -200 209 -200s208 57 208 200v412zM444 895h130l-124 -129h-80z" />
    <glyph glyph-name="Ubreve" unicode="&#x16c;" horiz-adv-x="824" 
d="M620 700h124v-421c0 -245 -163 -294 -332 -294c-170 0 -332 49 -332 294v421h123v-412c0 -143 64 -200 209 -200s208 57 208 200v412zM514 892h66c0 -79 -57 -133 -169 -133s-168 54 -168 133h66c2 -41 33 -71 102 -71c70 0 101 30 103 71z" />
    <glyph glyph-name="Ucircumflex" unicode="&#xdb;" horiz-adv-x="824" 
d="M620 700h124v-421c0 -245 -163 -294 -332 -294c-170 0 -332 49 -332 294v421h123v-412c0 -143 64 -200 209 -200s208 57 208 200v412zM605 766h-105l-87 92l-88 -92h-105l129 129h127z" />
    <glyph glyph-name="Udieresis" unicode="&#xdc;" horiz-adv-x="824" 
d="M620 700h124v-421c0 -245 -163 -294 -332 -294c-170 0 -332 49 -332 294v421h123v-412c0 -143 64 -200 209 -200s208 57 208 200v412zM308 880c33 0 59 -26 59 -59s-26 -60 -59 -60s-60 27 -60 60s27 59 60 59zM518 880c33 0 59 -26 59 -59s-26 -60 -59 -60
s-60 27 -60 60s27 59 60 59z" />
    <glyph glyph-name="Ugrave" unicode="&#xd9;" horiz-adv-x="824" 
d="M620 700h124v-421c0 -245 -163 -294 -332 -294c-170 0 -332 49 -332 294v421h123v-412c0 -143 64 -200 209 -200s208 57 208 200v412zM400 895l74 -129h-80l-124 129h130z" />
    <glyph glyph-name="Uhungarumlaut" unicode="&#x170;" horiz-adv-x="824" 
d="M620 700h124v-421c0 -245 -163 -294 -332 -294c-170 0 -332 49 -332 294v421h123v-412c0 -143 64 -200 209 -200s208 57 208 200v412zM250 766l74 129h129l-124 -129h-79zM565 895h129l-124 -129h-80z" />
    <glyph glyph-name="Umacron" unicode="&#x16a;" horiz-adv-x="824" 
d="M620 700h124v-421c0 -245 -163 -294 -332 -294c-170 0 -332 49 -332 294v421h123v-412c0 -143 64 -200 209 -200s208 57 208 200v412zM237 854h349v-66h-349v66z" />
    <glyph glyph-name="Uring" unicode="&#x16e;" horiz-adv-x="824" 
d="M620 700h124v-421c0 -245 -163 -294 -332 -294c-170 0 -332 49 -332 294v421h123v-412c0 -143 64 -200 209 -200s208 57 208 200v412zM412 995c68 0 121 -53 121 -122c0 -68 -53 -121 -121 -121c-69 0 -122 53 -122 121c0 69 53 122 122 122zM412 809c39 0 64 28 64 64
c0 37 -25 65 -64 65s-65 -28 -65 -65c0 -36 26 -64 65 -64z" />
    <glyph glyph-name="Utilde" unicode="&#x168;" horiz-adv-x="824" 
d="M620 700h124v-421c0 -245 -163 -294 -332 -294c-170 0 -332 49 -332 294v421h123v-412c0 -143 64 -200 209 -200s208 57 208 200v412zM537 887h67c0 -59 -25 -115 -101 -115c-78 0 -112 56 -173 56c-33 0 -43 -30 -43 -52h-66c0 66 35 115 105 115c78 0 116 -58 170 -58
c36 0 41 29 41 54z" />
    <glyph glyph-name="Wacute" unicode="&#x1e82;" horiz-adv-x="1140" 
d="M998 700h142l-247 -700h-161l-162 518l-162 -518h-160l-248 700h143l189 -579l181 579h114l182 -579zM612 895h130l-124 -129h-80z" />
    <glyph glyph-name="Wcircumflex" unicode="&#x174;" horiz-adv-x="1140" 
d="M998 700h142l-247 -700h-161l-162 518l-162 -518h-160l-248 700h143l189 -579l181 579h114l182 -579zM763 766h-105l-87 92l-88 -92h-105l129 129h127z" />
    <glyph glyph-name="Wdieresis" unicode="&#x1e84;" horiz-adv-x="1140" 
d="M998 700h142l-247 -700h-161l-162 518l-162 -518h-160l-248 700h143l189 -579l181 579h114l182 -579zM466 880c33 0 59 -26 59 -59s-26 -60 -59 -60s-60 27 -60 60s27 59 60 59zM676 880c33 0 59 -26 59 -59s-26 -60 -59 -60s-60 27 -60 60s27 59 60 59z" />
    <glyph glyph-name="Wgrave" unicode="&#x1e80;" horiz-adv-x="1140" 
d="M998 700h142l-247 -700h-161l-162 518l-162 -518h-160l-248 700h143l189 -579l181 579h114l182 -579zM538 895l74 -129h-80l-124 129h130z" />
    <glyph glyph-name="Yacute" unicode="&#xdd;" horiz-adv-x="772" 
d="M623 700h149l-324 -442v-258h-123v258l-325 442h149l237 -336zM418 895h130l-124 -129h-80z" />
    <glyph glyph-name="Ycircumflex" unicode="&#x176;" horiz-adv-x="772" 
d="M623 700h149l-324 -442v-258h-123v258l-325 442h149l237 -336zM579 766h-105l-87 92l-88 -92h-105l129 129h127z" />
    <glyph glyph-name="Ydieresis" unicode="&#x178;" horiz-adv-x="772" 
d="M623 700h149l-324 -442v-258h-123v258l-325 442h149l237 -336zM282 880c33 0 59 -26 59 -59s-26 -60 -59 -60s-60 27 -60 60s27 59 60 59zM492 880c33 0 59 -26 59 -59s-26 -60 -59 -60s-60 27 -60 60s27 59 60 59z" />
    <glyph glyph-name="Ygrave" unicode="&#x1ef2;" horiz-adv-x="772" 
d="M623 700h149l-324 -442v-258h-123v258l-325 442h149l237 -336zM364 895l74 -129h-80l-124 129h130z" />
    <glyph glyph-name="Zacute" unicode="&#x179;" horiz-adv-x="772" 
d="M233 104h489v-104h-672v85l480 511h-461v104h643v-86zM408 895h130l-124 -129h-80z" />
    <glyph glyph-name="Zcaron" unicode="&#x17d;" horiz-adv-x="772" 
d="M233 104h489v-104h-672v85l480 511h-461v104h643v-86zM484 895h105l-129 -129h-127l-130 129h105l88 -92z" />
    <glyph glyph-name="Zdotaccent" unicode="&#x17b;" horiz-adv-x="772" 
d="M233 104h489v-104h-672v85l480 511h-461v104h643v-86zM396 890c33 0 60 -26 60 -59s-27 -60 -60 -60c-32 0 -59 27 -59 60s27 59 59 59z" />
    <glyph glyph-name="aacute" unicode="&#xe1;" horiz-adv-x="651" 
d="M309 548c147 0 272 -49 272 -202v-346h-123v69c-26 -30 -90 -84 -215 -84c-128 0 -213 53 -213 155c0 110 60 197 428 173v33c0 74 -38 111 -149 111c-95 0 -134 -31 -143 -76h-115c16 112 120 167 258 167zM458 150v89c-222 11 -302 -8 -302 -91c0 -54 42 -81 113 -81
c94 0 156 35 189 83zM337 735h130l-124 -129h-80z" />
    <glyph glyph-name="abreve" unicode="&#x103;" horiz-adv-x="651" 
d="M309 548c147 0 272 -49 272 -202v-346h-123v69c-26 -30 -90 -84 -215 -84c-128 0 -213 53 -213 155c0 110 60 197 428 173v33c0 74 -38 111 -149 111c-95 0 -134 -31 -143 -76h-115c16 112 120 167 258 167zM458 150v89c-222 11 -302 -8 -302 -91c0 -54 42 -81 113 -81
c94 0 156 35 189 83zM418 732h66c0 -79 -57 -133 -169 -133s-168 54 -168 133h66c2 -41 33 -71 102 -71c70 0 101 30 103 71z" />
    <glyph glyph-name="acircumflex" unicode="&#xe2;" horiz-adv-x="651" 
d="M309 548c147 0 272 -49 272 -202v-346h-123v69c-26 -30 -90 -84 -215 -84c-128 0 -213 53 -213 155c0 110 60 197 428 173v33c0 74 -38 111 -149 111c-95 0 -134 -31 -143 -76h-115c16 112 120 167 258 167zM458 150v89c-222 11 -302 -8 -302 -91c0 -54 42 -81 113 -81
c94 0 156 35 189 83zM508 606h-105l-87 92l-88 -92h-105l129 129h127z" />
    <glyph glyph-name="adieresis" unicode="&#xe4;" horiz-adv-x="651" 
d="M309 548c147 0 272 -49 272 -202v-346h-123v69c-26 -30 -90 -84 -215 -84c-128 0 -213 53 -213 155c0 110 60 197 428 173v33c0 74 -38 111 -149 111c-95 0 -134 -31 -143 -76h-115c16 112 120 167 258 167zM458 150v89c-222 11 -302 -8 -302 -91c0 -54 42 -81 113 -81
c94 0 156 35 189 83zM221 720c33 0 59 -26 59 -59s-26 -60 -59 -60s-60 27 -60 60s27 59 60 59zM431 720c33 0 59 -26 59 -59s-26 -60 -59 -60s-60 27 -60 60s27 59 60 59z" />
    <glyph glyph-name="agrave" unicode="&#xe0;" horiz-adv-x="651" 
d="M309 548c147 0 272 -49 272 -202v-346h-123v69c-26 -30 -90 -84 -215 -84c-128 0 -213 53 -213 155c0 110 60 197 428 173v33c0 74 -38 111 -149 111c-95 0 -134 -31 -143 -76h-115c16 112 120 167 258 167zM458 150v89c-222 11 -302 -8 -302 -91c0 -54 42 -81 113 -81
c94 0 156 35 189 83zM293 735l74 -129h-80l-124 129h130z" />
    <glyph glyph-name="amacron" unicode="&#x101;" horiz-adv-x="651" 
d="M309 548c147 0 272 -49 272 -202v-346h-123v69c-26 -30 -90 -84 -215 -84c-128 0 -213 53 -213 155c0 110 60 197 428 173v33c0 74 -38 111 -149 111c-95 0 -134 -31 -143 -76h-115c16 112 120 167 258 167zM458 150v89c-222 11 -302 -8 -302 -91c0 -54 42 -81 113 -81
c94 0 156 35 189 83zM141 694h349v-66h-349v66z" />
    <glyph glyph-name="aring" unicode="&#xe5;" horiz-adv-x="651" 
d="M309 548c147 0 272 -49 272 -202v-346h-123v69c-26 -30 -90 -84 -215 -84c-128 0 -213 53 -213 155c0 110 60 197 428 173v33c0 74 -38 111 -149 111c-95 0 -134 -31 -143 -76h-115c16 112 120 167 258 167zM458 150v89c-222 11 -302 -8 -302 -91c0 -54 42 -81 113 -81
c94 0 156 35 189 83zM316 835c68 0 121 -53 121 -122c0 -68 -53 -121 -121 -121c-69 0 -122 53 -122 121c0 69 53 122 122 122zM316 649c39 0 64 28 64 64c0 37 -25 65 -64 65s-65 -28 -65 -65c0 -36 26 -64 65 -64z" />
    <glyph glyph-name="atilde" unicode="&#xe3;" horiz-adv-x="651" 
d="M309 548c147 0 272 -49 272 -202v-346h-123v69c-26 -30 -90 -84 -215 -84c-128 0 -213 53 -213 155c0 110 60 197 428 173v33c0 74 -38 111 -149 111c-95 0 -134 -31 -143 -76h-115c16 112 120 167 258 167zM458 150v89c-222 11 -302 -8 -302 -91c0 -54 42 -81 113 -81
c94 0 156 35 189 83zM440 727h67c0 -59 -25 -115 -101 -115c-78 0 -112 56 -173 56c-33 0 -43 -30 -43 -52h-66c0 66 35 115 105 115c78 0 116 -58 170 -58c36 0 41 29 41 54z" />
    <glyph glyph-name="aeacute" unicode="&#x1fd;" horiz-adv-x="1093" 
d="M770 548c170 0 306 -99 292 -321h-480c14 -91 78 -151 191 -151c104 0 148 50 166 88h108c-28 -109 -131 -178 -274 -178c-101 0 -197 38 -250 120c-51 -83 -152 -120 -261 -120c-131 0 -232 53 -232 154c0 110 61 197 428 173v34c0 73 -37 111 -148 111
c-95 0 -134 -32 -144 -77h-114c16 112 120 167 258 167c104 0 192 -25 234 -93c55 62 138 93 226 93zM458 159v80c-222 11 -302 -8 -302 -91c0 -54 43 -81 114 -81c95 0 159 36 188 92zM585 317h367c-16 84 -74 141 -182 141c-99 0 -166 -57 -185 -141zM588 735h130
l-124 -129h-80z" />
    <glyph glyph-name="cacute" unicode="&#x107;" horiz-adv-x="659" 
d="M337 76c108 0 162 63 177 123h115c-26 -142 -148 -214 -292 -214c-156 0 -307 84 -307 281s151 282 307 282c144 0 266 -72 292 -214h-115c-15 60 -69 123 -177 123c-143 0 -194 -97 -194 -191c0 -93 51 -190 194 -190zM361 735h130l-124 -129h-80z" />
    <glyph glyph-name="ccaron" unicode="&#x10d;" horiz-adv-x="659" 
d="M337 76c108 0 162 63 177 123h115c-26 -142 -148 -214 -292 -214c-156 0 -307 84 -307 281s151 282 307 282c144 0 266 -72 292 -214h-115c-15 60 -69 123 -177 123c-143 0 -194 -97 -194 -191c0 -93 51 -190 194 -190zM417 735h105l-129 -129h-127l-130 129h105l88 -92z
" />
    <glyph glyph-name="ccircumflex" unicode="&#x109;" horiz-adv-x="659" 
d="M337 76c108 0 162 63 177 123h115c-26 -142 -148 -214 -292 -214c-156 0 -307 84 -307 281s151 282 307 282c144 0 266 -72 292 -214h-115c-15 60 -69 123 -177 123c-143 0 -194 -97 -194 -191c0 -93 51 -190 194 -190zM522 606h-105l-87 92l-88 -92h-105l129 129h127z
" />
    <glyph glyph-name="cdotaccent" unicode="&#x10b;" horiz-adv-x="659" 
d="M337 76c108 0 162 63 177 123h115c-26 -142 -148 -214 -292 -214c-156 0 -307 84 -307 281s151 282 307 282c144 0 266 -72 292 -214h-115c-15 60 -69 123 -177 123c-143 0 -194 -97 -194 -191c0 -93 51 -190 194 -190zM329 730c33 0 60 -26 60 -59s-27 -60 -60 -60
c-32 0 -59 27 -59 60s27 59 59 59z" />
    <glyph glyph-name="dcaron" unicode="&#x10f;" horiz-adv-x="825" 
d="M502 700h123v-700h-123v70c-42 -51 -106 -85 -195 -85c-156 0 -277 101 -277 281c0 181 121 282 277 282c89 0 153 -34 195 -85v237zM331 76c127 0 190 80 190 190c0 111 -61 191 -190 191c-130 0 -187 -78 -187 -191c0 -112 59 -190 187 -190zM771 700h114l-104 -243
h-76z" />
    <glyph glyph-name="eacute" unicode="&#xe9;" horiz-adv-x="652" 
d="M330 548c169 0 305 -100 291 -321h-480c14 -91 79 -151 191 -151c104 0 148 50 166 88h108c-27 -109 -131 -179 -274 -179c-152 0 -302 87 -302 281c0 191 147 282 300 282zM144 317h367c-16 84 -74 140 -181 140c-99 0 -167 -56 -186 -140zM358 735h130l-124 -129h-80z
" />
    <glyph glyph-name="ebreve" unicode="&#x115;" horiz-adv-x="652" 
d="M330 548c169 0 305 -100 291 -321h-480c14 -91 79 -151 191 -151c104 0 148 50 166 88h108c-27 -109 -131 -179 -274 -179c-152 0 -302 87 -302 281c0 191 147 282 300 282zM144 317h367c-16 84 -74 140 -181 140c-99 0 -167 -56 -186 -140zM428 732h66
c0 -79 -57 -133 -169 -133s-168 54 -168 133h66c2 -41 33 -71 102 -71c70 0 101 30 103 71z" />
    <glyph glyph-name="ecaron" unicode="&#x11b;" horiz-adv-x="652" 
d="M330 548c169 0 305 -100 291 -321h-480c14 -91 79 -151 191 -151c104 0 148 50 166 88h108c-27 -109 -131 -179 -274 -179c-152 0 -302 87 -302 281c0 191 147 282 300 282zM144 317h367c-16 84 -74 140 -181 140c-99 0 -167 -56 -186 -140zM414 735h105l-129 -129h-127
l-130 129h105l88 -92z" />
    <glyph glyph-name="ecircumflex" unicode="&#xea;" horiz-adv-x="652" 
d="M330 548c169 0 305 -100 291 -321h-480c14 -91 79 -151 191 -151c104 0 148 50 166 88h108c-27 -109 -131 -179 -274 -179c-152 0 -302 87 -302 281c0 191 147 282 300 282zM144 317h367c-16 84 -74 140 -181 140c-99 0 -167 -56 -186 -140zM518 606h-105l-87 92l-88 -92
h-105l129 129h127z" />
    <glyph glyph-name="edieresis" unicode="&#xeb;" horiz-adv-x="652" 
d="M330 548c169 0 305 -100 291 -321h-480c14 -91 79 -151 191 -151c104 0 148 50 166 88h108c-27 -109 -131 -179 -274 -179c-152 0 -302 87 -302 281c0 191 147 282 300 282zM144 317h367c-16 84 -74 140 -181 140c-99 0 -167 -56 -186 -140zM221 720c33 0 59 -26 59 -59
s-26 -60 -59 -60s-60 27 -60 60s27 59 60 59zM431 720c33 0 59 -26 59 -59s-26 -60 -59 -60s-60 27 -60 60s27 59 60 59z" />
    <glyph glyph-name="edotaccent" unicode="&#x117;" horiz-adv-x="652" 
d="M330 548c169 0 305 -100 291 -321h-480c14 -91 79 -151 191 -151c104 0 148 50 166 88h108c-27 -109 -131 -179 -274 -179c-152 0 -302 87 -302 281c0 191 147 282 300 282zM144 317h367c-16 84 -74 140 -181 140c-99 0 -167 -56 -186 -140zM335 730c33 0 60 -26 60 -59
s-27 -60 -60 -60c-32 0 -59 27 -59 60s27 59 59 59z" />
    <glyph glyph-name="egrave" unicode="&#xe8;" horiz-adv-x="652" 
d="M330 548c169 0 305 -100 291 -321h-480c14 -91 79 -151 191 -151c104 0 148 50 166 88h108c-27 -109 -131 -179 -274 -179c-152 0 -302 87 -302 281c0 191 147 282 300 282zM144 317h367c-16 84 -74 140 -181 140c-99 0 -167 -56 -186 -140zM314 735l74 -129h-80
l-124 129h130z" />
    <glyph glyph-name="emacron" unicode="&#x113;" horiz-adv-x="652" 
d="M330 548c169 0 305 -100 291 -321h-480c14 -91 79 -151 191 -151c104 0 148 50 166 88h108c-27 -109 -131 -179 -274 -179c-152 0 -302 87 -302 281c0 191 147 282 300 282zM144 317h367c-16 84 -74 140 -181 140c-99 0 -167 -56 -186 -140zM161 694h349v-66h-349v66z
" />
    <glyph glyph-name="gbreve" unicode="&#x11f;" horiz-adv-x="696" 
d="M503 533h123v-482c0 -206 -157 -237 -310 -237c-167 0 -267 59 -278 160h114c8 -32 48 -67 164 -67c149 0 187 48 187 144v59c-39 -47 -102 -77 -196 -77c-155 0 -277 77 -277 252c0 176 122 263 277 263c94 0 157 -35 196 -87v72zM331 113c115 0 191 62 191 172
c0 111 -74 172 -191 172c-116 0 -187 -59 -187 -172c0 -112 72 -172 187 -172zM450 732h66c0 -79 -57 -133 -169 -133s-168 54 -168 133h66c2 -41 33 -71 102 -71c70 0 101 30 103 71z" />
    <glyph glyph-name="gcircumflex" unicode="&#x11d;" horiz-adv-x="696" 
d="M503 533h123v-482c0 -206 -157 -237 -310 -237c-167 0 -267 59 -278 160h114c8 -32 48 -67 164 -67c149 0 187 48 187 144v59c-39 -47 -102 -77 -196 -77c-155 0 -277 77 -277 252c0 176 122 263 277 263c94 0 157 -35 196 -87v72zM331 113c115 0 191 62 191 172
c0 111 -74 172 -191 172c-116 0 -187 -59 -187 -172c0 -112 72 -172 187 -172zM540 606h-105l-87 92l-88 -92h-105l129 129h127z" />
    <glyph glyph-name="gcommaaccent" unicode="&#x123;" horiz-adv-x="696" 
d="M503 533h123v-482c0 -206 -157 -237 -310 -237c-167 0 -267 59 -278 160h114c8 -32 48 -67 164 -67c149 0 187 48 187 144v59c-39 -47 -102 -77 -196 -77c-155 0 -277 77 -277 252c0 176 122 263 277 263c94 0 157 -35 196 -87v72zM331 113c115 0 191 62 191 172
c0 111 -74 172 -191 172c-116 0 -187 -59 -187 -172c0 -112 72 -172 187 -172zM287 617l104 243h76l-66 -243h-114z" />
    <glyph glyph-name="gdotaccent" unicode="&#x121;" horiz-adv-x="696" 
d="M503 533h123v-482c0 -206 -157 -237 -310 -237c-167 0 -267 59 -278 160h114c8 -32 48 -67 164 -67c149 0 187 48 187 144v59c-39 -47 -102 -77 -196 -77c-155 0 -277 77 -277 252c0 176 122 263 277 263c94 0 157 -35 196 -87v72zM331 113c115 0 191 62 191 172
c0 111 -74 172 -191 172c-116 0 -187 -59 -187 -172c0 -112 72 -172 187 -172zM347 730c33 0 60 -26 60 -59s-27 -60 -60 -60c-32 0 -59 27 -59 60s27 59 59 59z" />
    <glyph glyph-name="hcircumflex" unicode="&#x125;" 
d="M397 548c139 0 215 -79 215 -203v-345h-123v308c0 90 -49 140 -146 140s-150 -56 -150 -140v-308h-123v700h123v-249c25 35 93 97 204 97zM323 766h-105l-87 92l-88 -92h-105l129 129h127z" />
    <glyph glyph-name="dotlessi" unicode="&#x131;" horiz-adv-x="263" 
d="M70 0v533h123v-533h-123z" />
    <glyph glyph-name="ij" unicode="&#x133;" horiz-adv-x="515" 
d="M70 0v533h123v-533h-123zM131 607c-38 0 -65 22 -65 60s27 60 65 60c39 0 66 -22 66 -60s-27 -60 -66 -60zM322 9v524h123v-524c0 -90 -15 -195 -165 -195c-26 0 -40 2 -63 5v101c95 -5 105 25 105 89zM383 607c-38 0 -65 22 -65 60s27 60 65 60c39 0 66 -22 66 -60
s-27 -60 -66 -60z" />
    <glyph glyph-name="jcircumflex" unicode="&#x135;" horiz-adv-x="263" 
d="M71 9v524h123v-524c0 -90 -15 -195 -165 -195c-26 0 -40 2 -63 5v101c95 -5 105 25 105 89zM325 606h-105l-87 92l-88 -92h-105l129 129h127z" />
    <glyph glyph-name="kcommaaccent" unicode="&#x137;" horiz-adv-x="656" 
d="M490 0l-181 242l-115 -108v-134h-124v700h124v-426l275 259h154l-227 -211l240 -322h-146zM277 -66h132l-96 -167h-76z" />
    <glyph glyph-name="kgreenlandic" unicode="&#x138;" horiz-adv-x="656" 
d="M490 0l-181 242l-115 -108v-134h-124v533h124v-259l275 259h154l-227 -211l240 -322h-146z" />
    <glyph glyph-name="lacute" unicode="&#x13a;" horiz-adv-x="263" 
d="M70 738h123v-738h-123v738zM164 924h130l-124 -129h-80z" />
    <glyph glyph-name="lcaron" unicode="&#x13e;" horiz-adv-x="393" 
d="M70 738h123v-738h-123v738zM339 700h114l-104 -243h-76z" />
    <glyph glyph-name="lcommaaccent" unicode="&#x13c;" horiz-adv-x="263" 
d="M70 738h123v-738h-123v738zM63 -66h132l-96 -167h-76z" />
    <glyph glyph-name="ldot" unicode="&#x140;" horiz-adv-x="466" 
d="M358 433c37 0 68 -30 68 -68s-31 -68 -68 -68c-38 0 -69 30 -69 68s31 68 69 68zM70 738h123v-738h-123v738z" />
    <glyph glyph-name="nacute" unicode="&#x144;" 
d="M397 548c139 0 215 -79 215 -203v-345h-123v308c0 90 -49 140 -146 140s-150 -56 -150 -140v-308h-123v533h123v-82c25 35 93 97 204 97zM373 735h130l-124 -129h-80z" />
    <glyph glyph-name="ncaron" unicode="&#x148;" 
d="M397 548c139 0 215 -79 215 -203v-345h-123v308c0 90 -49 140 -146 140s-150 -56 -150 -140v-308h-123v533h123v-82c25 35 93 97 204 97zM429 735h105l-129 -129h-127l-130 129h105l88 -92z" />
    <glyph glyph-name="ncommaaccent" unicode="&#x146;" 
d="M397 548c139 0 215 -79 215 -203v-345h-123v308c0 90 -49 140 -146 140s-150 -56 -150 -140v-308h-123v533h123v-82c25 35 93 97 204 97zM295 -66h132l-96 -167h-76z" />
    <glyph glyph-name="ntilde" unicode="&#xf1;" 
d="M397 548c139 0 215 -79 215 -203v-345h-123v308c0 90 -49 140 -146 140s-150 -56 -150 -140v-308h-123v533h123v-82c25 35 93 97 204 97zM466 727h67c0 -59 -25 -115 -101 -115c-78 0 -112 56 -173 56c-33 0 -43 -30 -43 -52h-66c0 66 35 115 105 115
c78 0 116 -58 170 -58c36 0 41 29 41 54z" />
    <glyph glyph-name="oacute" unicode="&#xf3;" horiz-adv-x="671" 
d="M335 548c156 0 306 -85 306 -282s-150 -281 -306 -281s-305 84 -305 281s149 282 305 282zM335 76c143 0 192 97 192 190c0 94 -49 191 -192 191s-192 -97 -192 -191c0 -93 49 -190 192 -190zM367 735h130l-124 -129h-80z" />
    <glyph glyph-name="obreve" unicode="&#x14f;" horiz-adv-x="671" 
d="M335 548c156 0 306 -85 306 -282s-150 -281 -306 -281s-305 84 -305 281s149 282 305 282zM335 76c143 0 192 97 192 190c0 94 -49 191 -192 191s-192 -97 -192 -191c0 -93 49 -190 192 -190zM438 732h66c0 -79 -57 -133 -169 -133s-168 54 -168 133h66
c2 -41 33 -71 102 -71c70 0 101 30 103 71z" />
    <glyph glyph-name="ocircumflex" unicode="&#xf4;" horiz-adv-x="671" 
d="M335 548c156 0 306 -85 306 -282s-150 -281 -306 -281s-305 84 -305 281s149 282 305 282zM335 76c143 0 192 97 192 190c0 94 -49 191 -192 191s-192 -97 -192 -191c0 -93 49 -190 192 -190zM528 606h-105l-87 92l-88 -92h-105l129 129h127z" />
    <glyph glyph-name="odieresis" unicode="&#xf6;" horiz-adv-x="671" 
d="M335 548c156 0 306 -85 306 -282s-150 -281 -306 -281s-305 84 -305 281s149 282 305 282zM335 76c143 0 192 97 192 190c0 94 -49 191 -192 191s-192 -97 -192 -191c0 -93 49 -190 192 -190zM231 720c33 0 59 -26 59 -59s-26 -60 -59 -60s-60 27 -60 60s27 59 60 59z
M441 720c33 0 59 -26 59 -59s-26 -60 -59 -60s-60 27 -60 60s27 59 60 59z" />
    <glyph glyph-name="ograve" unicode="&#xf2;" horiz-adv-x="671" 
d="M335 548c156 0 306 -85 306 -282s-150 -281 -306 -281s-305 84 -305 281s149 282 305 282zM335 76c143 0 192 97 192 190c0 94 -49 191 -192 191s-192 -97 -192 -191c0 -93 49 -190 192 -190zM313 735l74 -129h-80l-124 129h130z" />
    <glyph glyph-name="ohungarumlaut" unicode="&#x151;" horiz-adv-x="671" 
d="M335 548c156 0 306 -85 306 -282s-150 -281 -306 -281s-305 84 -305 281s149 282 305 282zM335 76c143 0 192 97 192 190c0 94 -49 191 -192 191s-192 -97 -192 -191c0 -93 49 -190 192 -190zM173 606l74 129h129l-124 -129h-79zM488 735h129l-124 -129h-80z" />
    <glyph glyph-name="omacron" unicode="&#x14d;" horiz-adv-x="671" 
d="M335 548c156 0 306 -85 306 -282s-150 -281 -306 -281s-305 84 -305 281s149 282 305 282zM335 76c143 0 192 97 192 190c0 94 -49 191 -192 191s-192 -97 -192 -191c0 -93 49 -190 192 -190zM161 694h349v-66h-349v66z" />
    <glyph glyph-name="oslashacute" unicode="&#x1ff;" horiz-adv-x="671" 
d="M580 449c38 -44 61 -104 61 -182c0 -197 -150 -281 -305 -281c-72 0 -142 17 -197 56l-63 -59l-43 47l59 54c-38 44 -62 105 -62 183c0 197 150 281 306 281c71 0 142 -18 197 -56l63 58l43 -46zM144 267c0 -38 8 -77 27 -109l287 265c-29 21 -69 35 -122 35
c-143 0 -192 -98 -192 -191zM336 76c143 0 191 97 191 191c0 38 -8 76 -27 109l-286 -265c29 -22 69 -35 122 -35zM367 735h130l-124 -129h-80z" />
    <glyph glyph-name="otilde" unicode="&#xf5;" horiz-adv-x="671" 
d="M335 548c156 0 306 -85 306 -282s-150 -281 -306 -281s-305 84 -305 281s149 282 305 282zM335 76c143 0 192 97 192 190c0 94 -49 191 -192 191s-192 -97 -192 -191c0 -93 49 -190 192 -190zM460 727h67c0 -59 -25 -115 -101 -115c-78 0 -112 56 -173 56
c-33 0 -43 -30 -43 -52h-66c0 66 35 115 105 115c78 0 116 -58 170 -58c36 0 41 29 41 54z" />
    <glyph glyph-name="racute" unicode="&#x155;" horiz-adv-x="496" 
d="M407 548c24 0 38 -1 59 -4v-122h-4c-21 6 -48 10 -82 10c-135 0 -186 -78 -186 -161v-271h-124v533h124v-100c24 39 98 115 213 115zM300 735h130l-124 -129h-80z" />
    <glyph glyph-name="rcaron" unicode="&#x159;" horiz-adv-x="496" 
d="M407 548c24 0 38 -1 59 -4v-122h-4c-21 6 -48 10 -82 10c-135 0 -186 -78 -186 -161v-271h-124v533h124v-100c24 39 98 115 213 115zM356 735h105l-129 -129h-127l-130 129h105l88 -92z" />
    <glyph glyph-name="rcommaaccent" unicode="&#x157;" horiz-adv-x="496" 
d="M407 548c24 0 38 -1 59 -4v-122h-4c-21 6 -48 10 -82 10c-135 0 -186 -78 -186 -161v-271h-124v533h124v-100c24 39 98 115 213 115zM64 -66h132l-96 -167h-76z" />
    <glyph glyph-name="sacute" unicode="&#x15b;" horiz-adv-x="617" 
d="M351 312c151 -26 236 -46 236 -151c0 -124 -103 -176 -281 -176c-162 0 -286 56 -286 177h127c0 -58 57 -84 169 -84c109 0 148 27 148 67c0 59 -89 60 -225 85c-138 26 -199 58 -199 153c0 107 100 165 257 165c171 0 263 -68 263 -167h-115c0 34 -36 76 -150 76
c-107 0 -144 -27 -144 -68c0 -54 105 -61 200 -77zM325 735h130l-124 -129h-80z" />
    <glyph glyph-name="scaron" unicode="&#x161;" horiz-adv-x="617" 
d="M351 312c151 -26 236 -46 236 -151c0 -124 -103 -176 -281 -176c-162 0 -286 56 -286 177h127c0 -58 57 -84 169 -84c109 0 148 27 148 67c0 59 -89 60 -225 85c-138 26 -199 58 -199 153c0 107 100 165 257 165c171 0 263 -68 263 -167h-115c0 34 -36 76 -150 76
c-107 0 -144 -27 -144 -68c0 -54 105 -61 200 -77zM391 735h105l-129 -129h-127l-130 129h105l88 -92z" />
    <glyph glyph-name="scircumflex" unicode="&#x15d;" horiz-adv-x="617" 
d="M351 312c151 -26 236 -46 236 -151c0 -124 -103 -176 -281 -176c-162 0 -286 56 -286 177h127c0 -58 57 -84 169 -84c109 0 148 27 148 67c0 59 -89 60 -225 85c-138 26 -199 58 -199 153c0 107 100 165 257 165c171 0 263 -68 263 -167h-115c0 34 -36 76 -150 76
c-107 0 -144 -27 -144 -68c0 -54 105 -61 200 -77zM496 606h-105l-87 92l-88 -92h-105l129 129h127z" />
    <glyph glyph-name="scommaaccent" unicode="&#x219;" horiz-adv-x="617" 
d="M351 312c151 -26 236 -46 236 -151c0 -124 -103 -176 -281 -176c-162 0 -286 56 -286 177h127c0 -58 57 -84 169 -84c109 0 148 27 148 67c0 59 -89 60 -225 85c-138 26 -199 58 -199 153c0 107 100 165 257 165c171 0 263 -68 263 -167h-115c0 34 -36 76 -150 76
c-107 0 -144 -27 -144 -68c0 -54 105 -61 200 -77zM237 -66h132l-96 -167h-76z" />
    <glyph glyph-name="tcaron" unicode="&#x165;" horiz-adv-x="468" 
d="M418 439h-161v-240c0 -90 36 -115 161 -102v-96c-18 -5 -45 -9 -70 -9c-162 0 -214 66 -214 207v240h-104v94h104v138h123v-138h161v-94zM445 840h114l-104 -243h-76z" />
    <glyph glyph-name="tcommaaccent" unicode="&#x163;" horiz-adv-x="468" 
d="M418 439h-161v-240c0 -90 36 -115 161 -102v-96c-18 -5 -45 -9 -70 -9c-162 0 -214 66 -214 207v240h-104v94h104v138h123v-138h161v-94zM198 -66h132l-96 -167h-76z" />
    <glyph glyph-name="uacute" unicode="&#xfa;" 
d="M489 533h123v-533h-123v82c-25 -35 -93 -97 -204 -97c-139 0 -215 79 -215 203v345h123v-308c0 -90 49 -140 146 -140s150 56 150 140v308zM373 735h130l-124 -129h-80z" />
    <glyph glyph-name="ubreve" unicode="&#x16d;" 
d="M489 533h123v-533h-123v82c-25 -35 -93 -97 -204 -97c-139 0 -215 79 -215 203v345h123v-308c0 -90 49 -140 146 -140s150 56 150 140v308zM444 732h66c0 -79 -57 -133 -169 -133s-168 54 -168 133h66c2 -41 33 -71 102 -71c70 0 101 30 103 71z" />
    <glyph glyph-name="ucircumflex" unicode="&#xfb;" 
d="M489 533h123v-533h-123v82c-25 -35 -93 -97 -204 -97c-139 0 -215 79 -215 203v345h123v-308c0 -90 49 -140 146 -140s150 56 150 140v308zM534 606h-105l-87 92l-88 -92h-105l129 129h127z" />
    <glyph glyph-name="udieresis" unicode="&#xfc;" 
d="M489 533h123v-533h-123v82c-25 -35 -93 -97 -204 -97c-139 0 -215 79 -215 203v345h123v-308c0 -90 49 -140 146 -140s150 56 150 140v308zM237 720c33 0 59 -26 59 -59s-26 -60 -59 -60s-60 27 -60 60s27 59 60 59zM447 720c33 0 59 -26 59 -59s-26 -60 -59 -60
s-60 27 -60 60s27 59 60 59z" />
    <glyph glyph-name="uhungarumlaut" unicode="&#x171;" 
d="M489 533h123v-533h-123v82c-25 -35 -93 -97 -204 -97c-139 0 -215 79 -215 203v345h123v-308c0 -90 49 -140 146 -140s150 56 150 140v308zM168 606l74 129h129l-124 -129h-79zM483 735h129l-124 -129h-80z" />
    <glyph glyph-name="ugrave" unicode="&#xf9;" 
d="M489 533h123v-533h-123v82c-25 -35 -93 -97 -204 -97c-139 0 -215 79 -215 203v345h123v-308c0 -90 49 -140 146 -140s150 56 150 140v308zM329 735l74 -129h-80l-124 129h130z" />
    <glyph glyph-name="umacron" unicode="&#x16b;" 
d="M489 533h123v-533h-123v82c-25 -35 -93 -97 -204 -97c-139 0 -215 79 -215 203v345h123v-308c0 -90 49 -140 146 -140s150 56 150 140v308zM167 694h349v-66h-349v66z" />
    <glyph glyph-name="uring" unicode="&#x16f;" 
d="M489 533h123v-533h-123v82c-25 -35 -93 -97 -204 -97c-139 0 -215 79 -215 203v345h123v-308c0 -90 49 -140 146 -140s150 56 150 140v308zM342 832c68 0 121 -53 121 -122c0 -68 -53 -121 -121 -121c-69 0 -122 53 -122 121c0 69 53 122 122 122zM342 646
c39 0 64 28 64 64c0 37 -25 65 -64 65s-65 -28 -65 -65c0 -36 26 -64 65 -64z" />
    <glyph glyph-name="utilde" unicode="&#x169;" 
d="M489 533h123v-533h-123v82c-25 -35 -93 -97 -204 -97c-139 0 -215 79 -215 203v345h123v-308c0 -90 49 -140 146 -140s150 56 150 140v308zM466 727h67c0 -59 -25 -115 -101 -115c-78 0 -112 56 -173 56c-33 0 -43 -30 -43 -52h-66c0 66 35 115 105 115
c78 0 116 -58 170 -58c36 0 41 29 41 54z" />
    <glyph glyph-name="wacute" unicode="&#x1e83;" horiz-adv-x="991" 
d="M841 533h130l-210 -533h-120l-146 386l-145 -386h-120l-210 533h130l143 -391l147 391h111l147 -391zM537 735h130l-124 -129h-80z" />
    <glyph glyph-name="wcircumflex" unicode="&#x175;" horiz-adv-x="991" 
d="M841 533h130l-210 -533h-120l-146 386l-145 -386h-120l-210 533h130l143 -391l147 391h111l147 -391zM688 606h-105l-87 92l-88 -92h-105l129 129h127z" />
    <glyph glyph-name="wdieresis" unicode="&#x1e85;" horiz-adv-x="991" 
d="M841 533h130l-210 -533h-120l-146 386l-145 -386h-120l-210 533h130l143 -391l147 391h111l147 -391zM391 720c33 0 59 -26 59 -59s-26 -60 -59 -60s-60 27 -60 60s27 59 60 59zM601 720c33 0 59 -26 59 -59s-26 -60 -59 -60s-60 27 -60 60s27 59 60 59z" />
    <glyph glyph-name="wgrave" unicode="&#x1e81;" horiz-adv-x="991" 
d="M841 533h130l-210 -533h-120l-146 386l-145 -386h-120l-210 533h130l143 -391l147 391h111l147 -391zM463 735l74 -129h-80l-124 129h130z" />
    <glyph glyph-name="yacute" unicode="&#xfd;" horiz-adv-x="647" 
d="M498 533h129l-320 -700h-122l83 186l-248 514h129l177 -385zM355 735h130l-124 -129h-80z" />
    <glyph glyph-name="ycircumflex" unicode="&#x177;" horiz-adv-x="647" 
d="M498 533h129l-320 -700h-122l83 186l-248 514h129l177 -385zM519 606h-105l-87 92l-88 -92h-105l129 129h127z" />
    <glyph glyph-name="ydieresis" unicode="&#xff;" horiz-adv-x="647" 
d="M498 533h129l-320 -700h-122l83 186l-248 514h129l177 -385zM222 720c33 0 59 -26 59 -59s-26 -60 -59 -60s-60 27 -60 60s27 59 60 59zM432 720c33 0 59 -26 59 -59s-26 -60 -59 -60s-60 27 -60 60s27 59 60 59z" />
    <glyph glyph-name="ygrave" unicode="&#x1ef3;" horiz-adv-x="647" 
d="M498 533h129l-320 -700h-122l83 186l-248 514h129l177 -385zM301 735l74 -129h-80l-124 129h130z" />
    <glyph glyph-name="zacute" unicode="&#x17a;" horiz-adv-x="613" 
d="M211 104h362v-104h-533v99l353 330h-334v104h505v-99zM328 735h130l-124 -129h-80z" />
    <glyph glyph-name="zcaron" unicode="&#x17e;" horiz-adv-x="613" 
d="M211 104h362v-104h-533v99l353 330h-334v104h505v-99zM404 735h105l-129 -129h-127l-130 129h105l88 -92z" />
    <glyph glyph-name="zdotaccent" unicode="&#x17c;" horiz-adv-x="613" 
d="M211 104h362v-104h-533v99l353 330h-334v104h505v-99zM316 730c33 0 60 -26 60 -59s-27 -60 -60 -60c-32 0 -59 27 -59 60s27 59 59 59z" />
    <glyph glyph-name="iacute" unicode="&#xed;" horiz-adv-x="263" 
d="M70 0v533h123v-533h-123zM164 735h130l-124 -129h-80z" />
    <glyph glyph-name="ibreve" unicode="&#x12d;" horiz-adv-x="263" 
d="M70 0v533h123v-533h-123zM234 732h66c0 -79 -57 -133 -169 -133s-168 54 -168 133h66c2 -41 33 -71 102 -71c70 0 101 30 103 71z" />
    <glyph glyph-name="icircumflex" unicode="&#xee;" horiz-adv-x="263" 
d="M70 0v533h123v-533h-123zM324 606h-105l-87 92l-88 -92h-105l129 129h127z" />
    <glyph glyph-name="idieresis" unicode="&#xef;" horiz-adv-x="263" 
d="M70 0v533h123v-533h-123zM27 720c33 0 59 -26 59 -59s-26 -60 -59 -60s-60 27 -60 60s27 59 60 59zM237 720c33 0 59 -26 59 -59s-26 -60 -59 -60s-60 27 -60 60s27 59 60 59z" />
    <glyph glyph-name="igrave" unicode="&#xec;" horiz-adv-x="263" 
d="M70 0v533h123v-533h-123zM100 735l74 -129h-80l-124 129h130z" />
    <glyph glyph-name="imacron" unicode="&#x12b;" horiz-adv-x="263" 
d="M70 0v533h123v-533h-123zM-43 694h349v-66h-349v66z" />
    <glyph glyph-name="iogonek" unicode="&#x12f;" horiz-adv-x="263" 
d="M70 0v533h123v-533c-34 -11 -91 -34 -91 -79c0 -44 54 -44 91 -36v-70c-6 -3 -39 -11 -69 -11c-68 0 -117 28 -117 85c0 64 73 100 104 111h-41zM131 607c-38 0 -65 22 -65 60s27 60 65 60c39 0 66 -22 66 -60s-27 -60 -66 -60z" />
    <glyph glyph-name="itilde" unicode="&#x129;" horiz-adv-x="263" 
d="M70 0v533h123v-533h-123zM256 727h67c0 -59 -25 -115 -101 -115c-78 0 -112 56 -173 56c-33 0 -43 -30 -43 -52h-66c0 66 35 115 105 115c78 0 116 -58 170 -58c36 0 41 29 41 54z" />
    <glyph glyph-name="A" unicode="A" horiz-adv-x="808" 
d="M675 0l-71 156h-401l-70 -156h-133l324 700h160l324 -700h-133zM250 260h308l-154 343z" />
    </font>
</defs>
</svg>
