<?xml version="1.0" standalone="no"?> <!DOCTYPE svg PUBLIC "-//W3C//DTD SVG 1.0//EN" "http://www.w3.org/TR/2001/REC-SVG-20010904/DTD/svg10.dtd" > <svg xmlns="http://www.w3.org/2000/svg" width="100%" height="100%">
<defs >
<font horiz-adv-x="552" ><font-face
    font-family="Magic Frankie"
    units-per-em="1000"
    panose-1="0 0 0 0 0 0 0 0 0 0"
    ascent="750"
    descent="-250"
    alphabetic="0" />
<missing-glyph horiz-adv-x="200" />
<glyph unicode=" " glyph-name="space" horiz-adv-x="200" />
<glyph unicode="!" glyph-name="exclam" horiz-adv-x="548" d="M67 -200Q51 -189 38 -169T23 -134Q20 -116 29 -90T51 -41T81 -2T108 11Q114 9 121 3T134 -12T145 -31T151 -50Q152 -58 152 -63T151 -74T146 -86T135 -104Q126 -118 119 -136T107 -172Q99 -203 93
-207T67 -200ZM154 6Q146 12 139 21T127 42T118 64T116 85Q116 103 128 143T163 238T215 355T276 483T343 609T408 721Q430 755 444 775T468 805T486 814T503 805Q516 791 524 765T530 712Q529 702 528 695T523 681T515 665T501 642Q457 574 416 505T338 373T274
255T230 162Q210 115 199 76T190 24Q192 12 188 3T176 -6Q174 -6 167 -3T154 6Z" />
<glyph unicode="&quot;" glyph-name="quotedbl" horiz-adv-x="254" d="M30 515Q22 526 22 533T30 556Q38 571 33 582Q25 598 25 609T33 644Q41 673 53 688T76 699Q88 694 99 682T116 653Q126 629 117 603T77 541Q64 526 54 515T42 504Q37 504 30 515ZM137 515Q129
526 129 533T137 556Q145 570 139 582Q131 598 131 609T139 644Q148 673 160 688T183 699Q195 694 206 682T223 653Q232 629 223 603T184 541Q171 526 161 515T149 504Q144 504 137 515Z" />
<glyph unicode="#" glyph-name="numbersign" horiz-adv-x="697" d="M373 -157Q364 -153 354 -146T338 -132Q330 -122 328 -113T326 -82Q326 -68 330 -39T341 20Q346 49 350 69T354 90Q353 91 345 90T324 87T299 82T275 76Q255 71 252 58Q250 51 249 34T248 -3T249
-40T252 -65Q254 -76 253 -79T242 -84Q227 -89 210 -84T172 -67Q149 -52 139 -35T128 6V30L108 23Q100 20 90 16T74 8Q49 -5 43 -4T32 17Q27 37 27 50T33 72T57 89T101 106L151 122L165 171Q170 191 174 205T176 221Q175 222 160 218T127 206T90 192T66 182Q57
177 51 185Q48 189 46 199T43 222T42 246T46 263Q50 270 59 276T87 289T133 302T202 317Q214 320 223 341Q230 359 244 388T272 445T298 494T313 516Q320 519 330 513T349 495T366 468T375 440Q377 427 374 415T359 380Q351 365 347 354T345 341Q347 340 358 340T384
343L419 347L437 393Q449 423 462 449T487 496T510 530T528 545Q550 553 573 514Q587 488 588 464T575 403L560 362L606 358Q630 357 644 355T665 347T675 332T677 307Q677 284 668 265T648 241Q645 240 633 244T606 256Q591 263 575 268T549 275L526 276L510 233Q503
215 498 200T493 182Q493 177 502 175T542 171Q562 169 578 167T597 163Q599 160 600 152T602 133Q601 120 599 113T588 98Q579 88 574 87T549 90Q538 92 522 94T493 96H463L458 77Q456 69 453 57T447 36Q440 9 436 -16T429 -64T428 -103T432 -130Q435 -138 435
-143T430 -156Q415 -179 373 -157ZM334 158Q358 162 365 164T374 175Q377 186 380 202T387 234T393 261T395 273Q394 274 381 272T353 266T324 260T310 255Q308 253 303 238T291 203T280 168T275 149Q275 145 286 149Q291 150 305 152T334 158Z" />
<glyph unicode="$" glyph-name="dollar" horiz-adv-x="642" d="M193 -249Q183 -244 173 -235T158 -218L144 -198L152 -162Q156 -146 159 -133T164 -117Q167 -109 148 -100Q139 -96 127 -87T103 -67T80 -42T59 -15Q36 18 27 45T17 104Q17 116 17 124T19 139T24
154T33 173Q43 194 59 215T92 254T125 283T152 294Q159 294 165 288T174 274T176 258T169 244Q164 240 154 223T131 185T109 144T94 114Q85 88 85 68T94 39Q102 31 118 25T151 16T182 12T202 17Q204 19 212 42T232 95Q237 110 244 128T260 167T276 206T291 242Q305
273 313 295T319 319Q317 321 310 326T292 339Q268 357 251 382T226 435T219 490T234 539Q245 559 267 577T318 609T378 631T439 640H460L487 689Q510 732 519 744T536 753Q539 751 544 743T555 724T564 702T568 685Q568 679 564 669T552 649Q539 630 538 624T544
607Q549 600 552 600T565 608Q571 613 577 616T588 619Q598 619 609 600T622 561Q623 553 623 548T620 536T613 520T599 497Q588 479 576 456T557 418Q551 402 544 391T533 378Q525 375 511 389T486 424Q459 481 508 550Q524 573 506 566Q503 565 499 561T487 542T465
499T425 423L379 335L440 304Q470 289 491 276T527 248T551 219T566 186Q620 23 418 -77Q375 -97 342 -106T269 -120L234 -124L227 -162Q223 -188 223 -195T229 -206Q238 -213 242 -227T242 -250Q232 -268 193 -249ZM351 54Q377 64 404 80T453 113T491 146T510
174Q512 183 510 189T496 206Q490 212 476 222T445 244T409 267T376 286L360 294L339 242Q330 221 318 188T295 121T276 63T268 33Q268 28 272 28T295 33Q306 37 322 43T351 54ZM374 439Q387 471 397 495T409 522Q412 529 398 521T364 496T322 462T291 430L275
410L305 382Q318 371 327 364T339 358Q341 360 351 383T374 439Z" />
<glyph unicode="%" glyph-name="percent" horiz-adv-x="752" d="M172 -179Q136 -158 114 -124T96 -59Q98 -39 113 -3T152 77T204 164T262 245Q281 269 313 305T382 384T460 469T538 551T606 620T655 666Q686 692 698 693T720 675Q740 634 716 613Q666 571 616
521T518 416T429 306T357 200Q332 158 309 114T266 30T234 -46T215 -103Q209 -129 216 -149Q220 -162 220 -167T214 -181Q205 -193 202 -193Q200 -193 192 -189T172 -179ZM480 -143Q447 -122 425 -86T394 -6Q388 28 396 68T425 147T473 220T537 277Q554 288 564
288T586 279Q596 269 602 269Q613 269 627 254T651 219Q660 201 662 189T665 150Q665 124 662 107T646 57Q634 23 619 -10T586 -70T552 -119T521 -149Q515 -153 512 -155T505 -157T496 -153T480 -143ZM526 -12Q536 -3 547 11T568 43T588 78T602 111Q606 123 609
139T615 169T618 193T616 203Q613 203 600 186T571 147T540 101T519 66Q505 40 495 11T485 -32Q485 -38 487 -39T496 -36Q501 -33 509 -27T526 -12ZM155 278Q135 295 121 310T99 341T86 374T80 414Q78 438 80 452T89 487Q99 517 116 549T155 607Q163 618 172 631T185
653Q196 674 213 683T264 694Q277 695 284 695T297 694T308 689T321 678Q359 645 367 597T355 489Q343 454 319 414T269 339T219 281T181 258Q179 258 172 264T155 278ZM237 440Q251 454 265 471T285 497Q291 506 296 519T307 546T315 572T318 592Q318 600 315
602T300 604Q287 604 285 602T282 588Q282 580 278 569T265 546Q258 535 247 514T225 475Q195 414 197 408T237 440Z" />
<glyph unicode="&amp;" glyph-name="ampersand" horiz-adv-x="778" d="M135 -105Q124 -100 111 -90T86 -66T62 -39T44 -11Q39 -1 35 15T27 49T23 81T23 103Q25 112 34 127T57 161T85 197T115 229Q132 245 156 265T200 300L245 333L242 353Q236 393 234 420T231
468T233 506T242 544Q262 612 311 658Q340 684 369 696T435 708Q495 708 527 674T559 574Q559 548 554 526T533 480T491 426T422 353L341 272L359 244Q367 233 379 217T403 190L429 163L459 187Q472 197 499 223T552 276Q578 303 598 321T622 340Q630 340 640 324T653
289Q655 275 651 255T636 213T609 166T574 117L550 88L576 80Q617 68 643 65T694 69Q725 76 732 71Q744 64 752 43T760 -6Q760 -17 760 -24T758 -36T754 -46T746 -55Q737 -64 728 -68T704 -74T671 -72T624 -61Q582 -50 551 -37T486 -3L466 9L443 -10Q404 -43 361
-66T276 -103T199 -116T135 -105ZM213 44Q227 48 244 55T278 70T312 88T342 105L361 117L339 149Q330 162 320 177T305 202Q300 211 295 217T287 224Q284 224 273 213T246 185T211 148T176 109T147 74T130 51L116 25L146 28Q158 30 178 34T213 44ZM399 455Q450
497 474 523T509 573Q519 596 513 600T469 603Q457 602 449 601T434 598T420 592T404 582Q351 545 322 488Q314 471 311 457T306 420L304 379L324 394Q332 400 354 417T399 455Z" />
<glyph unicode="&apos;" glyph-name="quotesingle" horiz-adv-x="240" d="M137 515Q129 526 129 533T137 556Q145 570 139 582Q131 598 131 609T139 644Q148 673 160 688T183 699Q195 694 206 682T223 653Q232 629 223 603T184 541Q171 526 161 515T149 504Q144
504 137 515Z" />
<glyph unicode="(" glyph-name="parenleft" horiz-adv-x="374" d="M76 -184Q18 -171 -19 -131T-59 -38Q-61 18 -42 89T11 225Q24 249 43 279T83 341T125 401T164 451Q197 491 235 530T312 605T386 669T452 719T503 748T533 751Q539 746 543 732T544 708Q543 705
533 698T511 683Q490 671 462 649T404 601T346 546T297 494Q274 468 249 430T198 350T152 266T116 190Q104 160 95 125T79 53T71 -17T70 -77Q72 -95 74 -98T87 -99Q109 -94 125 -96T148 -107Q163 -128 136 -154Q131 -159 124 -165T115 -176Q106 -185 100 -186T76
-184Z" />
<glyph unicode=")" glyph-name="parenright" horiz-adv-x="422" d="M-114 -189Q-116 -185 -117 -179T-119 -165T-118 -153T-114 -145Q-112 -143 -103 -138T-82 -126Q-70 -119 -51 -105T-10 -71T34 -32T75 8Q120 54 161 112T237 232T297 357T333 475Q337 494 340
516T344 559T346 600T344 633L342 655L310 651Q299 650 293 650T282 651T275 655T268 664Q258 679 260 686Q261 689 268 698T285 717Q295 728 303 733T320 740T340 739T370 729Q538 665 442 411Q414 335 370 261T263 109Q236 77 206 44T143 -21T78 -82T14 -135Q-43
-180 -73 -193T-114 -189Z" />
<glyph unicode="*" glyph-name="asterisk" horiz-adv-x="413" d="M177 387Q163 406 161 428T169 474L179 497L154 495Q137 492 133 493T127 502Q124 515 130 531T145 551Q149 553 160 553T183 551Q203 548 206 549T208 556Q206 561 205 572T201 598Q199 622 200
626T210 629Q223 626 233 607Q238 598 240 592T244 584Q245 583 255 592T279 614Q293 627 308 640T332 658Q346 668 350 668T362 662Q372 654 379 639T390 606Q393 592 391 580T382 568Q380 568 373 564T357 555L336 541L359 529Q378 520 381 515T378 498Q375 492
368 492T334 493Q317 495 305 495T292 494Q291 493 298 485T316 466Q346 437 347 417T322 396Q309 396 282 424L253 452L242 438Q237 432 230 420T216 397Q210 386 204 378T196 370Q194 370 188 375T177 387Z" />
<glyph unicode="+" glyph-name="plus" horiz-adv-x="480" d="M231 -26Q202 -11 179 14T151 59Q150 65 150 79T153 109T157 142T163 169Q165 177 160 177T128 175Q120 174 119 174T116 174T111 173T97 170Q74 165 62 164T44 164T36 173T32 195Q29 215 32 230T44
254Q50 259 54 262T67 269T89 274T127 279L189 285L203 323Q220 369 237 403T269 453L286 472L303 462Q318 453 330 436T345 401Q347 390 344 377T330 335Q322 315 318 300T314 284Q315 284 308 284T294 283T288 281T306 279Q332 277 349 275T378 271T398 267T415
260Q437 249 443 240T445 212Q443 202 440 196T429 187T409 184T378 184Q360 185 336 187T297 191Q284 193 280 193T276 194T279 192T282 189Q282 188 280 177T274 149Q271 133 268 109T264 64Q262 47 262 37T262 21T265 10T273 -1Q297 -33 278 -39Q273 -41 270
-41T263 -41T251 -36T231 -26Z" />
<glyph unicode="," glyph-name="comma" horiz-adv-x="180" d="M49 -115Q29 -95 53 -69Q63 -58 62 -52T47 -25Q25 7 26 32T53 83Q80 112 107 101T152 42Q168 3 146 -40Q141 -51 130 -66T106 -95T83 -118T68 -128Q66 -128 60 -124T49 -115Z" />
<glyph unicode="-" glyph-name="hyphen" horiz-adv-x="444" d="M361 131Q349 133 329 135T292 141Q284 142 268 143T230 145T185 147T137 148L23 149L21 169Q18 216 37 230Q46 236 68 239T123 244T195 246T281 243Q326 240 353 238T396 232T416 223T422 208Q424
182 417 160T397 132Q393 130 383 130T361 131Z" />
<glyph unicode="." glyph-name="period" horiz-adv-x="172" d="M74 -80Q58 -66 44 -42T24 3Q22 13 24 25T30 51T42 76T57 97Q65 105 72 110T82 116Q85 116 92 111T106 99T121 84T133 68Q138 62 142 51T148 29Q150 21 150 16T150 6T146 -7T136 -27Q128 -41 123
-54T118 -73Q118 -83 113 -90T100 -97Q98 -97 90 -93T74 -80Z" />
<glyph unicode="/" glyph-name="slash" horiz-adv-x="676" d="M99 -129Q63 -108 41 -74T22 -9Q24 11 39 47T78 127T130 214T188 295Q207 319 239 355T308 434T387 519T465 601T533 670T582 716Q612 742 624 743T647 725Q667 683 642 663Q593 621 542 571T444 466T356
356T284 250Q258 208 235 164T192 80T160 4T142 -53Q136 -79 143 -99Q146 -112 146 -117T140 -131Q133 -143 129 -143Q127 -143 119 -139T99 -129Z" />
<glyph unicode="0" glyph-name="zero" horiz-adv-x="532" d="M125 -124Q114 -118 102 -109T77 -88T55 -64T38 -40Q17 -1 17 44T37 151Q59 213 94 275T177 398T280 513T399 616Q469 668 506 681T556 673Q561 665 567 663T590 661Q615 661 627 651Q638 642 647 625T661
584T668 536T665 485Q660 453 649 416T619 340T578 261T529 187Q503 151 469 110T398 32T329 -37T274 -84Q254 -98 239 -107T212 -122T189 -129T166 -131Q154 -131 142 -129T125 -124ZM185 11Q202 18 228 35T284 76T343 124T394 173Q432 213 461 248T512 316T552
382T583 453Q598 490 604 509T612 546L613 575L590 572Q509 559 404 455Q312 364 248 272T150 91Q138 59 132 41T124 14T127 3T141 0Q149 0 161 3T185 11Z" />
<glyph unicode="1" glyph-name="one" horiz-adv-x="417" d="M68 -99Q63 -97 53 -87T35 -66Q23 -50 17 -35T11 -4T17 32T36 75Q56 115 80 153T138 233T217 324T325 436Q358 468 381 491T404 516Q406 518 396 512T372 496Q358 486 348 479T335 472Q331 472 327 479T320
495T317 515T318 531Q321 539 350 562T421 611Q444 625 477 642T541 675T596 700T623 709Q627 707 629 701T631 684T631 664T627 644Q625 636 622 631T614 619T601 606T580 588Q519 535 446 456T304 287Q275 249 251 216T207 151T170 88T138 24Q129 4 124 -7T116
-26T113 -40T113 -55Q114 -71 113 -78T104 -94Q94 -105 88 -106T68 -99Z" />
<glyph unicode="2" glyph-name="two" horiz-adv-x="607" d="M38 -117Q25 -107 17 -89T5 -46Q-4 37 133 156Q152 173 191 203T275 267T365 335T444 392Q459 403 480 420T526 456T574 496T616 532T646 560T657 572Q656 574 641 570T605 559T557 543T509 523Q470
506 436 489T376 455T335 425T318 401Q316 390 309 381Q301 374 294 380T281 399T275 428T278 459Q282 469 287 478T302 496T327 517T367 546Q477 624 575 670T746 724Q781 728 794 720T813 683Q814 673 814 666T813 651T809 634T802 611Q797 597 794 589T787 574T778
561T765 548Q756 539 729 520T672 481Q633 455 582 419T481 345T388 273T322 219Q291 191 256 156T191 90T145 37T133 15Q135 15 166 26T239 52Q300 74 343 88T419 111T474 123T518 127Q550 127 562 117T578 78Q580 63 579 46T574 14T565 -14T552 -33Q543 -41 540
-41T529 -34Q517 -24 507 -18T487 -9T465 -4T437 -3Q367 -3 277 -34Q261 -39 240 -47T195 -64T148 -82T107 -100T77 -114T64 -121Q61 -135 38 -117Z" />
<glyph unicode="3" glyph-name="three" horiz-adv-x="608" d="M48 -116Q36 -109 27 -95T13 -63T8 -25T13 14Q16 25 18 32T25 47T35 62T53 84Q67 99 83 116T111 141Q147 167 197 195T297 244Q349 266 369 269T395 258Q400 245 396 237T381 229Q367 229 338 217T275
185T207 141T148 95Q134 82 121 68T96 40T79 18T72 5Q73 0 88 0T127 4T178 15T231 34Q289 57 345 89T451 159T541 240T607 324Q614 335 617 341T621 350T621 357T616 364Q607 375 589 382T546 393T494 396T441 388Q421 383 410 382T392 380T382 385T376 396Q371
409 373 420T387 442T421 467T480 501Q506 515 522 525T537 538Q531 540 507 532T451 512T391 486T346 462Q335 455 327 447T316 433Q310 421 304 419T294 421T288 438T289 466Q294 502 331 542T429 620Q481 652 530 672T619 698T685 696T718 665Q721 651 720 633T712
596T697 563T676 538Q670 534 651 524T611 502L558 475L588 471Q633 466 654 448T681 395Q685 358 674 314T640 224T582 132T504 47Q457 6 398 -31T282 -92Q249 -105 214 -113T146 -125T88 -127T48 -116Z" />
<glyph unicode="4" glyph-name="four" horiz-adv-x="495" d="M258 -126Q244 -117 234 -104T218 -75T211 -43T214 -12Q217 -4 230 20T262 73T298 132T328 180Q337 193 343 202T348 212Q347 214 333 208T297 190T253 166T211 140Q200 133 188 124T162 106T138 87T118
71Q100 55 87 46T69 36Q64 36 56 44T38 65T22 91T14 113Q13 121 15 133T20 157Q27 178 52 208T124 282T241 385T408 521Q466 567 520 611T611 687L631 704L637 690Q645 676 642 658T625 623Q623 620 612 608T582 579T541 540T494 495Q431 437 382 390T298 309T248
257T235 239Q236 239 249 244T283 258Q303 266 328 275T373 290L415 304L448 347Q454 356 464 369T485 398T509 430T533 462Q556 493 575 517T600 546Q627 567 634 511Q635 494 635 481T628 454T608 421T571 375Q547 346 531 327T502 288T475 245T441 186Q426 160
417 142T400 107T385 70T366 18Q355 -14 349 -33T339 -63T336 -81T338 -95Q342 -119 334 -128T301 -137Q275 -137 258 -126Z" />
<glyph unicode="5" glyph-name="five" horiz-adv-x="586" d="M68 -149Q48 -141 34 -118T12 -59Q5 -10 26 41T101 148Q112 160 125 171T151 189T174 200T188 200Q195 193 185 172T140 104Q100 51 88 29T83 4Q101 0 137 9T218 36T310 78T395 130Q413 142 432 156T467
185T494 210T507 226Q508 230 502 234T486 244T462 253T434 259Q421 261 394 263T342 267Q322 268 310 269T290 269T280 267T275 262Q269 254 261 255T243 264T227 285T217 315Q209 353 235 398T325 506Q341 522 350 531T364 548T373 562T379 580Q382 590 384 596T390
607T397 615T409 624Q426 636 465 648T558 669Q582 673 611 674T669 675T719 671T751 664Q761 658 765 645T769 616T760 582T739 549Q724 532 718 531T708 543Q707 553 703 556T689 559Q672 559 634 551T523 522L443 501L406 458Q394 443 382 428T361 400T345 378T338
366Q338 365 364 365T426 364Q456 364 474 364T503 362T521 358T537 351Q600 323 588 224Q586 211 581 194T568 159T550 122T529 87Q513 64 490 40T439 -8T381 -53T321 -92Q290 -109 252 -123T176 -147Q136 -156 114 -156T68 -149Z" />
<glyph unicode="6" glyph-name="six" horiz-adv-x="522" d="M143 -129Q106 -118 74 -88T27 -24Q5 33 26 113T108 288Q124 312 148 343T201 408T258 471T311 523Q336 546 356 563T394 593T430 619T471 645Q513 670 547 683T607 696Q622 696 629 693T645 676Q654
664 655 657T651 635Q649 627 648 623T644 616T637 613T625 612Q617 612 606 609T585 602Q572 597 548 581T497 545T443 503T400 465Q386 451 371 434T342 402T320 376T309 361Q309 357 343 370Q358 377 374 382T407 392T437 398T461 401Q468 401 480 397T504 387Q539
367 555 323T560 223Q552 178 523 128T453 31T363 -54T265 -113Q224 -130 196 -133T143 -129ZM223 19Q239 26 262 40T313 74Q331 87 343 97T366 117T388 139T413 168Q461 225 482 268T492 328Q489 332 477 334T448 336T412 332T376 323Q334 309 309 301T271 287T252
277T242 267Q231 255 219 234T193 185T169 129T149 75Q141 49 135 28T130 5Q131 1 140 1T163 2T193 8T223 19Z" />
<glyph unicode="7" glyph-name="seven" horiz-adv-x="513" d="M84 -135Q52 -121 32 -98T8 -48Q6 -32 11 -10T26 37T53 88T89 140Q110 167 151 206T246 294T366 395T503 504Q523 518 535 528T545 539Q538 539 515 535T463 526T403 514T352 501Q320 492 301 487T272
477T259 470T257 464Q262 457 256 441T239 418Q227 409 216 412T196 429T185 462T186 507Q188 527 195 542T216 571T251 595T305 620Q336 632 376 643T460 662T549 676T635 682Q662 683 672 681T692 672Q714 655 704 622T656 554Q650 548 635 535T599 504T556 467T513
431T476 401T452 381Q445 376 428 360T391 323T349 280T313 242Q274 197 238 147T176 46Q150 -4 137 -37T130 -71Q133 -71 137 -75T147 -85Q153 -96 151 -110T139 -130Q126 -135 110 -137T84 -135Z" />
<glyph unicode="8" glyph-name="eight" horiz-adv-x="536" d="M117 -137Q108 -135 96 -128T73 -112T52 -94T37 -75Q32 -66 27 -52T18 -25Q15 -15 14 -9T13 4T16 20T24 44Q34 69 42 83T64 114Q75 129 95 150T140 194T192 241T245 285Q275 310 290 322T310 341T313
352T305 366Q291 393 291 423T303 484T341 544T402 597Q425 613 458 628T525 657T590 678T640 686Q664 686 686 675T717 648Q720 641 720 630T720 607T717 584T710 566Q691 532 584 458L517 411L532 397Q564 365 569 313T550 205Q521 142 480 86T391 -15T290 -91T185
-134Q158 -141 146 -141T117 -137ZM178 -8Q194 -3 217 7T257 26Q274 35 295 49T338 78T377 110T408 139Q421 153 435 171T462 209T484 245T499 273Q506 293 506 298T494 308Q479 315 459 315T425 308Q418 304 409 302T394 300Q382 300 360 284Q341 269 316 245T264
193T211 134T162 76T125 26T105 -9Q102 -16 105 -18T120 -20Q128 -20 145 -17T178 -8ZM398 403Q402 408 408 413T421 420Q423 421 439 432T479 459T530 494T581 531T621 560T640 575Q642 578 633 576T608 570T572 558T534 543Q511 533 488 521T444 494T408 466T383
440Q372 423 371 418T374 404Q379 392 384 392T398 403Z" />
<glyph unicode="9" glyph-name="nine" horiz-adv-x="520" d="M33 -148Q22 -138 18 -123T18 -92Q20 -85 21 -82T26 -76T34 -73T49 -70Q60 -68 73 -65T94 -58Q106 -53 129 -38T178 -2T229 39T270 75Q285 90 302 108T333 142T356 169T365 182Q364 183 353 179T326
168Q285 151 249 144T192 142Q157 152 135 183T108 262Q106 278 108 298T117 341T134 385T158 429Q182 467 211 502T273 566T341 618T411 656Q424 662 433 665T451 670T469 672T491 673Q505 673 514 673T530 670T545 665T564 654Q610 626 633 589T657 501Q657 487
653 464T641 415T624 363T604 318Q587 286 564 252T513 181T454 110T390 44Q335 -10 280 -52T176 -120T90 -154T33 -148ZM298 219Q319 226 343 233T382 246Q397 251 408 256T428 271T446 297T470 338Q479 355 490 382T511 437T529 490T539 526Q541 537 538 539T519
540Q491 538 458 525T391 489T322 436T255 368Q232 341 216 316T190 268T179 230T185 207Q188 204 199 203T227 204T261 209T298 219Z" />
<glyph unicode=":" glyph-name="colon" horiz-adv-x="206" d="M-29 -40Q-39 -26 -42 -2T-42 43Q-40 53 -33 65T-16 91T5 116T29 137Q40 145 50 150T62 156Q65 156 69 151T78 139T87 124T92 108Q94 102 94 91T91 69Q89 61 88 56T83 46T73 33T55 13Q41 -1 31 -14T18
-33Q13 -43 6 -50T-10 -57Q-17 -57 -29 -40ZM134 256Q123 270 119 294T118 338Q120 348 127 361T145 387T167 412T191 432Q203 440 212 445T224 451Q227 451 232 447T241 435T250 420T255 404Q257 397 257 386T254 365Q252 357 251 352T246 341T235 328T216 308Q203
294 193 281T180 262Q175 252 167 245T152 238Q150 238 145 243T134 256Z" />
<glyph unicode=";" glyph-name="semicolon" horiz-adv-x="210" d="M-38 -75Q-44 -64 -40 -54T-18 -29Q-5 -18 -4 -12T-9 15Q-20 47 -11 72T33 123Q70 152 93 141T118 82Q119 63 111 42T82 0Q74 -11 58 -26T26 -55T-5 -78T-23 -88Q-25 -88 -30 -84T-38 -75ZM138
256Q127 270 121 294T116 338Q117 348 123 361T139 387T159 412T182 432Q192 440 202 445T214 451Q217 451 222 447T232 435T241 420T248 404Q250 397 250 386T249 365Q248 357 247 352T243 341T234 328T218 308Q205 294 196 281T184 262Q180 252 173 245T157 238Q155
238 150 243T138 256Z" />
<glyph unicode="&lt;" glyph-name="less" horiz-adv-x="231" d="M198 240Q190 224 169 211T121 190Q110 187 103 185T96 180Q96 177 110 164T141 135T174 107T193 94Q198 94 198 90Q198 87 194 82T185 72T174 62T165 58Q161 58 149 67T121 91T89 120T63 149Q52
162 43 171T29 183Q18 187 21 198T38 225Q49 238 62 245T105 262Q134 272 147 279T170 298Q178 306 183 313T188 323Q188 329 195 328T205 320Q208 314 208 303T208 281T205 258T198 240Z" />
<glyph unicode="=" glyph-name="equal" horiz-adv-x="457" d="M375 228Q363 229 343 231T306 235Q297 236 281 236T243 237T199 237T151 236L37 232L34 252Q29 301 48 314Q56 320 78 324T132 332T205 336T290 337Q336 336 363 335T406 330T427 322T433 308Q436
282 429 259T411 230Q407 228 397 228T375 228ZM365 90Q353 91 333 92T296 96Q287 97 271 97T233 97T189 97T141 96L27 91L24 111Q18 158 37 173Q45 179 67 184T122 192T194 196T280 198Q325 197 353 196T396 191T416 183T423 170Q425 144 419 121T401 92Q398 90
387 90T365 90Z" />
<glyph unicode="&gt;" glyph-name="greater" horiz-adv-x="241" d="M56 240Q54 247 54 258T55 280T60 303T68 320Q72 326 79 327T85 323Q85 321 88 314T97 298Q105 287 116 280T154 262Q181 252 192 245T212 225Q223 209 223 198T211 183Q206 181 195 172T169
149Q155 136 136 121T98 91T64 68T45 58Q42 58 38 62T29 71T22 82T20 90Q20 94 25 94Q28 94 46 106T86 134T124 163T143 180Q144 182 138 184T121 190Q95 197 78 210T56 240Z" />
<glyph unicode="?" glyph-name="question" horiz-adv-x="689" d="M61 -195Q47 -181 36 -160T22 -121Q21 -109 26 -90T41 -51T61 -15T81 7Q93 14 106 6T130 -22Q144 -47 144 -66T132 -109Q127 -119 121 -134T112 -162Q107 -185 103 -197T94 -212T81 -212T61 -195ZM129
36Q115 50 108 71T99 115Q99 128 104 143T127 180T174 236T253 320Q259 327 272 339T302 368T338 402T377 439Q396 457 415 475T452 510T483 540T504 561Q517 575 531 592T558 624T578 652T586 668Q587 674 568 678T521 684T463 684T412 677Q386 671 359 660T305
635T254 604T212 570Q194 553 190 546T186 526Q187 512 181 500T166 487Q158 487 145 505T123 543Q115 566 118 593T136 647Q143 658 159 676T195 712Q209 724 219 733T241 749T266 763T299 779Q370 811 437 824T556 828Q601 820 625 800T663 739Q667 728 669 721T671
705T670 685T667 655Q665 638 664 627T660 607T654 592T646 577Q632 554 597 522T494 438Q372 345 299 265T194 110Q181 80 174 62T162 35T155 23T150 20Q148 20 142 24T129 36Z" />
<glyph unicode="@" glyph-name="at" horiz-adv-x="736" d="M254 -200Q214 -186 176 -163T105 -106Q59 -59 39 -12T19 97Q19 151 35 204T87 321Q114 369 150 410T229 482T318 533T413 561Q461 568 505 558T587 521T654 455T701 363Q706 348 709 338T713 317T715
292T714 256Q713 236 712 222T710 197T706 176T699 154L686 116L698 93Q704 81 707 72T709 54T702 33T685 6Q662 -28 640 -55T593 -104T540 -145T477 -181Q453 -193 425 -200T367 -210T308 -211T254 -200ZM345 -125Q369 -120 398 -109T454 -83T506 -52T545 -19L560
-4H547Q534 -4 514 7T473 35T437 70T418 101Q413 124 408 124T381 98Q368 83 354 68T326 39T302 17T285 3Q277 -3 272 -2T249 10Q228 23 210 45T187 87Q183 100 184 118T192 157T208 199T231 240Q242 256 257 273T290 306T325 335T356 355Q402 378 433 371T489
325Q494 317 497 311T501 298T503 280T503 254Q502 225 500 210T489 175Q481 156 479 144T478 114L479 85L503 86Q526 87 548 100T589 135T623 189T647 259Q652 282 652 306T649 353T635 395T614 427Q593 449 566 457T493 463Q436 461 387 438T285 365Q250 333
220 289T169 196T136 99T128 12Q133 -47 157 -79T229 -123Q255 -129 287 -129T345 -125ZM351 146Q365 157 384 173T417 203Q436 222 442 231T450 254L452 277L436 268Q422 261 406 247T373 213T341 173T315 130Q307 116 314 119T351 146Z" />
<glyph unicode="A" glyph-name="A" horiz-adv-x="931" d="M1117 562Q1101 547 1079 526T1033 479T986 428T943 379T911 338T895 310H907Q912 310 918 310T929 308Q943 306 963 303T1002 296T1034 285T1047 271Q1047 266 1043 258T1032 242T1018 227T1005 218H1004V220Q1002
223 999 227T989 234T971 240T942 243Q934 243 921 242T899 240H893L837 236L805 190Q767 136 743 93T705 16T684 -42T673 -81Q670 -97 668 -104T659 -111Q639 -111 624 -102T598 -78T581 -46T575 -12Q575 7 582 27Q585 37 603 64T644 121T688 177T718 213Q725
220 725 223T723 226T714 227T705 226H701Q693 225 675 223T635 218T595 210T567 201Q473 121 395 45T261 -94Q242 -115 229 -132T205 -166T186 -198T172 -232Q161 -261 156 -271T144 -282Q135 -282 123 -274T100 -254T82 -226T74 -195Q74 -139 144 -58T342 132Q348
137 356 144T370 157T377 168T372 172Q364 173 338 170T281 161Q154 138 89 138Q58 138 39 143T8 158T-7 185T-11 222Q-11 245 -4 264T18 283Q26 283 37 281T61 276Q80 272 104 269T156 265Q185 265 228 268T330 276L357 278L389 281Q440 285 475 290T534 302T576
318T611 341L630 355Q682 393 729 423T820 480T907 529T997 575L1061 608L1092 624Q1114 635 1127 644T1141 659Q1137 663 1134 663T1123 664Q1110 664 1081 662T1018 655T950 646T890 637Q807 621 730 599T592 551T495 496T455 437Q454 427 451 419T441 411Q430
411 419 428T408 488Q408 548 463 591T628 669Q672 682 719 692T813 709T906 720T992 724Q1032 724 1069 721T1135 710T1180 692T1197 666Q1197 645 1173 619T1117 562ZM944 449Q961 465 976 481T997 506Q992 504 970 490T916 456T851 413T786 370T734 336T710
318Q712 313 729 312T763 311H802L867 378Q879 390 887 398T903 413T917 426T932 439L945 449H944Z" />
<glyph unicode="B" glyph-name="B" horiz-adv-x="828" d="M897 448Q877 411 822 376T691 313L613 288L667 270Q712 252 736 210T755 117Q749 56 709 -2T605 -110T459 -201T285 -267Q270 -271 251 -274T213 -279T175 -283T141 -284Q111 -284 83 -273T34 -242T1
-199T-8 -148Q-5 -123 9 -96T44 -45T91 -6T144 9Q151 9 155 1T158 -15Q157 -20 155 -24T147 -31Q119 -42 98 -61T61 -101T38 -141T29 -170Q27 -184 39 -186T69 -189H73Q103 -189 141 -184T213 -170H215Q216 -170 216 -169Q218 -168 220 -168V-162Q219 -162 219
-162T218 -161L212 -155Q203 -155 200 -143T199 -118Q202 -86 221 -45T270 42T335 135T404 226Q441 274 485 325T570 419T640 489T674 517Q679 517 683 506T685 480Q683 468 675 456T649 426Q638 415 624 398T598 365T577 335T568 319Q576 319 599 329T651 355T707
386T753 414Q791 439 816 461T856 501T878 533T886 556Q888 575 873 588T831 609T768 620T690 624Q652 624 611 621T530 613T454 601T389 587L381 585Q377 585 373 583Q336 573 288 558T195 524T119 482T85 431Q85 426 85 422T87 412Q87 411 88 410Q88 409 89 409L90
401Q92 397 92 396Q91 392 83 392Q68 392 59 400T43 422T35 451T35 482Q39 520 69 553T148 613T256 661T380 698T505 720T616 728Q684 728 742 718T841 684T903 619T918 518Q916 501 911 483T897 448ZM645 209Q613 220 579 228T522 236H496L464 188V189Q441 155
414 107T362 10T320 -78T301 -135Q300 -142 303 -144T312 -147Q346 -141 389 -123T476 -80T562 -24T638 35T693 91T716 137Q718 154 699 175T645 209Z" />
<glyph unicode="C" glyph-name="C" horiz-adv-x="752" d="M799 500Q773 473 750 442T709 383T681 332T670 297Q670 291 670 288T672 283Q672 282 672 281T673 279Q675 269 675 267Q675 260 670 254T659 244Q647 246 638 256T621 281T609 311T605 341Q605 360 622
389T667 451T727 516T792 572Q818 592 832 607T847 627Q847 641 823 641Q804 641 762 627T665 586T548 518T426 424Q410 410 385 385T332 328T275 255T223 172T185 81T170 -13Q170 -41 178 -70T203 -124T249 -164T318 -181Q360 -181 414 -156T525 -93T635 -11T727
72Q732 77 737 82T743 87Q748 87 751 83T755 74Q755 71 752 67T747 58Q696 2 633 -58T507 -168T389 -250T298 -283Q265 -283 229 -266T160 -222T102 -163T66 -100Q55 -73 50 -46T45 10Q45 67 63 127T113 247T189 364T285 475Q406 597 521 660T724 724Q759 724 790
713Q802 707 816 694T843 665T865 633T874 603Q874 592 857 569T799 500Z" />
<glyph unicode="D" glyph-name="D" horiz-adv-x="1036" d="M1053 464Q1052 456 1051 448T1049 431Q1029 311 955 193T749 -33Q683 -89 601 -139T432 -227T259 -288T97 -311Q82 -311 64 -302T31 -274T9 -226T7 -157Q8 -152 8 -147T11 -137V-138Q15 -115 34 -88T82
-34T143 19T209 66T270 102T317 122Q322 124 324 117T324 101Q324 99 322 96T312 88T292 75T254 54Q215 33 183 8T126 -42T85 -91T63 -135Q57 -172 132 -172Q173 -172 210 -163T278 -142T333 -121T373 -109Q383 -104 400 -96T429 -82L453 -71Q560 -21 654 37T821
156T939 276T993 390Q1000 436 986 477T942 548T870 596T781 614Q728 614 657 600T510 562T364 505T238 435Q221 424 211 409T193 381T181 358T172 349Q167 349 163 360T154 386T148 419T145 447Q147 479 159 502T182 541V540Q206 570 247 597T342 647T455 688T575
719T691 738T794 745Q871 745 923 728T1005 675T1047 587T1053 464ZM782 647Q772 641 750 618T699 562T635 487T567 405T503 324T451 254Q381 154 333 73T261 -78Q252 -105 256 -125T272 -159T304 -180T347 -187Q354 -187 358 -180Q358 -178 358 -174T358 -166Q357
-158 358 -146T365 -115Q384 -56 420 17T503 168T605 326T716 475Q749 516 765 540T788 585Q798 615 797 632T787 649Q785 649 782 646V647Z" />
<glyph unicode="E" glyph-name="E" horiz-adv-x="777" d="M772 198Q774 203 778 203Q783 203 788 194T791 168Q789 152 780 132T754 91Q737 71 711 43T651 -17T582 -82T512 -144T446 -198T392 -238Q350 -264 311 -277T236 -291Q185 -291 143 -265T72 -201T28 -118T17
-36Q23 26 55 85T139 195T263 285T420 348L469 364L408 398Q370 418 350 451T336 541Q338 563 353 585T392 626T445 663T506 692T566 712T620 719Q640 719 658 716T688 708Q702 700 718 688T749 661T775 632T790 608Q796 586 793 562Q791 549 789 539T781 523Q752
496 735 463T707 402Q700 385 694 374T686 362Q676 362 666 376T648 409T636 449T633 482Q635 505 651 532T689 585L729 629L683 623Q664 620 635 607T575 577T515 539T466 501L438 473L476 442Q496 429 514 418T548 398Q578 380 596 366T613 337Q612 325 600 315T572
305Q551 305 525 299T470 282T412 256T356 223Q300 185 257 141T184 52T137 -38T116 -119Q113 -142 131 -148T187 -154Q216 -154 244 -151T292 -140Q348 -119 415 -82T548 2T672 99T771 198H772Z" />
<glyph unicode="F" glyph-name="F" horiz-adv-x="611" d="M717 590L708 564Q701 544 681 517T617 441Q588 406 572 386T551 355Q557 352 579 357T625 365Q643 367 652 360T664 342T665 318T658 296T647 283T637 288Q639 294 635 299T615 305Q596 305 573 301T527
292L491 284L468 255Q464 249 458 242T448 228Q420 189 387 138T323 36T268 -62T232 -138Q225 -155 223 -166T221 -185V-188Q221 -193 220 -197T219 -202Q218 -204 216 -206T213 -209Q188 -208 167 -201T132 -180T114 -148T119 -105Q140 -53 170 -1T239 106T322
222T418 351Q449 394 481 430T542 494T595 545T638 584Q623 582 607 580T571 573Q411 543 310 505T150 423Q137 414 129 407T118 390L115 385Q115 383 115 381T114 377Q112 369 110 365Q107 359 108 352T111 339T115 329T116 325Q108 325 101 339T89 374T85 418T92
458Q108 496 148 530T246 594T378 647T531 687T695 712T861 721Q895 721 930 719T997 713Q1068 702 1108 688T1166 656T1184 619T1176 578Q1168 561 1156 546T1135 525Q1138 534 1113 545T1046 568T950 586T842 594H805Q802 594 799 594T792 593L717 590ZM113 499Q170
558 261 599T464 666Q417 634 372 599T286 532T215 475T166 438L124 410L153 380Q167 366 184 351T212 325Q248 293 266 265T291 216T299 183T299 171L261 110Q259 112 254 106T242 91T232 75T229 70L232 79L195 120Q192 120 195 125L202 134Q204 136 205 137T207
139Q211 143 216 152Q224 163 217 178T179 226Q108 301 89 365T95 473Q97 477 102 485T113 499Z" />
<glyph unicode="G" glyph-name="G" horiz-adv-x="793" d="M798 677Q806 672 812 657T817 633Q816 625 809 603T792 554L787 541Q776 510 768 482T757 440Q756 430 758 423T762 410V411L764 406Q766 401 767 397T768 388Q767 382 763 378T754 373Q742 373 728 380T701
398T677 424T662 452Q660 461 659 471T658 492Q661 521 674 550T707 605Q710 610 717 619T730 637T742 653T748 663Q743 663 726 656T687 639T646 619T614 602Q489 529 389 433T220 220Q198 181 183 149T157 85T140 20T129 -54Q126 -78 126 -94T130 -120T140 -135T155
-145Q179 -154 210 -154Q261 -154 341 -116T524 -9Q550 9 575 28T620 63T652 92T665 109Q666 116 648 119T600 123Q509 123 434 92Q413 83 405 69T393 44Q389 37 392 37Q386 37 382 45T374 68T369 100T370 137Q371 149 372 156T377 168T385 178T400 192Q415 206
439 218T492 239T554 253T620 258Q689 258 714 232T733 148Q731 128 728 113T719 84T703 55T675 21Q663 5 638 -20T584 -74T524 -129T470 -176Q410 -223 353 -247T244 -272Q189 -272 146 -240T75 -159T34 -49T27 67Q39 184 115 313Q145 363 186 413T275 509T377
595T484 664T590 711T689 728Q743 728 767 701Q775 693 784 687T798 677Z" />
<glyph unicode="H" glyph-name="H" horiz-adv-x="774" d="M973 744Q977 743 981 736T988 717T993 694T996 673Q996 665 993 652T988 631Q986 625 990 627T999 635T1007 644T1006 644T989 624T947 575Q931 556 912 532T871 480T830 427T793 380T767 344T755 327Q753
319 759 314T774 307Q784 303 794 297T799 276Q794 259 788 248T776 233Q774 234 765 236T739 239H725Q709 239 699 237T678 225T652 191T610 128L598 109Q549 32 511 -30T444 -142T395 -233T361 -306L341 -360L361 -365Q369 -367 373 -373T374 -386Q372 -392 366
-401T351 -417T334 -430T317 -436Q295 -436 280 -419T264 -380Q263 -372 263 -365T266 -345T275 -315T291 -265Q301 -236 309 -215T325 -174T343 -136T365 -94Q376 -74 392 -47T428 11T467 72T504 130L524 162Q537 182 547 198T560 219Q562 226 560 227T550 228Q543
228 527 226T489 221T445 213T401 205T367 198T351 193Q348 190 338 175T313 137T282 87T252 35T226 -11T209 -43Q209 -44 207 -46Q201 -55 201 -62Q197 -72 198 -82T202 -103V-102L204 -109Q205 -114 205 -119T205 -128Q203 -133 200 -140T192 -154T183 -165T175
-170Q168 -170 149 -159Q117 -142 104 -115T101 -52Q107 -36 116 -15T138 31T165 79T195 126Q196 129 205 139T216 154Q215 154 209 152T196 147T181 142T169 138L157 134Q90 110 60 93T22 67Q20 69 20 76T20 94T23 116T29 137Q35 155 46 170T80 197T140 222T238
249L301 264Q309 273 321 287T341 311Q362 335 389 365T446 425T503 485T554 537T590 574T604 588Q608 604 593 604Q567 604 524 594T431 568T329 532T231 491T153 451T109 417L102 408L97 400Q92 393 88 387T81 380Q70 380 64 391T56 417T55 450T60 481Q66 495
76 509Q93 530 129 554T212 602T312 648T419 687T519 714T602 724Q647 724 664 690T665 600Q660 587 656 578T640 552T607 510T546 436Q524 409 505 384T470 339T446 307T436 293Q446 293 461 294T491 298Q493 298 496 298T501 299Q522 302 545 305T583 309L632
314L687 394Q739 472 786 536T870 647T934 718T971 744H973Z" />
<glyph unicode="I" glyph-name="I" horiz-adv-x="404" d="M628 657Q624 647 620 639T608 618T584 588T545 540Q486 471 429 388T322 217T230 45T164 -113Q155 -138 148 -163T136 -210Q135 -213 135 -216T133 -223Q127 -249 122 -263Q118 -274 116 -274Q109 -274
97 -269T72 -255T47 -236T27 -216Q13 -197 13 -176T24 -123Q39 -81 74 -16T161 127T276 291T411 464Q429 486 445 506T474 543T495 570T504 584Q503 591 483 583T437 557Q413 540 391 524T352 491T323 462T307 439V434Q304 427 301 422T296 417Q286 417 280 429T272
458T271 494T278 529Q296 580 359 630T523 723Q546 733 567 740T595 748Q623 748 632 722T628 657Z" />
<glyph unicode="J" glyph-name="J" horiz-adv-x="576" d="M485 744Q541 770 579 782T645 795Q671 795 691 780T724 740T742 686T745 626Q743 606 735 583T710 529T665 455T599 353Q549 279 511 218T444 102T395 0T361 -95Q353 -121 349 -140T342 -175Q340 -193
344 -210T353 -239L356 -249Q359 -255 359 -258Q357 -276 349 -289T335 -302Q332 -302 320 -297Q264 -275 233 -243T205 -171Q207 -157 211 -140Q214 -130 220 -113T234 -76L246 -44L254 -24Q262 -5 262 6Q255 11 251 11T244 10L235 8L224 4Q220 4 222 9Q222 12
225 20Q225 22 225 23T226 25Q228 29 230 41Q232 53 221 65T175 98Q94 145 57 198T25 300Q25 305 27 314T31 330Q52 392 98 452T206 565T341 665T490 747L485 744ZM512 398Q531 428 555 467T600 541T636 603T651 633Q652 641 649 642T641 643Q632 643 602 633T535
608T458 576T392 544Q348 519 302 486T216 419T143 351T94 291L70 251L103 233Q120 225 138 216T167 202Q207 184 231 164T268 127T285 98T289 87L288 69Q298 69 332 124L354 162H352Q357 168 368 183T398 225T445 295T512 398Z" />
<glyph unicode="K" glyph-name="K" horiz-adv-x="872" d="M866 12Q869 12 874 5Q875 -5 874 -21T867 -55Q856 -93 825 -127T755 -187T678 -228T611 -243Q563 -243 528 -199T460 -81Q455 -68 449 -52T435 -22T422 5T412 24Q404 37 394 50T373 74T353 92T340 99Q336
99 318 72T275 4T228 -85T192 -177Q186 -199 184 -215T179 -242Q178 -250 178 -257T175 -271Q172 -281 169 -288T163 -295Q161 -295 156 -292T145 -286L146 -287Q118 -261 103 -222T99 -142Q112 -103 146 -42T232 94Q245 115 256 132T282 168T316 214T366 279L466
399Q488 425 508 449T544 492T571 527T586 551L598 576L562 582Q557 583 551 583T537 583Q499 583 450 575T349 552T246 521T155 485T88 449T57 418Q55 416 54 411T53 403Q52 400 52 396L50 392Q47 377 44 377Q36 377 30 388T20 415T16 449T19 484Q24 502 30 511T48
531Q71 553 120 580T229 633T351 680T462 713Q482 718 508 720T554 723Q571 723 586 722T610 718Q644 707 653 665T645 564Q636 535 617 503T562 423Q531 383 500 342T444 265T403 206T385 176Q407 176 449 192T542 235T647 300T746 378Q777 407 811 443T876 516T931
584T966 636Q977 659 992 684T1023 732T1050 768T1069 782Q1084 782 1092 768T1105 734T1108 689T1100 644Q1089 610 1061 571T991 489T897 403T785 317Q735 284 677 250T569 188T486 143T452 126L434 124Q434 122 443 111T466 84T497 50T532 15T565 -16T590 -37Q627
-63 671 -79T750 -95Q761 -95 771 -93L799 -89Q799 -86 802 -79T806 -67Q808 -62 809 -57T813 -47Q823 -18 837 -3T866 12ZM874 4Q873 4 874 5V6L880 7L874 4Z" />
<glyph unicode="L" glyph-name="L" horiz-adv-x="772" d="M766 -7Q802 -11 824 -16T858 -29T873 -44T875 -60Q870 -85 858 -99T834 -114Q833 -114 833 -112Q833 -110 835 -106Q837 -104 837 -102Q839 -92 829 -87T783 -82Q771 -82 757 -82T733 -85Q707 -89 674
-96T605 -113T535 -131T474 -150T430 -166T412 -177Q410 -183 396 -188T370 -194H366Q363 -194 363 -194T361 -193Q351 -192 333 -199T281 -221Q252 -233 217 -251T149 -290T87 -329T44 -365Q41 -368 35 -358T23 -332T14 -299T13 -270Q17 -252 35 -230T81 -186T145
-144T220 -108L271 -88L286 -36Q303 18 341 92T432 249T545 416T671 574H669Q717 627 751 661T809 716T848 745T872 753Q889 753 897 728T898 668Q893 642 880 608T851 537T816 465T782 401T752 356T734 339Q730 339 727 346T720 362T715 379T712 391Q710 408 713
419T720 437T729 446T736 449Q738 449 747 461T768 491T795 532T820 575T840 610T849 630Q847 630 834 614T801 573T755 515T707 452T662 392T629 345Q608 314 588 282T548 219T513 161T486 114Q476 96 465 73T443 29T426 -10T417 -34Q422 -41 446 -37T498 -26Q523
-22 552 -18T609 -11T665 -7T712 -5Q727 -5 741 -5T766 -7Z" />
<glyph unicode="M" glyph-name="M" horiz-adv-x="1115" d="M1084 92Q1113 112 1119 112Q1123 112 1125 106T1125 91Q1126 94 1124 89T1116 77L1109 66Q1107 62 1107 62L1087 29Q1064 -6 1044 -32T1002 -58Q990 -58 974 -52T943 -36T914 -13T891 14Q880 32 876
53T875 105T894 178T937 279Q939 283 940 286T943 294Q940 294 925 280T885 241T831 186T771 123T712 58T662 1L614 -59Q608 -57 600 -57Q575 -53 556 -38T525 -1T512 46T518 97Q529 131 563 192T646 331Q658 349 669 368T691 402T707 429T715 444Q713 447 700
437T667 407T623 362T575 309Q486 203 402 94T247 -117Q224 -150 210 -170T186 -203T169 -221T155 -231L139 -241Q93 -211 74 -174T71 -91Q79 -66 96 -34T135 32Q155 61 186 103T253 192T326 288T397 379Q418 406 438 432T474 479T501 516T515 537L530 564L488
560Q465 558 430 549T356 525T278 493T206 458Q166 436 140 417T98 383T73 357T59 337Q56 334 56 333V332Q48 332 42 342T33 365T29 394T33 421Q43 451 80 489T171 565T287 637T412 693Q450 707 476 713T521 720Q551 720 570 702T597 657T604 598T592 535Q588 524
569 492T523 422Q507 399 484 367T436 296T385 219T335 143T293 77T263 27Q265 23 284 37T327 81Q376 143 438 218T566 369T696 516T812 643T898 731T940 765Q950 765 956 754T963 725T963 688T954 653Q945 624 923 580T860 462L791 341Q768 299 747 260T709 190T682
138T671 112Q676 112 690 124T720 154Q753 190 792 232T872 315T950 395T1018 464T1069 511T1092 529Q1098 529 1108 521T1123 504Q1133 484 1133 462T1123 404Q1120 395 1115 381T1102 351T1087 317T1072 286Q1055 251 1045 230T1029 195T1021 175T1016 161T1011
145T1002 119Q997 102 993 91T989 71L985 46L1023 57Q1036 61 1052 70T1084 92Z" />
<glyph unicode="N" glyph-name="N" horiz-adv-x="898" d="M890 117Q892 111 892 107T886 94Q881 84 869 66T839 27T804 -18T767 -60T734 -92T710 -108Q705 -110 700 -111T689 -112Q635 -112 608 -83T578 -3T593 113T651 251Q664 276 668 285T676 303T688 323T717
368Q731 390 742 409T757 437Q751 437 714 404T621 316T500 195T370 59T249 -71T159 -175Q132 -210 112 -224T90 -239Q88 -238 85 -235Q82 -233 74 -225Q73 -225 72 -224T69 -223H71Q-2 -168 32 -89Q42 -65 61 -32T103 34Q125 64 160 108T237 201T320 302T399 396Q411
411 425 427T452 458Q478 489 496 511T518 538L534 566L489 562Q466 560 431 551T357 527T277 496T202 460Q161 438 134 420T89 386T61 359T46 339Q44 337 44 335V334Q36 334 31 343T24 367T21 396T27 423Q39 453 79 491T174 567T295 640T424 695Q462 709 488 715T534
722Q564 722 581 704T605 658T608 598T592 535Q590 529 581 517T559 487T529 449T494 407Q470 378 443 344T397 283Q375 253 346 210T291 126T244 52T221 11Q219 7 220 2T226 -4Q229 -4 238 4T269 32T327 88T421 182Q466 227 523 283T638 395T749 500T837 581L875
614Q893 630 910 647T943 677T971 699T989 708Q994 708 999 700T1008 679T1014 654T1015 630Q1014 606 1008 593Q1005 585 999 575T980 548L970 535Q912 450 867 371T787 227Q778 210 766 184T746 139Q737 118 728 91T713 40T704 0T705 -17Q712 -17 724 -10T751
9T782 36T815 66Q839 89 861 107T887 126Q887 125 888 123L891 117H890Z" />
<glyph unicode="O" glyph-name="O" horiz-adv-x="853" d="M529 605Q596 668 664 704T787 740Q812 740 834 731T872 701T897 650T906 576Q905 497 874 412T792 243T680 82T555 -55Q513 -92 469 -125T383 -182T300 -221T224 -235Q184 -235 146 -206T79 -135T32 -46T14
38Q15 82 36 142T94 268T177 396T278 509T386 591T493 622Q499 622 501 621L522 605H529ZM599 150Q655 215 703 281T786 408T841 519T861 603Q861 639 849 651T805 663Q778 663 743 647T668 604T589 541T516 466T457 385T420 306L403 248L421 232Q423 230 424 226T425
219Q427 214 420 210Q409 212 400 224T385 255T375 297T371 343Q371 349 372 354T373 362Q373 370 369 373T361 377Q353 377 333 358T288 309T239 245T198 182Q188 163 174 129T146 54T123 -27T113 -98Q112 -125 120 -141T150 -157Q191 -157 247 -131T364 -61T487
38T599 150Z" />
<glyph unicode="P" glyph-name="P" horiz-adv-x="846" d="M953 516Q936 456 904 404T821 305T695 215T521 128Q493 115 467 105T418 86L392 76Q370 68 351 59T323 43Q319 38 310 20T288 -24T260 -84T228 -154Q217 -177 213 -190T208 -212Q207 -217 207 -221T209
-231V-230L211 -236Q211 -237 211 -238T212 -241Q214 -251 214 -253Q214 -258 211 -265T203 -279T193 -290T183 -295Q181 -295 178 -294T166 -290Q128 -281 107 -258T88 -205Q90 -183 103 -153T144 -74Q144 -71 147 -68Q161 -43 178 -13T214 46T250 100T280 142H279L296
164Q317 192 343 226T397 297T455 371T514 444Q569 512 598 542T636 573Q644 573 650 558T655 523Q654 517 632 485T560 386Q528 345 499 306T447 236T411 183T397 158Q400 150 420 157T466 179Q520 205 572 235T670 297T756 358T825 415T871 462T889 494Q889 500
882 509T863 529T837 550T810 566Q780 580 741 587T640 594Q588 594 545 591T463 582T388 566T315 543Q284 531 251 515T188 482T133 448T92 416L68 391V362L67 357Q67 355 67 355T68 353V346Q66 329 61 316T50 303Q42 303 36 317T25 350T18 389T16 421Q18 447
28 471T56 517Q116 572 195 614T362 685T541 728T717 743Q850 743 911 705T965 582Q963 555 953 516Z" />
<glyph unicode="Q" glyph-name="Q" horiz-adv-x="851" d="M732 -61Q766 -78 760 -100Q755 -117 744 -132T721 -158T696 -175T676 -182Q663 -182 665 -176Q667 -169 650 -161T605 -145T544 -133T481 -128Q443 -128 404 -131T318 -144T214 -170T83 -213Q51 -224
35 -229T14 -234Q10 -234 11 -225T20 -186Q38 -126 83 -101L95 -95L116 -84Q116 -84 128 -82T154 -78T180 -73T191 -71Q191 -68 181 -68T154 -67T119 -58T83 -29Q62 -4 50 18T32 64T28 114T40 172Q72 281 148 385T332 576Q358 597 387 615T441 648T487 670T516
679Q522 679 529 675L553 663L604 693Q661 726 708 744T793 762Q830 762 858 742T903 685T920 599T905 490Q891 441 863 387T797 278T712 171T612 77T502 3T386 -40Q425 -30 456 -27T512 -23T552 -23T578 -25Q589 -25 610 -29T655 -39T700 -51T731 -62L732 -61ZM732
-61L737 -59L732 -61ZM609 243Q656 288 697 336T772 429T827 515T859 587Q872 631 864 646T825 661Q797 661 762 648T690 611T615 556T544 491T486 420T446 351L430 308Q433 304 438 300T447 293Q452 288 454 282T455 273Q453 263 440 263Q427 263 416 273T397
299T383 337T378 380V379V386Q378 392 387 408T405 440T421 469T425 482Q422 482 409 468T376 433T334 385T290 331T250 280T223 241Q213 223 202 201T180 155T160 111T147 76Q140 52 139 37T140 14T151 4T172 1Q212 1 267 21T382 76T501 153T609 243Z" />
<glyph unicode="R" glyph-name="R" horiz-adv-x="805" d="M817 -34Q813 -71 786 -104T722 -161T647 -200T581 -215Q533 -215 499 -177T437 -66Q425 -37 413 -12T388 33T366 64T350 76Q342 76 336 74T324 63T308 38T285 -7Q255 -70 239 -103T217 -154Q211 -171
212 -181T216 -198Q221 -208 217 -216Q214 -226 206 -236T191 -246Q187 -246 174 -241Q126 -230 107 -203T104 -127Q107 -118 114 -104T131 -73T149 -40T165 -10Q171 1 174 8T180 18Q181 24 171 34Q167 38 162 44T152 57T146 72T147 88Q149 93 152 96T157 101Q159
98 163 96T175 93Q185 93 199 95T231 118L509 438Q562 498 589 526T625 555Q630 555 634 549T642 534T645 515T642 495Q642 494 635 484T615 458T586 422T552 381Q521 344 494 310T444 247T409 198T393 171Q395 165 415 171T464 191Q539 226 610 268T737 350T831
426T875 481Q877 486 871 495T853 513T827 533T800 549Q769 562 731 568T632 575Q581 575 539 573T458 564T385 549T313 527Q282 516 250 501T187 470T133 438T94 409L68 385L69 359Q68 348 67 338T63 320Q58 306 54 306Q50 306 45 313T35 331T26 356T21 381Q15
422 28 454Q40 488 78 525T172 598T294 663T430 710Q467 720 497 726T559 735T625 739T705 740Q786 740 839 721T920 668T949 584T931 476Q913 425 881 381T800 297T682 220T523 145Q488 129 463 117T437 103Q436 101 454 83T495 42T542 -2T575 -29H574Q607 -52
648 -65T722 -78Q726 -78 732 -78T743 -77L769 -73Q780 -65 794 -54T817 -34Z" />
<glyph unicode="S" glyph-name="S" horiz-adv-x="734" d="M804 682Q808 681 813 674T821 656T825 633T824 611Q820 597 809 577T774 528Q755 502 744 481T724 446Q720 438 715 431T707 424Q704 424 699 429T688 443T678 462T671 483Q670 494 670 505T673 528Q679
553 696 582T739 639Q753 651 754 658Q757 670 740 670Q731 670 711 663T666 645T613 618T557 584Q543 576 524 560T486 528T455 499T441 482Q439 477 450 466T475 444Q587 363 634 286T662 130Q653 95 632 59T581 -14V-13Q546 -50 494 -87T382 -155T263 -205T158
-224Q128 -224 100 -207T49 -161T14 -96T4 -22Q9 9 21 33T50 79Q61 95 78 113T115 151T157 189T202 225Q220 237 240 247T278 264T310 275T330 279Q336 279 339 274T345 264Q342 259 339 256T328 249Q314 242 291 226T243 189T195 148T157 110Q122 69 102 36T71
-33L60 -78L106 -77Q153 -76 207 -60T316 -19T423 39T519 104Q570 142 592 167T620 212Q624 227 615 245T586 282T538 317T477 345Q449 355 425 372T384 415T363 474T367 550Q370 562 377 570T395 591L403 597Q434 630 473 658T554 705T639 736T721 747Q746 747
759 733T780 705Q787 697 792 690T804 682Z" />
<glyph unicode="T" glyph-name="T" horiz-adv-x="494" d="M664 646Q667 649 669 649Q677 649 678 632T670 585Q664 565 648 541T598 475Q542 405 487 326T385 169T302 17T247 -115Q241 -134 240 -146T240 -166Q241 -170 241 -174T240 -180Q236 -187 229 -187Q206
-187 187 -180T155 -160T138 -126T143 -78Q166 -8 214 73T333 254Q355 284 385 323T449 404T517 487T580 561T632 618T664 647V646ZM1069 682Q1085 673 1092 661T1102 636T1102 610T1097 585Q1091 566 1079 549T1059 528V529Q1062 538 1035 550T964 573T864 592T754
600Q707 600 672 599T609 595T556 588T507 579Q358 548 249 509T85 424Q71 413 64 406T54 388L51 383V376Q50 372 49 369T47 360Q42 349 38 340T32 331Q24 331 20 345T14 379T15 421T24 460Q37 500 75 536T170 602T298 657T449 698T612 724T777 733Q898 733 970
716T1069 682Z" />
<glyph unicode="U" glyph-name="U" horiz-adv-x="808" d="M956 639Q964 639 968 630T974 608T975 581T969 556Q966 550 954 535T928 499L914 480Q856 405 813 347T736 241T680 156T637 83T600 14T565 -58L525 -145L535 -170L536 -175L537 -176Q539 -182 541 -186T541
-194Q539 -197 534 -202T523 -213T512 -222T504 -226Q500 -226 487 -219Q430 -193 421 -146T446 -23Q453 -8 461 9T478 43T493 71T503 87Q500 93 484 82T448 50Q373 -27 327 -73T254 -143T211 -174T182 -182Q170 -182 156 -176T123 -157Q59 -112 47 -38T84 149Q132
258 213 362T396 559Q420 580 435 596T453 617Q456 624 453 625T445 626Q415 626 375 616T292 591T211 559T144 527L97 500L83 466L79 457Q59 412 39 412Q29 412 28 448T56 552Q82 610 159 648T359 714Q395 721 433 724T500 728Q527 728 549 721T585 698T600 661T590
611Q583 597 567 577T518 521Q397 388 307 260T157 -6Q138 -48 131 -76T133 -104Q156 -104 199 -74T299 6T419 117T546 243T668 366T773 468Q842 556 891 597T956 639Z" />
<glyph unicode="V" glyph-name="V" horiz-adv-x="735" d="M1089 850Q1103 828 1107 790T1104 713Q1095 668 1089 668Q1087 668 1088 669L1082 672H1071L1072 678Q1068 678 1065 677T1054 672V673Q1046 669 1022 648T969 598T912 541T869 494Q799 410 740 333T629
181T532 31T445 -123Q425 -161 413 -183T395 -218T385 -233T381 -237Q377 -237 367 -235T347 -227H348Q334 -217 328 -209T320 -192Q318 -182 314 -169T295 -141Q271 -115 258 -83T241 -9T242 83T260 197Q271 249 285 302T317 401Q325 425 336 452T360 504T382
552T401 589Q404 598 409 608L414 618Q385 616 347 608T270 585T192 554T124 517L82 490L76 456L74 447Q70 427 62 415T43 402Q39 402 34 411T26 438T22 481T29 540Q38 585 71 617Q91 636 128 653T212 684T312 706T417 717Q426 717 435 717T453 718Q458 719 470
719T490 719Q493 717 497 714T506 707T512 702T513 702L512 703Q524 693 531 684T540 664T541 636T535 596Q532 580 525 557T507 505T485 445T461 381Q459 375 456 369T451 357Q439 326 427 294T405 233T388 180T377 142Q371 112 363 70T349 -10T339 -74T337 -101L341
-85Q341 -85 350 -67T376 -18T415 52T462 135T513 220T564 299Q606 359 652 420T744 538T835 647T920 741T993 812T1051 855L1076 867L1089 850V850Z" />
<glyph unicode="W" glyph-name="W" horiz-adv-x="1004" d="M1231 555Q1223 551 1215 548T1198 539T1176 523T1147 494Q1071 410 1012 342T902 211T807 81T716 -64Q678 -129 662 -154T637 -179Q634 -179 628 -176T613 -170L607 -167Q588 -158 576 -155T555 -149T541
-145T530 -135Q508 -107 492 -81T465 -36T454 -4T462 8Q454 8 441 -9T402 -63Q397 -72 390 -81Q367 -115 351 -136T322 -170T299 -186T277 -191Q249 -191 197 -154Q131 -107 113 -37T121 140Q135 192 158 246T213 352T280 454T358 549Q378 569 391 585T406 607Q408
614 404 615T395 616Q365 616 327 606T249 582T175 550T114 517L71 490L64 456L61 447Q49 402 28 402Q24 402 19 411T12 438T10 482T21 542Q36 600 107 638T294 704Q328 711 366 714T434 718Q461 718 484 711T523 688T545 651T544 601Q539 587 525 567T487 511Q450
457 410 392T334 261T269 131T228 20T221 -58T261 -88Q271 -88 292 -67T339 -15T393 54T448 123Q460 137 466 146T478 166T488 192T500 233Q509 266 526 309T565 390T610 455T655 482Q660 482 667 475T682 456T695 431T703 408Q704 403 704 399T702 389Q700 384
697 376T689 356L681 339L678 336Q654 279 635 227T604 129Q596 99 591 61T582 -12T579 -70T582 -94Q587 -94 589 -91T596 -83Q670 56 768 205T987 498Q1045 567 1082 608T1146 673T1193 710T1239 737L1265 749L1276 732Q1290 710 1292 671T1285 595Q1273 550 1267
550Q1264 550 1261 553Q1258 557 1256 558T1249 560Q1244 560 1241 559T1230 554L1231 555Z" />
<glyph unicode="X" glyph-name="X" horiz-adv-x="897" d="M861 67Q863 61 865 58T867 52T868 44T864 30Q854 -8 825 -53T757 -139T672 -205T584 -232Q552 -232 521 -208T465 -143T421 -50T396 58Q394 75 391 86T377 98Q371 97 348 77T296 27T236 -33T184 -89Q149
-129 125 -159T83 -212T57 -252T43 -284Q40 -295 40 -303T40 -318V-317L41 -324Q41 -326 41 -327T42 -331V-334Q39 -346 25 -346Q19 -346 12 -342T-2 -333Q-32 -304 -46 -268T-53 -199Q-44 -164 -23 -128T39 -49T146 48T313 173L390 228L394 253Q395 267 399 295T410
357T422 428T434 493T443 542T447 561L452 577Q448 577 429 569T387 550T340 526T305 507Q270 484 241 461T190 415T151 376T127 347Q124 348 119 354T108 369T98 388T92 407Q90 418 90 430T95 457Q99 473 108 489T132 522T168 560T221 604Q299 668 359 691T467
714Q477 714 490 709T514 693T535 667T548 631Q549 622 548 600T542 546T532 475T519 393Q512 361 511 338T514 315Q517 315 533 327T571 356T616 394T657 432Q695 469 731 510T796 592T847 672T877 744Q882 761 882 775T879 803Q874 826 877 839Q882 856 893 856Q904
856 918 847T947 822T972 788T987 749Q989 738 988 723T981 688Q968 640 946 596T880 503T769 399T595 270Q563 248 544 234T513 211T497 195T491 183Q490 177 490 159T489 115T490 60T492 5T494 -41T497 -69Q502 -94 519 -106T569 -119Q593 -119 616 -108T667
-78T726 -31T798 28L856 73L861 67ZM127 347H128H127Z" />
<glyph unicode="Y" glyph-name="Y" horiz-adv-x="878" d="M1014 741Q1028 730 1030 706T1021 653Q1018 645 1016 641T1006 623Q1001 614 998 608T988 589T971 555T941 496T892 401T819 261Q765 156 720 81T632 -50T541 -150T436 -237Q379 -277 329 -299T237 -321Q203
-321 172 -307Q122 -286 89 -252T39 -178T20 -95T32 -13Q43 13 50 13Q64 13 71 -12T79 -83Q79 -199 166 -199Q190 -199 212 -196T256 -184T301 -164T351 -132Q397 -100 439 -61T530 35T636 170T769 359Q784 381 793 397T805 420Q804 421 799 414T781 389Q727 317
663 247T540 121T436 31T374 -4Q368 -4 361 -1T342 9Q268 54 258 126T285 301Q305 358 340 416T423 532Q437 549 448 562T472 590Q474 595 473 599T464 603Q449 603 415 590T342 558T263 517T198 476Q176 460 166 449T147 417Q138 391 125 375T94 358Q92 358 90
362T80 379L78 383Q61 413 61 448T79 535Q93 575 136 611T246 674T397 718T580 735Q624 735 636 730H635Q640 726 644 715T650 692T652 666T649 644Q641 621 595 566Q560 522 532 483T482 407T442 331T409 252Q383 178 376 144T381 109Q384 109 398 118T432 142T474
175T518 214Q554 247 599 294T693 396T789 510T881 625Q895 644 898 649T902 654Q902 654 901 654T906 660L926 689Q930 694 933 698T939 707Q956 729 973 738T1000 748Q1003 748 1009 744L1014 741V741Z" />
<glyph unicode="Z" glyph-name="Z" horiz-adv-x="965" d="M1004 -37Q1009 -50 1003 -68Q998 -86 987 -105T960 -141T927 -168T894 -179Q890 -179 892 -173Q893 -167 885 -157T863 -137T832 -117T797 -103Q778 -98 750 -96T687 -93Q631 -93 581 -96T479 -110T371
-139T246 -189L212 -204L159 -227L158 -221V-222L157 -218V-216V-215Q157 -196 147 -177Q133 -160 128 -135T128 -89Q140 -43 190 13T338 147Q359 164 377 179T410 207Q427 221 441 233L430 231L429 225Q429 225 410 222T366 215T321 208T299 204L300 205Q300 205
301 207Q303 217 312 225T341 242T393 260T475 281Q493 285 505 288T527 296T547 307T571 323Q609 350 653 379T743 435T835 489T925 536L978 562L979 576L918 572Q867 569 807 559T686 534T568 498T466 457T391 414T356 373Q354 366 354 362T353 353Q352 350 352
345Q352 337 350 331Q348 317 340 317Q331 317 325 328T317 358T315 398T322 440Q335 494 403 544T587 633Q628 646 683 658T795 680T907 696T1003 702Q1034 702 1051 696T1076 678T1084 649T1077 609Q1069 581 1063 563T1049 533T1028 512T995 494Q977 486 950
471T891 436T828 397T771 361L713 320H758Q772 320 792 318T833 313T869 306T888 299Q892 295 894 288T895 275Q893 269 888 261T877 244T864 228T851 216L849 215L841 210L837 218Q831 229 815 238T776 253T729 264T678 268H643L560 199Q515 162 466 118T374 34T304
-38T272 -80Q279 -82 301 -74T350 -54Q459 -9 569 16T782 41Q877 41 931 21T1004 -37Z" />
<glyph unicode="[" glyph-name="bracketleft" horiz-adv-x="492" d="M112 -202Q103 -198 90 -186T64 -160T41 -131T29 -108Q12 -47 47 96Q54 124 60 146T75 194T97 258T133 353Q173 458 202 529T256 645T299 713T337 744Q345 748 357 749T383 751T408 749T428
743Q438 738 446 728T460 705T466 681T462 662Q460 660 446 657T412 651Q375 646 357 638T322 609Q311 595 297 562T267 486T237 393T213 299Q126 -100 145 -112Q147 -114 164 -115T203 -119Q232 -121 247 -124T276 -134Q301 -147 306 -166T292 -197Q286 -201 260
-203T204 -207T146 -207T112 -202Z" />
<glyph unicode="]" glyph-name="bracketright" horiz-adv-x="493" d="M65 -212Q47 -205 38 -194T21 -163Q15 -142 21 -131Q24 -123 31 -121T65 -115Q98 -112 119 -105T157 -79T188 -26T223 66Q235 101 249 157T278 276T306 403T329 519T343 607T343 646Q341 648
325 649T289 653Q247 655 219 664T184 686Q177 698 179 711T192 732Q196 735 201 737T216 740T242 741T283 742Q328 742 348 741T376 734Q383 730 394 721T416 699T437 675T452 655Q461 638 461 603T455 522T434 422T401 312Q398 304 393 289T380 254T364 211T346
165Q310 71 282 5T231 -106T190 -173T154 -206Q137 -215 110 -216T65 -212Z" />
<glyph unicode="^" glyph-name="asciicircum" horiz-adv-x="310" d="M256 367Q236 375 219 387T194 412Q190 419 188 433T186 464T188 499T194 535Q197 548 198 557T199 568Q198 569 188 558T163 528T133 488T104 447Q90 424 78 409T62 392Q58 391 52 394T40 404T29
416T22 429Q20 436 21 444T30 465T52 497T91 546Q113 573 135 599T176 645T208 678T225 690Q228 690 233 686T244 674T255 659T262 643Q264 636 266 601T269 523Q270 492 270 471T272 436T275 414T280 399Q288 381 288 371T282 360Q279 360 272 362T256 367Z" />
<glyph unicode="_" glyph-name="underscore" horiz-adv-x="768" d="M636 -127Q625 -126 610 -125T577 -123T543 -121T511 -119Q496 -118 467 -117T399 -115T318 -114T232 -113L25 -111L22 -95Q16 -56 51 -43Q66 -39 106 -36T205 -31T337 -29T491 -32Q573 -34 622
-36T699 -42T735 -50T745 -62Q748 -83 735 -102T700 -126Q693 -128 675 -128T636 -127Z" />
<glyph unicode="`" glyph-name="grave" horiz-adv-x="222" d="M33 590Q41 599 49 599T59 589Q60 584 74 571T108 543T145 518T173 504Q185 501 188 488T189 460T178 433T158 421Q143 421 122 433T81 462T44 498T21 535Q17 547 20 562T33 590Z" />
<glyph unicode="a" glyph-name="a" horiz-adv-x="445" d="M414 186Q448 215 460 225T477 236Q480 236 485 230T490 218Q490 215 489 214Q488 212 476 198T445 164T404 120T362 74T324 35T299 9Q289 -1 280 -7T266 -14Q255 -14 243 -2T221 27T205 64T199 99Q199
130 216 166L232 198L180 146Q111 77 71 40T24 2Q15 2 5 14T-14 42T-29 74T-35 98Q-35 103 -34 114T-29 140T-21 170T-9 197Q9 230 40 264T107 325T179 370T243 388Q284 388 307 339L319 313L349 338Q361 348 372 353T387 360Q393 360 399 354T410 338T418 316T421
294Q421 284 413 267T376 212Q342 167 324 139T306 107V106Q309 106 319 112T345 130T378 155T414 186ZM282 306Q282 312 279 312Q271 312 249 298Q233 289 210 268T164 223T127 179T111 150Q111 150 112 149Q116 149 139 167T210 226Q251 260 266 275T282 299V306Z"
/>
<glyph unicode="b" glyph-name="b" horiz-adv-x="408" d="M312 362Q325 362 337 351T358 321T374 283T380 244Q380 206 357 168T300 100T227 50T157 30Q127 30 103 58L88 76L70 40Q62 23 54 14T42 3Q31 3 19 11T-3 31T-21 58T-28 86Q-28 110 -22 140T-3 204T25
271T62 337Q101 399 156 461T267 574T372 657T450 689Q465 689 474 674T483 638Q483 624 462 592T406 520T324 434T226 346Q196 321 176 295T134 228Q132 222 132 221Q132 220 133 220Q135 220 147 231T184 268Q275 360 312 362ZM264 419Q262 417 262 414Q264 414
275 423T300 445T329 475T356 504Q390 543 402 557T414 574Q414 574 405 566T381 543T350 512T316 477T285 445T264 419ZM210 158Q218 165 231 181T258 215T282 248T292 266Q292 269 285 269Q277 270 264 266T236 253Q221 245 200 228T160 191T128 154T114 128Q114
120 130 120Q147 120 168 130T210 158Z" />
<glyph unicode="c" glyph-name="c" horiz-adv-x="363" d="M421 249Q426 242 426 237Q426 234 409 215T366 170T310 114T254 62Q209 22 180 4T126 -14Q96 -14 72 5T32 54T8 117T3 178Q6 213 31 252T91 325T166 381T239 403Q260 403 276 394T302 371T316 337T319
299Q316 270 306 270Q300 270 298 279T295 299T291 319T283 328Q266 328 237 307T178 252T124 180T90 107L85 86L123 89Q146 91 162 94T198 109Q226 123 263 147T334 194T391 234T417 251Q419 251 421 249Z" />
<glyph unicode="d" glyph-name="d" horiz-adv-x="466" d="M472 220Q507 252 518 252Q525 252 525 241Q525 237 513 219T481 176T438 121T393 65T354 19T329 -7Q314 -19 305 -19Q298 -19 291 -15T273 -1Q241 23 227 45T212 97Q212 110 214 125T216 146V149Q204
131 184 104T144 52T108 9T86 -9Q72 -9 54 5T19 41T-9 88T-21 137Q-21 154 -17 170T-5 204Q13 243 39 278T96 338T157 379T216 395Q241 395 263 385T296 359L306 345L330 378Q348 402 373 433T427 498T485 562T540 618T584 658T611 673Q613 674 617 674Q626 672
632 664T642 644T648 621T650 600Q650 594 650 592T647 584T636 570T611 541Q551 473 499 411T409 293T348 193T325 113Q325 103 328 100Q329 99 345 111T384 142T430 182T472 220ZM199 211Q243 266 260 288T278 315Q278 317 276 317Q272 317 264 312T245 298T222
278T198 255Q185 241 169 221T139 179T116 142T106 119Q106 117 107 117Q114 117 140 144T199 211Z" />
<glyph unicode="e" glyph-name="e" horiz-adv-x="339" d="M399 250Q401 248 401 245Q401 240 386 222T346 179T291 126T232 72T179 28T143 4Q128 -3 112 -3Q89 -3 66 12T25 49T-4 97T-15 145Q-15 189 10 233T72 312T154 369T237 391Q272 391 293 365T314 304Q314
276 298 246T257 192T202 152T144 136Q137 136 130 136T112 137Q107 137 102 132T93 120T87 106T84 95Q84 85 106 85Q123 85 139 88T175 101T224 129T293 179Q321 201 340 215T370 237T386 248T395 252Q397 252 399 250ZM194 266Q148 223 148 213Q148 211 150 211Q160
211 191 235Q202 243 215 254T241 278T261 302T269 320Q269 321 268 321Q262 321 241 306T194 266Z" />
<glyph unicode="f" glyph-name="f" horiz-adv-x="247" d="M187 244Q193 224 193 188Q194 162 190 132T179 76Q170 41 154 -3T118 -94T76 -184T31 -262T-11 -318T-47 -339Q-56 -339 -69 -334Q-119 -315 -145 -278T-172 -194Q-172 -115 -126 -8T16 233L68 300L37
301Q27 301 22 301T13 303T9 308T5 318Q3 327 1 335T-1 349Q-1 369 29 374T104 381L148 382L221 466Q249 494 268 511T299 539T319 553T332 557Q340 557 350 545T361 513Q361 508 358 503T348 489T327 465T293 428L254 382L308 378Q338 376 356 373T386 366T401
354T405 335Q405 329 402 321T394 306T384 294T374 289Q368 289 370 293T370 302T353 311T299 315Q288 315 277 315T255 313L200 310L183 290Q168 272 168 263Q168 258 175 257T187 244ZM102 54Q108 69 113 89T122 129T128 166T131 194Q131 200 129 200Q123 200
107 173T71 105T30 15T-10 -78T-39 -155T-51 -196Q-51 -197 -50 -197Q-48 -197 -38 -186T-15 -158T11 -124T32 -92Q58 -49 74 -15T102 54Z" />
<glyph unicode="g" glyph-name="g" horiz-adv-x="440" d="M25 -234Q18 -220 18 -203Q18 -180 41 -137T100 -37T178 84T260 214L233 187Q186 140 147 106T78 48T31 14T10 2Q1 2 -8 13T-26 41T-39 73T-44 98Q-44 131 -28 165T13 232T71 292T136 342T198 375T248
388Q289 388 309 339L325 313Q346 331 359 342T380 360T393 369T402 372Q409 372 415 366T425 351T432 330T434 310Q434 300 433 295T428 283T416 265T393 232Q379 211 356 174T303 90T243 -10T184 -115T134 -214T99 -298Q96 -301 93 -301Q86 -301 77 -295T59 -278T40
-257T25 -234ZM283 299Q283 301 283 303T284 307Q284 312 280 312Q273 312 249 298Q232 288 208 267T160 222T120 178T103 150Q103 150 104 149Q108 149 132 167T206 226Q249 260 265 275T283 299Z" />
<glyph unicode="h" glyph-name="h" horiz-adv-x="416" d="M474 252Q481 249 481 243Q481 232 457 202T372 106Q315 45 287 18T253 -9Q241 -9 229 3T206 32T190 68T183 100Q183 110 185 127T192 162T202 196T212 223L221 241L198 220Q183 205 165 183T128 136T95
87T70 45Q57 19 50 9T35 -2Q26 -2 14 6T-8 26T-25 53T-32 81Q-32 105 -25 137T-4 205T26 277T64 343Q91 384 124 425T194 504T268 575T339 632T400 670T446 684Q462 684 470 667T479 633Q479 619 458 587T402 514T320 428T222 341Q206 328 194 316T172 290T151
257T127 214L113 187L157 230Q201 272 241 304T304 349L330 362L345 346Q363 326 363 309Q363 289 343 255Q336 243 325 220T303 172T285 129T277 106Q277 104 279 104Q283 104 297 114T341 151Q379 183 403 202T441 233T462 248T472 252H474ZM260 413Q258 411
258 410V409V408Q260 408 271 417T296 439T325 469T352 498Q386 538 398 552T410 569Q407 569 387 549T341 503T292 451T260 413Z" />
<glyph unicode="i" glyph-name="i" horiz-adv-x="208" d="M252 401Q249 401 243 410T230 433T220 462T215 487Q215 499 231 525T269 578T316 625T356 645Q367 645 379 627T391 580Q391 565 391 557T386 540T372 520T345 491Q330 476 315 461T287 434T265 413T252
401ZM2 13Q-18 33 -28 59T-39 113Q-39 136 -30 159Q-23 176 -9 198T22 243T59 289T95 329T125 358T146 369Q161 369 172 349T183 298Q183 293 175 275T141 224Q68 125 68 116Q68 115 69 115Q73 115 83 120T111 139T155 175T219 232Q249 259 257 259Q261 259 262
255T263 248Q263 246 256 230T224 189Q183 147 150 112T92 50T51 10T30 -5Q25 -5 18 0T2 13Z" />
<glyph unicode="j" glyph-name="j" horiz-adv-x="230" d="M278 399Q273 399 266 410T252 437T239 470T234 502Q234 515 251 541T291 592T338 637T376 657Q386 657 398 641T411 593Q411 578 411 570T406 553T392 533T365 504Q325 460 303 430T278 399ZM249 361Q249
350 228 314T171 211Q111 99 65 15T-16 -131T-80 -234T-131 -303T-176 -347T-220 -375Q-235 -383 -245 -386T-266 -390Q-274 -390 -283 -387T-305 -377Q-351 -354 -376 -310T-402 -212Q-402 -196 -399 -176T-392 -137T-382 -105T-371 -92Q-370 -92 -367 -93T-360
-99T-353 -115T-350 -145V-171Q-350 -198 -350 -212T-348 -234T-340 -243T-326 -245Q-311 -245 -289 -240T-246 -224Q-226 -214 -196 -189T-132 -128T-62 -49T7 39Q51 99 84 149T131 221V222V223Q128 223 118 217T94 202T69 188T51 181Q42 181 34 187T20 201T11
219T7 237Q7 246 14 251T42 268Q69 282 101 307T168 367Q184 383 196 394T209 405Q212 405 218 400T232 387T244 372T249 361Z" />
<glyph unicode="k" glyph-name="k" horiz-adv-x="405" d="M436 210Q442 206 442 194Q442 189 433 176T409 145T376 108T340 71T307 40T284 23Q267 14 256 14Q244 14 231 22T204 46T181 84T164 135Q162 143 161 150T157 162Q155 168 153 174Q150 174 141 161T119
130T94 90T73 51Q59 22 51 10T34 -2Q25 -2 13 6T-9 26T-26 53T-33 81Q-33 132 -8 196T59 328T153 459T259 573T361 653T446 684Q461 684 470 669T479 634Q479 620 458 588T402 515T320 429T221 341Q190 316 169 289T148 248Q148 241 153 241Q155 241 166 250T194
273T229 305T267 338T299 365T320 381L339 391L352 378Q362 368 368 354T374 327Q374 317 357 297T315 256T262 216T210 190L196 187L223 155Q234 141 245 128T263 110L277 96L296 107Q301 110 313 118T340 138T371 162T401 185T424 203T436 210ZM231 257Q232 257
240 262T258 275T276 288T284 297Q284 298 283 298Q281 298 273 293T256 280T240 266T231 258V257ZM259 413Q257 411 257 410V409V408Q259 408 270 417T295 439T324 469T351 498Q385 537 397 552T410 569H409Q374 537 344 507Q318 481 294 455T259 413Z" />
<glyph unicode="l" glyph-name="l" horiz-adv-x="255" d="M276 215Q303 243 313 243Q320 243 322 233Q323 227 319 219T304 197T275 163T228 112Q167 49 124 12T69 -25Q58 -25 46 -14T22 14T2 51T-10 90Q-14 118 -8 147T11 204T38 260T68 311Q104 371 152 430T248
538T340 616T412 646Q429 646 437 634T449 601Q451 587 433 556T381 483T298 394T191 301Q181 293 168 274T142 230T116 178T93 128T76 90T70 73Q70 70 73 70Q81 70 105 84T160 120T222 167T276 215ZM229 373Q226 369 227 368Q229 368 239 377T264 399T294 428T322
458Q356 497 368 512T380 529Q380 529 374 527Q371 525 361 515T335 490T304 457T272 423T245 393T229 373Z" />
<glyph unicode="m" glyph-name="m" horiz-adv-x="549" d="M546 163Q571 180 579 180Q583 180 585 175T587 166Q587 160 584 153T573 135Q544 88 511 59T455 29Q444 29 431 39T405 66T383 102T369 140L364 160L331 109Q317 88 301 67T275 35L252 12L236 21Q210
35 191 68T169 137L166 171L126 117Q100 81 84 57T58 19T41 -2T26 -8Q20 -8 8 -2T-15 18T-35 50T-44 94Q-43 117 -32 147T-3 210T41 278T98 345L137 386L150 371Q159 360 166 341T174 307Q174 294 167 278T148 243T126 207T107 174L95 155L109 174Q149 224 177
259T224 317T256 350T277 361Q286 361 295 353T312 331T325 304T330 280Q330 263 323 253Q319 247 312 231T297 199T285 168T280 150V149Q282 148 293 161T318 191Q352 234 379 263T413 292Q418 292 423 286T434 272T442 254T445 237Q445 218 438 194T431 146Q431
126 433 123T448 120Q483 120 546 163Z" />
<glyph unicode="n" glyph-name="n" horiz-adv-x="427" d="M112 108Q98 91 84 71T58 33T36 3T22 -9Q8 -9 -5 3T-28 33T-43 71T-47 106Q-45 123 -25 164T31 257Q42 273 60 294T97 333T129 365T148 378Q154 378 160 371T172 353T180 330T182 310Q181 297 170 273T144
229L112 184Q102 171 105 171Q107 171 123 185T179 238Q224 276 263 306T326 349L353 362L367 346Q383 327 382 309Q381 299 376 286T358 255Q350 243 338 220T313 172T291 129T282 106Q282 104 284 104Q288 104 302 114T349 151Q389 183 414 202T455 233T477 248T487
252Q492 252 494 249T496 243Q495 232 469 202T377 106Q316 45 286 18T250 -9Q238 -9 227 3T206 32T192 68T188 100Q189 110 192 127T201 162T213 196T225 223L235 241L211 220Q206 216 201 211T188 196T169 175T141 143L112 108Z" />
<glyph unicode="o" glyph-name="o" horiz-adv-x="380" d="M443 247Q443 241 442 238T435 230T421 220T394 206Q384 201 379 199T369 194T358 190T341 184L287 166L253 119Q230 87 212 64T177 25T148 3T120 -4Q108 -4 98 0T74 12Q-14 70 -14 146Q-14 188 6 229T58
304T124 358T188 380Q201 380 211 384T229 392T243 400T257 404Q273 404 286 395T310 371T325 337T331 298Q331 289 330 279T327 260T324 245T323 235Q323 236 340 240T379 249T417 257T434 261Q441 261 442 258T443 247ZM173 154Q184 163 188 168T192 176Q192
179 185 188T173 213L167 233L149 209Q141 199 134 186T121 159T111 134T107 118Q107 112 109 112Q113 112 133 124T173 154ZM283 323Q284 328 284 334Q284 340 273 340Q262 340 249 333T226 314T208 287T201 256Q201 251 214 243T237 235Q240 235 246 244T260
266T273 295T283 323Z" />
<glyph unicode="p" glyph-name="p" horiz-adv-x="394" d="M310 373Q320 373 329 363T345 337T355 306T358 277Q356 236 334 190T278 104T207 38T133 12Q122 12 111 17T91 30T76 42T66 48Q63 48 59 44T48 30T31 4T5 -36Q-9 -59 -26 -90T-61 -156T-96 -225T-127
-286T-150 -330T-161 -347Q-166 -347 -173 -342T-187 -328T-197 -306T-201 -276Q-200 -249 -192 -215T-167 -137T-126 -39T-67 82Q-19 178 22 243T96 349T154 407T197 425Q205 425 212 419T224 404T233 382T236 356Q236 348 235 342T229 328T218 311T200 286Q185
266 170 247T143 211T124 185T117 173Q124 182 135 193Q143 203 155 217T183 250Q229 306 264 339T310 373ZM210 165Q220 177 230 192T248 223T262 250T268 267Q268 270 267 270Q264 270 253 262T230 242Q217 231 196 209T155 165T119 124T103 103Q103 98 111 98Q131
98 160 117T210 165Z" />
<glyph unicode="q" glyph-name="q" horiz-adv-x="414" d="M225 155Q260 203 260 209V210Q258 210 247 199T220 172T192 143T173 122L137 84Q99 40 82 18T53 -5Q41 -5 28 9T3 43T-15 87T-23 129Q-23 155 -12 183T19 240T64 293T117 338T173 368T226 380Q254 380
269 373T300 342L311 325L334 341Q353 353 365 355Q380 355 380 325Q380 312 376 303T356 272Q339 248 323 223T294 178T274 144T266 126Q266 125 267 125Q273 125 290 133T329 152T373 176T413 198L410 195Q444 221 461 234T485 248Q491 248 491 234Q490 227 488
222T480 211T467 197T447 177Q422 151 393 128T337 86T288 56T252 45Q240 45 240 38Q240 21 244 4T248 -33Q248 -89 226 -171Q212 -224 196 -269T165 -349T135 -402T111 -422Q103 -422 84 -409Q3 -353 3 -277Q3 -244 16 -206Q25 -179 42 -145T80 -74T123 -1T166
67T201 121T225 155ZM197 -51Q199 -36 200 -26T202 -9Q202 -2 200 -2Q196 -2 188 -17T168 -56T145 -109T123 -167T106 -220T96 -259L92 -280L108 -262Q125 -241 140 -214T166 -158T186 -102T197 -51ZM140 198Q118 170 118 166Q118 166 119 165Q123 165 148 185T228
253Q258 279 271 292T285 310Q285 313 281 313Q270 313 253 304T217 278T177 241T140 198Z" />
<glyph unicode="r" glyph-name="r" horiz-adv-x="344" d="M168 227Q157 219 138 199T94 152Q77 126 59 99T26 47T0 6T-14 -18Q-21 -18 -30 -10T-49 10T-64 38T-71 69Q-71 80 -67 93T-57 117Q-49 135 -33 162T5 219T49 279T93 334T129 374T152 389Q161 389 169
383T185 366T197 342T202 317Q202 314 195 304T177 276Q187 284 212 303T278 350Q287 356 296 356Q307 356 316 348T331 330T340 308T344 291Q344 288 333 271T308 234T283 199T271 184Q271 182 274 182Q278 182 287 184T306 188T324 193T334 195Q341 195 341 189Q341
178 329 168T301 150T268 136T243 131Q220 131 204 149T188 197Q188 206 191 215T195 235Q195 239 191 239Q184 239 168 227Z" />
<glyph unicode="s" glyph-name="s" horiz-adv-x="243" d="M170 291Q165 288 156 283T138 272T122 261T115 251Q115 249 116 249L148 210Q171 182 182 160T194 116Q194 91 182 69T148 31T100 5T43 -5Q25 -5 7 3T-27 27T-51 61T-61 103Q-61 118 -52 136T-29 169T-2
195T23 205Q28 205 32 203T36 194Q36 188 31 174T19 145T8 116T2 98Q2 92 6 92Q16 92 36 99T77 117T112 137T127 152Q127 154 120 163T102 184Q76 210 65 233T54 286Q54 308 61 328T82 364T112 389T147 398Q153 398 162 394T179 381T193 359T199 329Q199 308 170
291Z" />
<glyph unicode="t" glyph-name="t" horiz-adv-x="225" d="M364 460Q392 460 402 456T414 439Q415 427 414 422T406 416T388 415T358 414Q328 413 311 412T283 406T263 394T242 372Q226 354 206 327T166 269T126 209T93 154T71 114T65 97Q67 97 74 100T90 108Q110
118 139 140T196 184T244 223T268 240Q274 240 276 228Q276 222 275 217T262 198T227 161T159 94Q135 71 114 51T76 15T49 -9T36 -18Q28 -18 18 -7T-3 20T-22 55T-31 90Q-35 131 -18 168T26 241Q41 261 54 279T83 316T117 358T166 410Q145 409 123 407T82 403T51
399T38 397Q30 399 25 405T17 418T12 432T10 444Q8 460 28 463T92 467Q103 467 118 467T148 467T179 466T207 466Q225 481 245 501T284 540T320 571T345 584Q360 584 366 568T374 534Q375 526 375 520T371 507T358 488T332 460H364Z" />
<glyph unicode="u" glyph-name="u" horiz-adv-x="466" d="M484 229Q503 247 517 259T534 272Q536 272 537 269T538 264Q538 247 508 207T409 92Q364 42 342 22T308 2Q296 2 282 14T256 45T235 86T225 129L223 163L160 95Q137 71 122 56T95 31T78 19T68 15Q62 15
49 24Q18 47 1 79T-17 149Q-17 171 -10 192T15 242Q24 257 41 277T77 318T116 355T147 378L171 391L188 375Q198 366 202 354T207 329Q207 324 199 308T178 269T152 221T125 174T106 138T100 122Q101 121 114 133T146 165T189 209T232 256T269 297T290 323Q297
333 307 344T326 366T344 382T357 388Q366 388 374 379T388 359T398 336T402 318Q402 309 389 279T360 215T331 149T318 106Q318 99 322 99Q328 99 344 110T384 139T433 180T484 229Z" />
<glyph unicode="v" glyph-name="v" horiz-adv-x="295" d="M440 400Q428 400 404 384T349 340T281 273T211 191T145 99T93 4Q76 -32 69 -32Q65 -31 54 -25T32 -10Q3 13 -11 39T-26 101Q-26 137 -9 184T31 275T79 349T120 379Q130 379 138 372T153 354T162 331T166
309Q166 303 165 296T160 277T150 249T135 210L124 181L190 252Q220 284 255 318T324 380T382 427T416 445Q429 445 439 431T449 407Q449 399 443 399Q442 399 442 399T440 400Z" />
<glyph unicode="w" glyph-name="w" horiz-adv-x="477" d="M632 401Q612 401 565 365T454 257Q395 191 353 123T293 -7Q286 -30 282 -35T269 -41Q232 -41 210 -6T188 86Q188 99 189 113T191 140T194 163T195 177Q195 188 193 188Q191 188 177 166T139 102Q123 74
113 56T96 27T85 12T77 8Q62 8 46 19T17 49T-4 93T-13 145Q-13 180 3 223T42 305T91 368T134 394Q138 394 145 389T160 376T173 360T178 346Q178 337 169 312T149 259T128 211T119 187V186Q119 186 126 196T145 220T170 252T196 283T216 308T227 318Q230 317 235
314T244 304T252 286T256 256Q256 241 255 217T251 155L247 85L269 117Q289 146 319 181T385 253T456 324T523 386T577 429T609 445Q623 445 632 432T641 408Q641 400 635 400Q634 400 634 400T632 401Z" />
<glyph unicode="x" glyph-name="x" horiz-adv-x="307" d="M323 157Q275 94 235 59T169 23Q151 23 126 39T78 82Q65 96 59 102T49 108Q47 108 43 104Q29 90 11 64T-24 12T-52 -33T-64 -52Q-66 -52 -71 -49T-80 -40T-88 -30T-91 -19Q-89 -7 -68 27T-11 106L30 159L15
209Q1 249 4 283Q8 315 22 336T51 370T80 388T98 394Q111 394 120 387T128 359Q126 348 122 327T108 268L101 236L185 308Q222 340 243 358T278 385T298 396T313 399Q324 399 330 393T335 375Q334 372 318 359T276 326T221 284T166 240T122 199T103 169Q101 151
112 142T141 132Q162 132 188 141T244 166T303 207T361 263Q395 302 404 302Q410 302 408 288Q406 275 387 245T323 157Z" />
<glyph unicode="y" glyph-name="y" horiz-adv-x="368" d="M245 286Q260 302 274 318T299 348T318 370T329 378Q336 378 345 370T363 349T376 322T382 297Q382 293 376 281T359 254T338 220T316 184Q303 162 282 128T237 53T185 -35T134 -128T89 -219T57 -299Q54
-302 51 -302Q40 -302 27 -291T3 -265T-16 -232T-24 -204Q-24 -186 -17 -169Q-9 -148 16 -106T75 -14T144 91T210 192Q185 163 156 131T101 70T58 23T40 3Q37 -2 24 -2Q12 -2 -1 2T-25 17T-44 43T-52 81Q-52 110 -39 141T-8 202T30 257T64 299Q75 311 83 322T101
341T122 354T148 359Q169 359 190 354T211 337Q211 334 202 321T179 289T150 247T120 204T97 168T88 146Q88 144 90 144Q100 144 142 181T245 286Z" />
<glyph unicode="z" glyph-name="z" horiz-adv-x="306" d="M334 205Q346 196 354 183T362 155Q362 146 360 141T356 136Q354 136 353 138T348 144T339 150T320 153Q302 153 277 149T227 138T182 125T154 114L170 94Q191 68 202 31T214 -55Q214 -117 189 -176T122
-281T24 -355T-93 -384Q-119 -384 -141 -378Q-158 -374 -176 -359T-208 -323T-232 -276T-242 -225Q-242 -193 -223 -148T-163 -57Q-150 -42 -129 -24T-85 14T-39 51T4 84T34 108T46 118Q46 126 43 132T40 143Q40 148 60 164T103 200T147 234T167 252Q167 253 166
253Q164 253 149 247T117 233T85 219T65 213Q55 213 45 221T27 241T13 269T8 298Q8 304 8 307T15 314T34 319T72 327Q99 332 135 342T204 362T260 379T286 387Q298 387 304 374T310 347Q310 325 300 312Q296 306 276 287T231 245T181 201T143 168L125 153L167 170Q223
193 253 203T303 214Q319 214 334 205ZM140 -52Q149 -32 153 -20T158 1Q158 9 150 22T130 49T107 73T90 83Q86 83 68 72T27 45T-18 13T-54 -16Q-80 -39 -104 -69T-148 -131T-179 -193T-191 -248Q-191 -259 -169 -259Q-131 -259 -86 -242T3 -196T83 -130T140 -52Z"
/>
<glyph unicode="{" glyph-name="braceleft" horiz-adv-x="483" d="M172 -188Q157 -182 142 -172T112 -151T85 -128T65 -104Q48 -80 39 -57T30 -6T36 56T59 135Q70 167 77 191T85 219Q85 228 75 230Q69 232 61 239T46 255T34 273T29 289Q29 295 30 299T36 306T51
312T81 322Q113 331 133 351T174 414Q184 434 196 467T217 529Q227 562 235 585T252 625T271 655T296 683Q308 695 323 706T353 726T381 740T403 746Q414 746 429 733T453 705Q459 694 461 676T459 651Q455 644 439 644Q421 644 395 631T346 597Q323 577 307 545T273
454Q259 408 242 370T206 309Q197 298 175 280T131 250Q132 246 134 242Q136 238 138 233T143 222Q159 189 162 155T158 65Q154 36 152 8T150 -44T150 -83T155 -102Q158 -105 171 -106T201 -108T234 -106T259 -100Q266 -97 276 -92T295 -81Q306 -74 312 -73T323
-75Q334 -82 332 -91T315 -119Q307 -129 297 -142T281 -163Q238 -218 172 -188Z" />
<glyph unicode="|" glyph-name="bar" horiz-adv-x="399" d="M114 -366Q69 -357 43 -331Q33 -321 29 -307T27 -262T37 -181T63 -43Q66 -28 70 -5T79 44T89 96T98 147Q112 225 130 307T167 467T206 615T244 741T278 834T305 882Q313 891 316 891T331 885Q341 879
350 868T366 844T378 816T383 788Q383 781 381 773T371 742T346 678T299 563Q269 490 251 445T222 367T202 305T183 236Q150 105 134 6T118 -173Q118 -230 124 -261T144 -306Q158 -318 159 -335T150 -363Q146 -366 144 -368T138 -370T130 -369T114 -366Z" />
<glyph unicode="}" glyph-name="braceright" horiz-adv-x="478" d="M44 -189Q16 -158 22 -122Q23 -114 28 -111T50 -106Q68 -104 87 -95T123 -73T155 -42T179 -6Q184 6 192 30T208 78Q231 155 259 201T329 271L354 286L339 316Q324 345 322 387T327 497Q334 550
335 588T330 634Q328 639 317 640T280 642Q263 642 252 641T231 637T209 627T179 609Q171 604 168 604T157 613Q149 622 150 625T159 641Q164 647 173 659T191 684Q212 714 226 723T266 733Q284 733 306 725T351 703T393 670T426 631Q443 605 451 572T455 510Q455
504 452 492T445 465T436 432T424 396Q408 349 403 331T403 310Q407 308 415 301T432 285T446 267T455 252Q458 240 453 232T437 223Q430 223 419 220T395 211T371 199T352 186Q343 178 332 160T309 118T287 64T267 4Q259 -22 250 -48T234 -87Q224 -108 205 -130T164
-169T120 -198T80 -209Q69 -209 62 -205T44 -189Z" />
</font>
</defs>
</svg>
